<?xml version="1.0" encoding="utf-8"?>
<!-- Generator: Adobe Illustrator 26.0.2, SVG Export Plug-In . SVG Version: 6.00 Build 0)  -->
<svg width="38px" height="38px" version="1.1" id="Art_00000093144964805892607650000010024840060587270074_"
	 xmlns="http://www.w3.org/2000/svg" xmlns:xlink="http://www.w3.org/1999/xlink" x="0px" y="0px" viewBox="0 0 108 107.6"
	 style="enable-background:new 0 0 108 107.6;" xml:space="preserve">
<style type="text/css">
	.st0{fill:#2D2D4D;}
	.st1{fill:#FFFFFF;}
</style>
<circle class="st0" cx="54" cy="54" r="54"/>
<g>
	<path class="st1" d="M62.6,60.9V48.3c0-4.7-3.8-8.6-8.6-8.6c-4.7,0-8.6,3.8-8.6,8.6v12.6c0,4.7,3.8,8.6,8.6,8.6
		C58.7,69.5,62.6,65.6,62.6,60.9z M49.9,60.9V48.3c0-2.2,1.8-4.1,4.1-4.1c2.2,0,4.1,1.8,4.1,4.1v12.6c0,2.2-1.8,4.1-4.1,4.1
		C51.7,65,49.9,63.2,49.9,60.9z"/>
	<path class="st1" d="M72.7,29.6c-10.3-10.3-27-10.3-37.3,0c-0.9,0.9-0.9,2.3,0,3.2c0.9,0.9,2.3,0.9,3.2,0c8.5-8.5,22.4-8.5,31,0
		c0.4,0.4,1,0.7,1.6,0.7s1.2-0.2,1.6-0.7C73.6,31.9,73.6,30.5,72.7,29.6z"/>
	<path class="st1" d="M41.7,35.9c-0.9,0.9-0.9,2.3,0,3.2c0.9,0.9,2.3,0.9,3.2,0c5.1-5.1,13.3-5.1,18.3,0c0.4,0.4,1,0.7,1.6,0.7
		s1.2-0.2,1.6-0.7c0.9-0.9,0.9-2.3,0-3.2C59.5,29.1,48.5,29.1,41.7,35.9z"/>
	<path class="st1" d="M62.6,70c-2.3,2.3-5.3,3.6-8.6,3.6c0,0,0,0,0,0c0,0,0,0,0,0c0,0,0,0,0,0c-3.2,0-6.3-1.3-8.6-3.6
		c-0.9-0.9-2.3-0.9-3.2,0c-0.9,0.9-0.9,2.3,0,3.2c2.6,2.6,5.9,4.2,9.5,4.7v3.8h-4.1c-1.2,0-2.2,1-2.2,2.2s1,2.2,2.2,2.2h12.6
		c1.2,0,2.2-1,2.2-2.2s-1-2.2-2.2-2.2h-4.1v-3.8c3.6-0.5,6.9-2.1,9.5-4.7c0.9-0.9,0.9-2.3,0-3.2C64.9,69.1,63.5,69.1,62.6,70z"/>
</g>
</svg>
