<svg xmlns="http://www.w3.org/2000/svg" width="83.999" height="18" viewBox="31 0 83.999 18"><path fill="#E1373A" d="M92.186 17.993c-6.715.097-13.416-1.076-20.049-2.806-3.894-1.017-7.794-2.022-11.773-2.647-5.53-.869-11.084-1.144-16.673-.773-4.126.271-8.135 1.111-12.082 2.311-.191.058-.446.257-.572-.01-.15-.313.19-.39.375-.5 3.734-2.22 7.762-3.636 11.988-4.49 5.766-1.167 11.575-1.282 17.424-.839 5.609.427 11.039 1.755 16.464 3.131 4.469 1.136 8.958 2.168 13.547 2.637 4.313.442 8.634.532 12.967.24a61.795 61.795 0 0 0 9.636-1.4c.203-.047.461-.183.549.114.082.283-.213.34-.391.436-3.343 1.778-6.9 2.918-10.592 3.653-3.518.7-7.074 1-10.818.943"/><path fill="#E1373A" d="M68 6.081c1.405-.397 2.747-.633 4.098-.825 4.291-.605 8.512-.054 12.702.797 5.046 1.026 10.12 1.854 15.263 2.237 4.729.355 9.459.294 14.187-.04.104-.006.21-.017.315-.023.17-.008.369-.022.422.178.07.263-.168.289-.346.335-2.078.541-4.166 1.048-6.287 1.399-4.011.66-8.061.9-12.121.856-5.598-.062-11.103-.837-16.543-2.108-3.71-.867-7.389-1.865-11.148-2.534A.876.876 0 0 1 68 6.081"/><path fill="#FFF" d="M55.174 4.946c-3.219-.092-6.434.014-9.617.524-4.024.646-7.964 1.642-11.726 3.311-.082.036-.162.07-.244.102-.182.07-.417.218-.54.016-.159-.26.121-.399.28-.53 1.844-1.51 3.84-2.763 5.916-3.897C42.776 2.54 46.534 1.291 50.437.568c3.873-.717 7.78-.747 11.689-.128 2.812.449 5.585 1.042 8.281 1.999.235.083.631.092.59.42-.037.295-.426.24-.67.267-2.875.33-5.667 1.073-8.474 1.757-1.333.326-2.703.073-4.056.064-.875-.005-1.748-.001-2.623-.001"/></svg>