<svg width="35" height="37" xmlns="http://www.w3.org/2000/svg"><path d="M17.5 6.92c-5.737 0-10.404 4.668-10.404 10.404 0 2.76 1.221 4.803 2.3 6.608.957 1.604 1.784 2.99 1.784 4.693v4.22c0 .886.346 1.723.974 2.35a3.301 3.301 0 0 0 2.35.975h5.99a3.329 3.329 0 0 0 3.325-3.325v-4.218c0-1.705.827-3.09 1.785-4.695 1.078-1.804 2.3-3.85 2.3-6.608 0-5.736-4.667-10.404-10.405-10.405zm2.995 27.23h-5.99a1.3 1.3 0 0 1-1.3-1.248h8.59c-.03.693-.6 1.249-1.3 1.249zm1.306-3.267H13.2v-1.248l8.6.001v1.247h.001zm2.071-7.985c-.862 1.442-1.749 2.927-2 4.72l-8.743-.002c-.252-1.793-1.138-3.276-2-4.72-1.036-1.732-2.014-3.37-2.014-5.572 0-4.623 3.762-8.384 8.384-8.385 4.624 0 8.386 3.762 8.386 8.385 0 2.202-.978 3.84-2.013 5.574zm9.767-6.584l-2.943.001a1.01 1.01 0 0 0 .001 2.02l2.943-.002a1.01 1.01 0 0 0-.001-2.019zm-28.326 1.01a1.01 1.01 0 0 0-1.01-1.01l-2.942.001a1.01 1.01 0 0 0 0 2.02h.001l2.942-.002a1.01 1.01 0 0 0 1.01-1.01zM17.5 5.138a1.01 1.01 0 0 0 1.01-1.01V1.186a1.01 1.01 0 0 0-2.019 0v2.941c0 .558.451 1.01 1.009 1.01zm11.429 6.598c.171 0 .345-.044.504-.136l2.548-1.47a1.01 1.01 0 1 0-1.01-1.75l-2.548 1.47a1.01 1.01 0 0 0 .506 1.886zM5.567 23.047L3.019 24.52a1.01 1.01 0 1 0 1.01 1.748l2.548-1.47a1.01 1.01 0 1 0-1.01-1.75zM23.594 6.77a1.01 1.01 0 0 0 1.38-.37l1.47-2.547a1.01 1.01 0 1 0-1.749-1.01l-1.47 2.548a1.01 1.01 0 0 0 .369 1.38zm8.387 17.75l-2.547-1.473a1.01 1.01 0 1 0-1.01 1.75l2.548 1.472a1.01 1.01 0 0 0 1.01-1.749zM6.577 9.852L4.029 8.38a1.01 1.01 0 1 0-1.01 1.748L5.567 11.6a1.01 1.01 0 0 0 1.01-1.749zm3.45-3.451a1.01 1.01 0 0 0 1.75-1.01l-1.472-2.547a1.01 1.01 0 1 0-1.749 1.01L10.027 6.4z" fill="#FFF"/></svg>