<?xml version="1.0" encoding="UTF-8"?>
<!-- Generator: Adobe Illustrator 25.0.0, SVG Export Plug-In . SVG Version: 6.00 Build 0)  -->
<svg xmlns="http://www.w3.org/2000/svg" xmlns:xlink="http://www.w3.org/1999/xlink" id="Layer_1" x="0px" y="0px" viewBox="0 0 142 49" style="enable-background:new 0 0 142 49;" xml:space="preserve">
<style type="text/css">
	.st0{fill:#FFFFFF;}
	.st1{fill:#E0383A;}
</style>
<g>
	<g>
		<g>
			<path class="st0" d="M41.8,27.8C40.4,28.6,39,29,37,29c-4.8,0-8-2.9-8-7.7c0-4.7,3.6-7.7,7.7-7.7c1.4,0,2.6,0.3,3.6,0.8l0.7-0.8     h0.8l0.2,4.9l-0.8,0c-1.4-2.5-2.6-3.8-4.8-3.8c-2.7,0-4.6,2.7-4.6,6.4c0,4.4,2.3,6.7,5.8,6.7c0.7,0,1.3-0.1,1.8-0.3l2.3-3     l0.6,0.3L41.8,27.8z"></path>
			<path class="st0" d="M50.3,29c-3.9,0-5.8-2.8-5.8-6c0-3.2,2.2-6.1,5.9-6.1c3.9,0,5.8,2.8,5.8,6.1S54,29,50.3,29z M50.2,17.8     c-1.7,0-3.3,1.3-3.3,5.2s1.8,5.2,3.6,5.2c1.7,0,3.3-1.8,3.3-5.2C53.8,19.5,52,17.8,50.2,17.8z"></path>
			<path class="st0" d="M73.6,27.9v0.7h-5.8v-0.7l1.8-0.5v-8.7h-0.4l-3.7,9.8h-1.1l-3.7-9.8h-0.4v8.5l1.7,0.6v0.7h-4.5v-0.7l1.6-0.6     v-8.9L57.6,18v-0.7h4.7l0.7,1.9l2.4,6.8h0.1l2.4-6.8l0.6-1.9h5.1V18l-1.9,0.5v9.1L73.6,27.9z"></path>
			<path class="st0" d="M91.6,27.9v0.7h-5.8v-0.7l1.8-0.5v-8.7h-0.4l-3.7,9.8h-1.1l-3.7-9.8h-0.4v8.5l1.7,0.6v0.7h-4.5v-0.7l1.6-0.6     v-8.9L75.6,18v-0.7h4.7l0.7,1.9l2.4,6.8h0.1l2.4-6.8l0.6-1.9h5.1V18l-1.9,0.5v9.1L91.6,27.9z"></path>
			<path class="st0" d="M99.6,27.9v0.7h-6v-0.7l2-0.5v-9.1l-2-0.5v-0.7h6V18l-2,0.5v9.1L99.6,27.9z"></path>
			<path class="st0" d="M115.3,18.4l-1.2-1.8c-0.9-1.3-1.3-1.6-2.5-1.6H110v12.2l2.7,0.5v0.8h-7.7v-0.8l2.7-0.5V15.1h-1.7     c-1.2,0-1.6,0.3-2.5,1.6l-1.2,1.8l-0.6-0.1l0.8-4.3h12.7l0.8,4.3L115.3,18.4z"></path>
		</g>
	</g>
	<g>
		<g>
			<path class="st0" d="M19.2,40.1l-1-1.5c-0.4-0.6-1.1-0.9-2.2-0.9h-2.4V42h0.8c1,0,1.6-0.5,2-1.3l0.3-0.6h0.6v4.7h-0.6l-0.3-0.6     c-0.4-0.9-1-1.3-2-1.3h-0.8v3.9l2,0.5V48h-6v-0.7l1.9-0.5v-9.1l-1.9-0.5v-0.7h9.8l0.3,3.4L19.2,40.1z"></path>
			<path class="st0" d="M27.2,48.3c-3.9,0-5.8-2.8-5.8-6c0-3.2,2.2-6.1,5.9-6.1c3.9,0,5.8,2.8,5.8,6.1C33.1,45.5,31,48.3,27.2,48.3z      M27.1,37.1c-1.7,0-3.3,1.3-3.3,5.2s1.8,5.2,3.6,5.2c1.7,0,3.3-1.8,3.3-5.2C30.7,38.8,29,37.1,27.1,37.1z"></path>
			<path class="st0" d="M42.5,37.3v-0.7H47v0.7l-1.6,0.6V44c0,2.6-1.6,4.3-4.7,4.3c-3,0-4.9-1.4-4.9-4.3v-6.3l-1.7-0.5v-0.7h5.7v0.7     l-1.8,0.5v6.2c0,2.3,1.3,3.2,3.1,3.2c2,0,3-1.3,3-3.2v-6L42.5,37.3z"></path>
			<path class="st0" d="M50.5,37.9l-1.6-0.6v-0.8h4l1.2,1.8l4.6,6.3h0.2v-6.8l-1.8-0.6v-0.7h4.6v0.7l-1.6,0.6v10.2h-1.6l-1.5-2.2     l-5.1-7.2h-0.2v7.9l1.8,0.6V48h-4.6v-0.7l1.6-0.6V37.9z"></path>
			<path class="st0" d="M63.6,37.3v-0.7h5.9c3.9,0,6.3,2.4,6.3,5.7c0,3.2-2.5,5.7-6.4,5.7h-5.7v-0.7l1.9-0.5v-9.1L63.6,37.3z      M69.1,37.6h-1.5v9.3h1.8c2.2,0,3.9-1.1,3.9-4.6C73.3,38.9,71.5,37.6,69.1,37.6z"></path>
			<path class="st0" d="M78.8,46.6l1.5,0.7V48h-4.4v-0.7l1.5-0.7l4.1-10.3h1.7l3.9,10.4l1.5,0.6V48h-5.5v-0.7l1.8-0.5l-0.9-2.5h-4.4     L78.8,46.6z M82,38.4h-0.2L80,43.3h3.7L82,38.4z"></path>
			<path class="st0" d="M99.1,40.6L98.3,39c-0.5-1-1-1.4-2.1-1.4h-0.8v9.2l2,0.5V48h-6.1v-0.7l2-0.5v-9.2h-0.9     c-1.1,0-1.6,0.5-2.1,1.4l-0.7,1.5l-0.8-0.1l0.5-3.9h10.2l0.4,3.9L99.1,40.6z"></path>
			<path class="st0" d="M107.6,47.3V48h-6v-0.7l2-0.5v-9.1l-2-0.5v-0.7h6v0.7l-2,0.5v9.1L107.6,47.3z"></path>
			<path class="st0" d="M114.7,48.3c-3.9,0-5.8-2.8-5.8-6c0-3.2,2.2-6.1,5.9-6.1c3.9,0,5.8,2.8,5.8,6.1     C120.6,45.5,118.5,48.3,114.7,48.3z M114.6,37.1c-1.7,0-3.3,1.3-3.3,5.2s1.8,5.2,3.6,5.2c1.7,0,3.3-1.8,3.3-5.2     C118.2,38.8,116.5,37.1,114.6,37.1z"></path>
			<path class="st0" d="M123.7,37.9l-1.6-0.6v-0.8h4l1.2,1.8l4.6,6.3h0.2v-6.8l-1.8-0.6v-0.7h4.6v0.7l-1.6,0.6v10.2h-1.6l-1.5-2.2     l-5.1-7.2h-0.2v7.9l1.8,0.6V48h-4.6v-0.7l1.6-0.6V37.9z"></path>
		</g>
	</g>
	<g>
		<path class="st1" d="M72.8,4.7c0.9,0.2,1.9,0.4,2.7,0.6c3.7,0.9,7.5,1.9,13.1,1.9c2.9,0,5.5-0.3,7.9-0.7c0.7-0.1,1.8-0.4,3-0.7    c0.2,0,0.1-0.3-0.1-0.3c-7.2,0.6-12.8-0.2-18.2-1.3c-5-1.1-7.6-0.9-10.7-0.1c-0.1,0-0.1,0.1,0,0.1c0.8,0.1,1.5,0.3,2.1,0.5    L72.8,4.7z"></path>
		<path class="st1" d="M75,7.1c-0.9-0.2-1.7-0.4-2.6-0.6l-0.2,0C69.3,5.7,66,5.2,61.8,5.2c-3.9,0-9.5,0.6-14.4,3.4    c-0.1,0.1,0,0.3,0.1,0.3c2.8-0.9,5.8-1.6,10.5-1.6c5.9,0,9.8,1,13.6,1.9c3.9,1,7.5,1.9,13.2,1.9c5.8,0,10.1-1.2,13.1-2.9    C97.9,8.2,97.8,8,97.7,8c-2.3,0.6-5.3,1-9.1,1C82.8,9,78.8,8,75,7.1z"></path>
		<g>
			<path class="st0" d="M66.3,3.4c1-0.3,3.1-0.8,5.2-1c0.1,0,0.2-0.2,0-0.2c-2.5-0.8-5.7-1.5-8.4-1.5c-5.4,0-10.4,1.8-14.3,4.9     c-0.1,0.1,0,0.3,0.2,0.3c3.6-1.6,7.9-2.4,12.7-2.4c1.2,0,2.3,0,3.3,0.1C65.5,3.6,65.9,3.5,66.3,3.4z"></path>
		</g>
	</g>
</g>
</svg>
