<svg xmlns="http://www.w3.org/2000/svg" xmlns:xlink="http://www.w3.org/1999/xlink" width="28" height="28" viewBox="0 0 31 31"><defs><path id="a" d="M0 .156h30.844V31H0z"/></defs><g fill="none" fill-rule="evenodd"><g transform="translate(0 -.156)"><mask id="b" fill="#fff"><use xlink:href="#a"/></mask><path fill="#FFF" d="M15.422 28.92c-7.357 0-13.342-5.986-13.342-13.343S8.065 2.236 15.422 2.236s13.343 5.984 13.343 13.34c0 7.358-5.986 13.345-13.343 13.345m0-28.765C6.919.156 0 7.075 0 15.576 0 24.083 6.919 31 15.422 31s15.422-6.918 15.422-15.423c0-8.502-6.919-15.421-15.422-15.421" mask="url(#b)"/></g><path fill="#FFF" d="M15.79 14.594c-2.43-.477-3.573-.836-3.573-2.053 0-.88.38-1.49 1.163-1.87 1.36-.659 3.619-.402 4.832.552a1.036 1.036 0 0 0 1.46-.175 1.034 1.034 0 0 0-.174-1.457c-.832-.654-1.913-1.07-3.037-1.254V6.49a1.038 1.038 0 1 0-2.08 0v1.787c-.68.078-1.334.244-1.91.524-1.505.731-2.334 2.06-2.334 3.74 0 3.06 3.035 3.657 5.25 4.094 2.392.47 3.24.792 3.24 1.665 0 .855-.36 1.458-1.1 1.84-1.306.678-3.49.476-4.774-.433a1.041 1.041 0 0 0-1.202 1.698c.797.565 1.796.928 2.83 1.096v2.486a1.04 1.04 0 1 0 2.08 0V22.53c.726-.082 1.427-.234 2.02-.54 1.435-.743 2.227-2.053 2.227-3.689 0-2.739-2.726-3.275-4.917-3.706"/></g></svg>