<svg xmlns="http://www.w3.org/2000/svg" xmlns:xlink="http://www.w3.org/1999/xlink" width="161" height="145"><defs><path id="a" d="M0 0h7.836v3H0z"/></defs><g fill="none" fill-rule="evenodd"><circle cx="76.5" cy="72.5" r="72.5" fill="#D8F0F8" fill-rule="nonzero"/><g transform="translate(0 22)"><rect width="75" height="74" x="39" y="18" fill="#FFF" fill-rule="nonzero" rx="2"/><path fill="#292E4C" d="M108.96 93H44.04C40.159 93 37 90.102 37 86.54V21.462C37 17.9 40.158 15 44.04 15h12.788v3.42H44.041c-1.967 0-3.627 1.393-3.627 3.042V86.54c0 1.649 1.66 3.04 3.627 3.04h64.918c1.967 0 3.627-1.391 3.627-3.04V21.462c0-1.649-1.66-3.041-3.627-3.041H96.984V15h11.975c3.883 0 7.041 2.9 7.041 6.462V86.54c0 3.562-3.158 6.46-7.04 6.46"/><path fill="#292E4C" d="M94.762 22H57.236C56.006 22 55 21.028 55 19.841V12.16c0-1.19 1.006-2.16 2.236-2.16h37.526c1.23 0 2.238.97 2.238 2.159v7.682C97 21.028 95.993 22 94.762 22"/><path fill="#292E4C" d="M56.903 12.437a.542.542 0 0 0-.53.54v8.043c0 .294.243.543.53.543h37.193c.288 0 .53-.25.53-.543v-8.043a.543.543 0 0 0-.53-.54H56.903zM94.096 25H56.903C54.75 25 53 23.214 53 21.02v-8.043C53 10.784 54.75 9 56.903 9h37.193C96.248 9 98 10.784 98 12.977v8.043c0 2.194-1.752 3.98-3.904 3.98z"/><path fill="#292E4C" d="M86 10h-5.113c0-2.546-1.969-4.618-4.387-4.618-2.42 0-4.387 2.072-4.387 4.618H67c0-5.513 4.26-10 9.5-10S86 4.487 86 10m18.289 30H50.71c-.943 0-1.71-.67-1.71-1.5s.767-1.5 1.711-1.5h53.578c.944 0 1.711.67 1.711 1.5s-.767 1.5-1.711 1.5m0 16H50.71c-.943 0-1.71-.67-1.71-1.5s.767-1.5 1.711-1.5h53.578c.944 0 1.711.67 1.711 1.5s-.767 1.5-1.711 1.5"/><path fill="#11235A" d="M63.338 74H49.662c-.92 0-1.662-.67-1.662-1.5s.743-1.5 1.662-1.5h13.676c.918 0 1.662.67 1.662 1.5s-.744 1.5-1.662 1.5"/><path fill="#E1373A" d="M86.36 84c-.426 0-.85-.166-1.177-.495l-7.674-7.753a1.797 1.797 0 0 1-.032-2.472 1.645 1.645 0 0 1 2.385-.033l6.52 6.586 14.78-14.361a1.646 1.646 0 0 1 2.383.08 1.793 1.793 0 0 1-.08 2.47L87.513 83.527a1.646 1.646 0 0 1-1.153.474"/><g transform="translate(0 90)"><mask id="b" fill="#fff"><use xlink:href="#a"/></mask><path fill="#292E4C" d="M6.036 3H1.8C.806 3 0 2.33 0 1.5S.805 0 1.8 0h4.237c.994 0 1.8.67 1.8 1.5S7.03 3 6.036 3" mask="url(#b)"/></g><path fill="#292E4C" d="M103.375 93h-89.75C12.727 93 12 92.33 12 91.5s.727-1.5 1.625-1.5h89.75c.897 0 1.625.67 1.625 1.5s-.728 1.5-1.625 1.5m56.145 0h-37.04a1.49 1.49 0 0 1-1.48-1.5c0-.83.663-1.5 1.48-1.5h37.04c.817 0 1.48.67 1.48 1.5s-.663 1.5-1.48 1.5"/></g></g></svg>