<svg width="38" height="38" xmlns="http://www.w3.org/2000/svg"><g fill="none" fill-rule="evenodd"><circle fill="#292E4C" fill-rule="nonzero" cx="19" cy="19" r="19"/><g fill="#FFF"><path d="M18.949 10.683c-1.126 0-2.251-.015-3.376.007-.56.01-1.126.05-1.677.146-1.521.264-2.522 1.14-2.869 2.688a8.203 8.203 0 0 0-.206 1.69 438.127 438.127 0 0 0-.012 7.104c.003.558.05 1.123.151 1.671.279 1.512 1.107 2.585 2.607 2.99.635.17 1.312.24 1.971.249 2.216.029 4.432.014 6.648.006.466-.002.937-.015 1.398-.079 1.493-.206 2.64-.908 3.192-2.404a5.63 5.63 0 0 0 .345-1.93c.01-2.376.01-4.753.007-7.13 0-.42-.014-.842-.06-1.259-.096-.848-.34-1.647-.886-2.32-.769-.946-1.82-1.332-2.976-1.377l-4.257-.052zm.046-1.679c1.42 0 2.84-.002 4.26 0 2.857.005 5.252 2.108 5.655 4.97.038.269.056.542.056.813.005 2.797.035 5.596-.006 8.393-.034 2.36-1.128 4.108-3.19 5.212-.77.411-1.61.589-2.479.59-2.874.004-5.748.005-8.622 0-2.744-.004-5.148-2.085-5.573-4.825a7.5 7.5 0 0 1-.088-1.125c-.008-2.736-.013-5.473-.001-8.209.007-1.616.568-3.019 1.707-4.158 1.089-1.09 2.41-1.65 3.944-1.66 1.446-.01 2.891-.002 4.337-.002v.001z"/><path d="M19.068 22.347a3.358 3.358 0 0 0 3.198-3.564c-.113-1.968-1.754-3.297-3.506-3.193-1.914.113-3.242 1.731-3.16 3.52.089 1.957 1.71 3.314 3.468 3.237m-.143 1.772c-2.836-.02-5.098-2.34-5.078-5.207.02-2.836 2.328-5.129 5.134-5.101 2.793.027 5.06 2.352 5.043 5.172-.016 2.853-2.303 5.156-5.099 5.136m5.338-11.754c.67-.004 1.21.532 1.216 1.205a1.234 1.234 0 0 1-1.221 1.237c-.663-.003-1.192-.548-1.194-1.228a1.19 1.19 0 0 1 1.199-1.214"/></g></g></svg>