<svg xmlns="http://www.w3.org/2000/svg" xmlns:xlink="http://www.w3.org/1999/xlink" width="147" height="145"><defs><path id="a" d="M.595.476H97.45v79.582H.595z"/></defs><g fill="none" fill-rule="evenodd"><circle cx="72.5" cy="72.5" r="72.5" fill="#D8F0F8" fill-rule="nonzero"/><path fill="#FFF" fill-rule="nonzero" d="M28 48h93v66H28z"/><path fill="#BFC0C4" d="M50 115.998L48 116v-1.998l2-.002zm-.033-39.075l-1.965.002L48 74.002 49.965 74l.002 2.923zm.004 5.847l-1.965.001-.002-2.923 1.965-.002.002 2.924zm.005 5.844l-1.964.002-.002-2.923h1.964l.002 2.921zm.006 5.847l-1.964.001-.002-2.923 1.964-.001.002 2.923zm.006 5.846l-1.964.002-.004-2.923 1.964-.002.004 2.923zm.006 5.845l-1.965.002-.003-2.924h1.964l.004 2.922zm.006 5.846l-1.965.002-.004-2.923 1.965-.002.004 2.923zm0-41L48.003 71 48 68.002 50.998 68 51 69.999h-1zm6.953-1L54 70v-1.944l2.953-.002v1.944zm5.905-.006l-2.953.002v-1.943l2.951-.002.002 1.943zm5.904-.006l-2.951.002-.002-1.943 2.952-.002.001 1.943zm5.905-.005l-2.953.002v-1.944l2.953-.002v1.944zm5.905-.006l-2.953.004v-1.944l2.951-.004.002 1.944zm5.905-.006l-2.954.004v-1.944l2.952-.004.002 1.944zm5.904-.006l-2.953.004v-1.944l2.952-.004.001 1.944zm5.905-.006l-2.953.004v-1.944l2.951-.003.002 1.943zm5.905-.004l-2.953.004v-1.943l2.951-.004.002 1.943zm5.904-.004l-2.953.002v-1.943l2.952-.002.001 1.943zm5.905-.005l-2.953.002v-1.944l2.951-.002.002 1.944zm5 .054L119 70v-1.998l2-.002z"/><g transform="translate(25.394 37)"><mask id="b" fill="#fff"><use xlink:href="#a"/></mask><path fill="#292E4C" d="M90.37 3.53h-.001l-82.747.062a3.99 3.99 0 0 0-3.978 3.99l.05 65.436c0 1.06.415 2.06 1.172 2.816a3.945 3.945 0 0 0 2.805 1.17h.004l82.748-.061a3.94 3.94 0 0 0 2.807-1.175 3.96 3.96 0 0 0 1.17-2.815l-.05-65.438a3.99 3.99 0 0 0-3.98-3.984zM7.67 80.06a6.967 6.967 0 0 1-4.959-2.064 6.995 6.995 0 0 1-2.067-4.973L.595 7.585C.592 3.702 3.744.542 7.62.537L90.365.476h.005c3.874 0 7.027 3.156 7.03 7.036l.049 65.438a6.998 6.998 0 0 1-2.06 4.976 6.98 6.98 0 0 1-4.964 2.072l-82.746.06H7.67z" mask="url(#b)"/></g><path fill="#292E4C" d="M117.341 52.976l-85.885.064a3.939 3.939 0 0 1-3.938-3.94l-.005-6.088a3.938 3.938 0 0 1 3.932-3.945l85.886-.063a3.938 3.938 0 0 1 3.938 3.938l.004 6.09a3.938 3.938 0 0 1-3.932 3.944"/><path fill="#FFF" d="M40.244 49.049l-4.497.003a2.267 2.267 0 0 1-2.261-2.263 2.268 2.268 0 0 1 2.258-2.266l4.497-.004a2.268 2.268 0 0 1 2.261 2.264 2.268 2.268 0 0 1-2.258 2.266m18.155-.014l-4.498.003a2.27 2.27 0 0 1-2.262-2.262 2.27 2.27 0 0 1 2.26-2.267l4.497-.003a2.268 2.268 0 0 1 2.26 2.264 2.268 2.268 0 0 1-2.257 2.265m18.154-.013l-4.496.003a2.268 2.268 0 0 1-2.263-2.263 2.268 2.268 0 0 1 2.258-2.266l4.498-.003a2.27 2.27 0 0 1 2.262 2.263 2.27 2.27 0 0 1-2.26 2.266m18.155-.014l-4.497.003a2.267 2.267 0 0 1-2.261-2.262 2.268 2.268 0 0 1 2.258-2.267l4.497-.003a2.268 2.268 0 0 1 2.261 2.264 2.268 2.268 0 0 1-2.258 2.265m18.155-.013l-4.498.003a2.27 2.27 0 0 1-2.262-2.262 2.27 2.27 0 0 1 2.26-2.267l4.497-.003a2.268 2.268 0 0 1 2.26 2.263 2.268 2.268 0 0 1-2.257 2.266"/><path fill="#E1373A" d="M83.16 84.217l-14.503-8.374c-1.45-.839-3.261.21-3.26 1.888l.012 16.77c.002 1.68 1.815 2.726 3.263 1.885l14.491-8.395c1.449-.84 1.447-2.936-.003-3.774"/><path fill="#292E4C" d="M111.557 116.972l-109.03.08a1.528 1.528 0 0 1-.004-3.054l109.03-.081a1.525 1.525 0 0 1 1.527 1.526 1.526 1.526 0 0 1-1.523 1.529m33.473-.024l-16.453.013c-.766.002-1.387-.68-1.389-1.526 0-.844.62-1.527 1.387-1.529l16.453-.013c.766 0 1.389.682 1.389 1.527.001.845-.62 1.528-1.387 1.528"/></g></svg>