<svg xmlns="http://www.w3.org/2000/svg" width="38" height="38"><g fill="none" fill-rule="evenodd"><circle cx="19" cy="19" r="19" fill="#292E4C" fill-rule="nonzero"/><path d="M13.965 13.743c1.225 0 1.988-.834 1.988-1.872C15.93 10.81 15.19 10 13.988 10 12.785 10 12 10.81 12 11.871c0 1.038.763 1.872 1.943 1.872h.022zm-1.757 12.306h3.514V15.22h-3.514v10.828zM17 26h3.603v-6.002c0-.321.025-.641.12-.871.26-.643.852-1.308 1.847-1.308 1.306 0 1.827.987 1.827 2.431V26H28v-6.163C28 16.536 26.223 15 23.852 15c-1.945 0-2.798 1.078-3.273 1.811h.024v-1.558H17C17.047 16.261 17 26 17 26" fill="#FFF"/></g></svg>