<svg xmlns="http://www.w3.org/2000/svg" width="19" height="22" viewBox="0 0 24 28"><g fill="#030D26" fill-rule="evenodd"><path d="M11.695 1.5a6.918 6.918 0 0 0-6.91 6.911c0 3.811 3.1 6.911 6.91 6.911 3.811 0 6.911-3.1 6.911-6.911 0-3.811-3.1-6.911-6.91-6.911m0 15.322c-4.639 0-8.412-3.773-8.412-8.411S7.057 0 11.695 0s8.411 3.773 8.411 8.411-3.773 8.411-8.41 8.411"/><path d="M23.39 27.018h-1.5c0-5.622-4.572-10.196-10.194-10.196-5.622 0-10.196 4.574-10.196 10.196H0c0-6.45 5.246-11.696 11.696-11.696 6.449 0 11.695 5.247 11.695 11.696"/></g></svg>