<svg xmlns="http://www.w3.org/2000/svg" width="494" height="460"><g fill="none" fill-rule="evenodd" transform="translate(-21 4)"><g stroke-width="49"><path stroke="#D8F0F8" d="M91.718 163.424a180.333 180.333 0 0 1 5.695-17.01c8.015-20.485 19.644-39.158 34.103-55.236 16.6-18.455 36.93-33.49 59.801-43.915C214.231 36.82 239.697 31 266.522 31"/><path stroke="#E1373A" d="M266.522 31c23.923 0 46.763 4.622 67.676 13.022 21.425 8.605 40.826 21.174 57.291 36.797 17.162 16.284 32.136 34.887 41.89 56.777 2.27 5.097 3.312 11.317 5.112 16.648"/><path stroke="#292E4C" d="M439.364 154.244c6.25 18.392 9.636 38.09 9.636 58.572 0 24.903-5.007 48.645-14.076 70.29-10.205 24.357-25.556 46.059-44.704 63.77a185.586 185.586 0 0 1-12.874 10.864"/><path stroke="#030D26" d="M378.302 356.785a181.706 181.706 0 0 1-43.53 25.078C313.782 390.336 290.857 395 266.847 395c-31.511 0-61.153-8.032-87.005-22.167a182.381 182.381 0 0 1-13.635-8.252"/><path stroke="#4F4F51" d="M166.207 364.428a182.555 182.555 0 0 1-35.65-31.076c-15.9-17.98-28.295-39.138-36.116-62.401-6.123-18.214-9.441-37.719-9.441-58 0-17.033 2.34-33.52 6.718-49.153"/></g><path fill="#E1373A" d="M410.516 17.1l-9.486 10.914-2.038-1.772 4.146-4.77-5.124-4.454-4.147 4.77-2.037-1.772 9.486-10.913 2.038 1.772-4.08 4.694 5.124 4.455 4.08-4.695 2.038 1.772zm-5.019 14.798l-2.037-1.772 9.486-10.913 2.038 1.771-9.487 10.914zm10.71-.735c.382.332.756.574 1.124.726.367.151.716.223 1.046.214.33-.01.641-.09.933-.243a2.72 2.72 0 0 0 .798-.644c.482-.553.669-1.137.562-1.751-.107-.614-.535-1.247-1.285-1.898l-1.298-1.129-3.149 3.623 1.268 1.102zm.249 10.26l-1.834-1.594c-.347-.301-.48-.656-.4-1.063l.743-5.489a1.08 1.08 0 0 0-.04-.525c-.056-.145-.184-.305-.385-.48l-.868-.755-3.707 4.264-2.03-1.764 9.487-10.913 3.328 2.893c.74.643 1.308 1.272 1.706 1.886.397.615.645 1.209.744 1.78.1.573.062 1.121-.111 1.646a4.324 4.324 0 0 1-.864 1.482c-.32.367-.676.667-1.068.9a3.994 3.994 0 0 1-2.607.53 5.015 5.015 0 0 1-1.436-.414 2.523 2.523 0 0 1 .113 1.211l-.771 6.406zm11.305-6.496l-2.63 3.026 3.818 3.32-1.358 1.562-3.819-3.32-2.683 3.087 4.845 4.212-1.41 1.623-6.883-5.983 9.486-10.914 6.883 5.984-1.404 1.615-4.845-4.212z"/><path fill="#292E4C" d="M217.662 216.42c.69 0 1.278-.087 1.763-.262.485-.176.882-.418 1.192-.728.31-.31.535-.672.675-1.088.14-.415.21-.862.21-1.342 0-.96-.312-1.71-.937-2.25s-1.592-.81-2.903-.81h-2.04v6.48h2.04zm10.77 11.58h-4.59c-.85 0-1.46-.32-1.83-.96l-3.63-6.345c-.17-.27-.36-.467-.57-.593-.21-.125-.51-.187-.9-.187h-1.29V228h-5.07v-21.855h7.11c1.58 0 2.928.162 4.043.487 1.115.326 2.025.778 2.73 1.358.705.58 1.217 1.265 1.537 2.055.32.79.48 1.65.48 2.58 0 .71-.094 1.38-.285 2.01a6.2 6.2 0 0 1-.84 1.748 6.408 6.408 0 0 1-1.372 1.432 7.328 7.328 0 0 1-1.883 1.035 4.461 4.461 0 0 1 1.71 1.545l4.65 7.605zm8.366-17.955v5.1h6.87v3.75h-6.87v5.205h8.97v3.9h-14.07v-21.855h14.07v3.9h-8.97zm29.214.12h-6.15V228h-5.07v-17.835h-6.15v-4.02h17.37v4.02zm13.406 9.48l-2.026-5.985c-.15-.38-.31-.827-.48-1.343-.17-.515-.34-1.072-.51-1.672a24.266 24.266 0 0 1-.96 3.045l-2.01 5.955h5.986zm8.055 8.355h-3.93c-.44 0-.795-.102-1.065-.308a1.953 1.953 0 0 1-.615-.787l-1.29-3.81h-8.31l-1.29 3.81c-.11.28-.308.532-.593.757-.285.226-.637.338-1.058.338h-3.96l8.46-21.855h5.19l8.46 21.855zm8.244 0h-5.1v-21.855h5.1V228zm24.73-21.855V228h-2.64c-.39 0-.717-.062-.982-.188-.265-.125-.527-.342-.787-.652l-10.305-13.035c.04.39.067.767.082 1.132.015.366.022.708.022 1.028V228h-4.47v-21.855h2.67c.22 0 .405.01.555.03.15.02.285.057.406.112.12.055.234.133.344.233.11.1.235.235.375.405l10.396 13.125a18.06 18.06 0 0 1-.106-1.223 22.14 22.14 0 0 1-.03-1.117v-11.565h4.47z"/><path stroke="#030D26" d="M407 215c0 78.424-63.8 142-142.5 142S122 293.424 122 215 185.8 73 264.5 73 407 136.576 407 215z" opacity=".02"/><path stroke="#030D26" d="M377 214.5c0 62.684-50.816 113.5-113.5 113.5S150 277.184 150 214.5 200.816 101 263.5 101 377 151.816 377 214.5z" opacity=".04"/><path stroke="#030D26" d="M349 216c0 46.944-38.056 85-85 85s-85-38.056-85-85 38.056-85 85-85 85 38.056 85 85z" opacity=".084"/><path fill="#292E4C" d="M473.312 328.445l-1.201 4.191 11.775 3.377-.741 2.586-11.776-3.377-1.202 4.191-2.124-.609 3.145-10.968 2.124.61zm6.218-4.74c.14-.487.2-.929.182-1.326a2.561 2.561 0 0 0-.248-1.038 2.108 2.108 0 0 0-.614-.743 2.77 2.77 0 0 0-.921-.452c-.705-.202-1.313-.125-1.825.231-.511.356-.904 1.012-1.177 1.967l-.474 1.653 4.614 1.323.463-1.615zm9.193-4.562l-.67 2.336c-.126.442-.391.713-.794.812l-5.289 1.646a1.07 1.07 0 0 0-.459.258c-.108.112-.199.295-.272.552l-.317 1.105 5.43 1.558-.74 2.585-13.9-3.985 1.215-4.24c.27-.942.6-1.723.99-2.343.389-.62.822-1.095 1.298-1.427a3.35 3.35 0 0 1 1.538-.594 4.324 4.324 0 0 1 1.708.157c.468.134.89.33 1.268.587a3.994 3.994 0 0 1 1.581 2.139c.147.455.225.947.232 1.476a2.523 2.523 0 0 1 1.05-.614l6.131-2.008zm-2.71-10.359l-5.108.366c-.23.025-.498.042-.805.05-.308.01-.638.012-.99.008.302.177.584.351.843.523.26.171.483.329.67.473l4.123 3.002 1.268-4.422zm6.558-3.06l-.573 1.999a.895.895 0 0 1-.325.5 1.09 1.09 0 0 1-.51.197l-3.133.225-1.65 5.758 2.537 1.851a.959.959 0 0 1 .318.414c.08.182.088.382.026.6l-.579 2.019-12.331-9.455.755-2.634 15.465-1.475zm-10.126-17.146l13.9 3.986-.38 1.326a1.214 1.214 0 0 1-.249.486 1.251 1.251 0 0 1-.456.3l-11.347 4.601c.434.083.83.176 1.189.279l8.536 2.447-.653 2.279-13.9-3.986.389-1.356c.03-.108.063-.202.095-.279a.709.709 0 0 1 .119-.195.721.721 0 0 1 .176-.142c.07-.042.161-.085.271-.13l11.394-4.618c-.23-.045-.455-.093-.677-.142a10.78 10.78 0 0 1-.61-.155l-8.45-2.423.653-2.278zm5.538-9.772a.929.929 0 0 1 .223.33.568.568 0 0 1-.001.347.864.864 0 0 1-.275.395c-.144.129-.308.284-.492.467a4.818 4.818 0 0 0-.551.67 3.341 3.341 0 0 0-.445.99c-.103.359-.15.685-.14.98.009.293.064.554.165.78a1.5 1.5 0 0 0 .436.567c.189.152.412.264.668.338.327.093.625.08.895-.04s.526-.309.766-.566c.24-.257.476-.56.708-.91.232-.35.475-.707.729-1.07.253-.365.527-.713.82-1.045.292-.332.621-.61.986-.83a3.263 3.263 0 0 1 1.232-.433c.456-.066.973-.017 1.55.148.628.18 1.185.456 1.671.828.487.372.874.823 1.162 1.353.289.53.464 1.126.527 1.79.063.662-.015 1.378-.236 2.147a6.868 6.868 0 0 1-.504 1.27c-.21.405-.452.781-.725 1.13a6.884 6.884 0 0 1-.895.945 5.569 5.569 0 0 1-1.014.707l-1.023-1.115a.843.843 0 0 1-.154-.314.655.655 0 0 1 .003-.353c.046-.16.16-.315.346-.463.184-.148.393-.327.627-.538.234-.21.466-.468.695-.773.23-.305.414-.698.551-1.179.212-.737.2-1.357-.033-1.861s-.677-.85-1.33-1.037c-.366-.105-.69-.099-.973.018a2.3 2.3 0 0 0-.79.559c-.243.256-.474.56-.694.914-.219.353-.45.71-.692 1.07-.242.361-.507.708-.797 1.04-.29.334-.622.61-.997.828a3.322 3.322 0 0 1-1.29.416c-.484.058-1.044-.003-1.678-.185a3.941 3.941 0 0 1-1.394-.727 3.976 3.976 0 0 1-1.026-1.247 4.483 4.483 0 0 1-.486-1.679c-.063-.628.01-1.307.22-2.038.235-.82.58-1.54 1.035-2.158a5.328 5.328 0 0 1 1.584-1.46l1.036.994zM501 276.328l-.744 2.595-13.9-3.985.744-2.596 13.9 3.986zm-8.1-16.19l-1.203 4.191 11.776 3.377-.742 2.585-11.775-3.376-1.202 4.19-2.124-.608 3.145-10.968 2.124.609zm13.042-1.045l-.744 2.595-13.9-3.986.745-2.595 13.9 3.986zm-2.258-18.354c1.019.292 1.914.731 2.686 1.317a6.914 6.914 0 0 1 1.845 2.073c.458.798.74 1.68.848 2.647.108.967.01 1.98-.293 3.037-.301 1.05-.754 1.958-1.358 2.72a6.8 6.8 0 0 1-2.123 1.8c-.812.437-1.7.7-2.666.79-.966.092-1.958-.01-2.977-.301-1.02-.293-1.914-.733-2.685-1.322a6.938 6.938 0 0 1-1.842-2.083 6.8 6.8 0 0 1-.847-2.651c-.108-.967-.01-1.976.29-3.027a8.115 8.115 0 0 1 .816-1.92 7.268 7.268 0 0 1 1.183-1.513 6.58 6.58 0 0 1 1.487-1.087 6.869 6.869 0 0 1 1.73-.643 7.278 7.278 0 0 1 1.9-.168 8.469 8.469 0 0 1 2.006.331zm-.758 2.644c-.763-.22-1.476-.313-2.14-.281a4.576 4.576 0 0 0-1.794.432 3.896 3.896 0 0 0-1.367 1.101c-.38.477-.666 1.056-.861 1.735-.195.68-.258 1.322-.189 1.927.07.606.26 1.16.574 1.663.314.503.744.943 1.29 1.322.548.379 1.202.677 1.965.896.762.219 1.476.312 2.14.281a4.482 4.482 0 0 0 1.79-.439c.53-.26.984-.63 1.364-1.107.38-.477.666-1.055.861-1.734.195-.68.258-1.322.189-1.928a3.923 3.923 0 0 0-.57-1.657 4.524 4.524 0 0 0-1.288-1.315c-.547-.379-1.201-.678-1.964-.896zm-2.179-18.633l13.9 3.986-.38 1.327a1.214 1.214 0 0 1-.249.485 1.251 1.251 0 0 1-.455.301l-11.348 4.6c.434.083.83.176 1.19.279l8.535 2.448-.653 2.278-13.9-3.986.389-1.355a2.37 2.37 0 0 1 .096-.28.709.709 0 0 1 .118-.195.721.721 0 0 1 .176-.142c.07-.042.161-.085.271-.13l11.395-4.618c-.23-.045-.456-.093-.677-.142a10.78 10.78 0 0 1-.612-.155l-8.449-2.423.653-2.278z"/><path fill="#030D26" d="M229.15 442.68v4.01h5.06v2.07h-5.06v4.09h6.42V455h-9.12v-14.46h9.12v2.14h-6.42zm24.48-2.14V455h-2.37v-9.34c0-.373.02-.777.06-1.21l-4.37 8.21c-.207.393-.523.59-.95.59h-.38c-.427 0-.743-.197-.95-.59l-4.42-8.24c.02.22.037.437.05.65.013.213.02.41.02.59V455h-2.37v-14.46h2.03c.12 0 .223.003.31.01a.839.839 0 0 1 .235.05.51.51 0 0 1 .19.13c.057.06.112.14.165.24l4.33 8.03c.113.213.218.433.315.66.097.227.192.46.285.7.093-.247.19-.485.29-.715.1-.23.207-.452.32-.665l4.27-8.01a1 1 0 0 1 .17-.24.556.556 0 0 1 .195-.13.839.839 0 0 1 .235-.05c.087-.007.19-.01.31-.01h2.03zm7.92 7.27c.493 0 .923-.062 1.29-.185s.672-.3.915-.53c.243-.23.425-.51.545-.84.12-.33.18-.698.18-1.105 0-.387-.06-.737-.18-1.05-.12-.313-.3-.58-.54-.8a2.402 2.402 0 0 0-.91-.505c-.367-.117-.8-.175-1.3-.175h-2.01v5.19h2.01zm0-7.27c.967 0 1.803.113 2.51.34.707.227 1.29.543 1.75.95.46.407.802.893 1.025 1.46a5.03 5.03 0 0 1 .335 1.86c0 .7-.117 1.342-.35 1.925a3.995 3.995 0 0 1-1.05 1.505c-.467.42-1.052.747-1.755.98-.703.233-1.525.35-2.465.35h-2.01V455h-2.69v-14.46h4.7zm21.47 7.23c0 1.06-.175 2.042-.525 2.945a6.914 6.914 0 0 1-1.485 2.345 6.747 6.747 0 0 1-2.31 1.545c-.9.37-1.9.555-3 .555-1.093 0-2.09-.185-2.99-.555a6.8 6.8 0 0 1-2.315-1.545 6.938 6.938 0 0 1-1.495-2.345c-.353-.903-.53-1.885-.53-2.945 0-1.06.177-2.042.53-2.945a6.938 6.938 0 0 1 1.495-2.345 6.8 6.8 0 0 1 2.315-1.545c.9-.37 1.897-.555 2.99-.555.733 0 1.423.085 2.07.255.647.17 1.24.41 1.78.72a6.58 6.58 0 0 1 1.455 1.13c.43.443.795.938 1.095 1.485.3.547.528 1.14.685 1.78a8.45 8.45 0 0 1 .235 2.02zm-2.75 0c0-.793-.107-1.505-.32-2.135a4.576 4.576 0 0 0-.91-1.605 3.896 3.896 0 0 0-1.435-1.01c-.563-.233-1.198-.35-1.905-.35-.707 0-1.342.117-1.905.35a3.942 3.942 0 0 0-1.44 1.01c-.397.44-.702.975-.915 1.605-.213.63-.32 1.342-.32 2.135 0 .793.107 1.505.32 2.135.213.63.518 1.163.915 1.6a3.97 3.97 0 0 0 1.44 1.005c.563.233 1.198.35 1.905.35.707 0 1.342-.117 1.905-.35a3.923 3.923 0 0 0 1.435-1.005c.393-.437.697-.97.91-1.6.213-.63.32-1.342.32-2.135zm24.36-7.23L300.14 455h-2.43l-3.16-9.88a6.738 6.738 0 0 1-.24-.88c-.04.167-.08.323-.12.47-.04.147-.083.283-.13.41l-3.19 9.88h-2.44l-4.48-14.46h2.25c.233 0 .428.055.585.165a.79.79 0 0 1 .315.445l2.46 8.65c.053.213.105.445.155.695l.155.785c.053-.28.112-.543.175-.79.063-.247.132-.477.205-.69l2.84-8.65a.947.947 0 0 1 .315-.42.885.885 0 0 1 .575-.19h.79c.233 0 .423.057.57.17.147.113.257.26.33.44l2.83 8.65c.14.413.267.89.38 1.43.087-.527.183-1.003.29-1.43l2.46-8.65a.748.748 0 0 1 .305-.43.96.96 0 0 1 .585-.18h2.11zm4.48 2.14v4.01h5.06v2.07h-5.06v4.09h6.42V455h-9.12v-14.46h9.12v2.14h-6.42zm13.17 4.74c.507 0 .948-.063 1.325-.19s.687-.302.93-.525c.243-.223.425-.488.545-.795.12-.307.18-.643.18-1.01 0-.733-.242-1.297-.725-1.69s-1.222-.59-2.215-.59h-1.72v4.8h1.68zm6.92 7.58h-2.43c-.46 0-.793-.18-1-.54l-3.04-4.63a1.067 1.067 0 0 0-.375-.37c-.137-.073-.338-.11-.605-.11h-1.15V455h-2.69v-14.46h4.41c.98 0 1.822.102 2.525.305.703.203 1.28.488 1.73.855.45.367.782.805.995 1.315.213.51.32 1.072.32 1.685 0 .487-.072.947-.215 1.38a3.994 3.994 0 0 1-1.62 2.11 5.015 5.015 0 0 1-1.355.63 2.523 2.523 0 0 1 .88.84l3.62 5.34z"/><path fill="#B4DDE9" d="M90.18 60.386l-4.484-2.475a10.89 10.89 0 0 1-.702-.397c-.263-.16-.541-.338-.835-.533.158.313.299.613.423.898.124.285.226.539.305.762l1.822 4.763 3.471-3.018zm7.167 1.005l-1.57 1.364c-.176.153-.357.234-.544.242a1.09 1.09 0 0 1-.535-.112l-2.75-1.518-4.521 3.93 1.12 2.935c.06.15.074.324.042.52a.865.865 0 0 1-.306.518l-1.585 1.378L81.506 56l2.068-1.797 13.773 7.187zm.718-16.856l-3.29 2.86 8.036 9.246-2.03 1.764-8.036-9.245-3.291 2.86-1.45-1.667 8.611-7.486 1.45 1.668zm9.057-7.873l-3.29 2.86 8.036 9.246-2.03 1.765-8.037-9.245-3.29 2.86-1.45-1.668 8.61-7.486 1.45 1.668zm7.796-.589c.382-.332.674-.67.875-1.012a2.56 2.56 0 0 0 .357-1.007c.037-.328 0-.647-.11-.957a2.749 2.749 0 0 0-.527-.88c-.48-.554-1.033-.82-1.656-.8-.622.02-1.309.356-2.058 1.007l-1.298 1.129 3.149 3.623 1.268-1.103zm10.195 1.181l-1.834 1.594c-.347.302-.717.385-1.109.249l-5.332-1.5a1.067 1.067 0 0 0-.525-.033c-.152.034-.328.139-.53.314l-.867.754 3.707 4.264-2.03 1.765-9.487-10.913 3.328-2.893c.74-.643 1.442-1.119 2.106-1.427.664-.308 1.286-.47 1.866-.49a3.345 3.345 0 0 1 1.614.34c.496.245.945.6 1.347 1.062.32.367.567.762.743 1.183a3.994 3.994 0 0 1 .162 2.655 5.015 5.015 0 0 1-.61 1.364 2.523 2.523 0 0 1 1.215.057l6.236 1.655zm3.369-10.163l-4.484-2.475a10.89 10.89 0 0 1-.702-.397c-.263-.16-.542-.338-.835-.533.158.313.299.613.423.898.124.285.225.539.304.762l1.822 4.763 3.472-3.018zm7.167 1.005l-1.57 1.364c-.176.153-.358.234-.545.242a1.09 1.09 0 0 1-.534-.112l-2.75-1.518-4.522 3.93 1.12 2.935c.061.15.075.324.042.52a.865.865 0 0 1-.305.518L125 37.353l-5.192-14.647 2.067-1.797 13.774 7.187zm6.389-10.073a.536.536 0 0 1 .406-.127l1.554.172a5.822 5.822 0 0 1-.538 2.68c-.393.855-1.042 1.675-1.948 2.463-.81.704-1.658 1.198-2.545 1.484a6.38 6.38 0 0 1-2.66.285 6.698 6.698 0 0 1-2.589-.85c-.839-.473-1.61-1.114-2.314-1.924-.713-.82-1.235-1.685-1.566-2.594a6.86 6.86 0 0 1-.427-2.723 6.63 6.63 0 0 1 .702-2.63c.42-.848 1.031-1.62 1.831-2.315.795-.69 1.614-1.173 2.458-1.447a6.682 6.682 0 0 1 2.466-.342l.14 1.534a.817.817 0 0 1-.016.293.581.581 0 0 1-.202.294.66.66 0 0 1-.29.14c-.117.027-.25.05-.401.07-.15.02-.321.048-.513.082a3.622 3.622 0 0 0-.618.173c-.22.081-.459.196-.715.343a5.285 5.285 0 0 0-.814.595c-.488.425-.86.9-1.113 1.425a3.857 3.857 0 0 0-.39 1.663 4.617 4.617 0 0 0 .37 1.798c.253.616.644 1.228 1.173 1.837.534.614 1.095 1.084 1.684 1.411.59.327 1.174.525 1.755.594a3.992 3.992 0 0 0 1.702-.16 4.297 4.297 0 0 0 1.525-.869c.276-.24.514-.473.711-.698.198-.225.363-.452.494-.681a3.64 3.64 0 0 0 .317-.719c.078-.25.135-.522.17-.817a.948.948 0 0 1 .063-.247.508.508 0 0 1 .138-.193zm4.314-15.463l-3.291 2.86 8.037 9.246-2.03 1.765-8.037-9.245-3.29 2.86-1.45-1.668L144.9.892l1.45 1.668z"/><path fill="#4F4F51" d="M29.816 264.818c.216.443.46.802.732 1.078.271.275.564.472.877.59.313.118.645.158.994.122.35-.037.707-.145 1.072-.323.348-.17.636-.377.865-.622.229-.245.39-.524.482-.836.093-.312.111-.659.055-1.04-.056-.38-.193-.795-.412-1.245l-.882-1.806-4.664 2.275.88 1.807zm6.534-3.187c.424.868.689 1.67.795 2.405.106.734.077 1.397-.087 1.989a3.767 3.767 0 0 1-.863 1.561 5.03 5.03 0 0 1-1.525 1.117 5.138 5.138 0 0 1-1.883.53 3.995 3.995 0 0 1-1.813-.285c-.582-.235-1.132-.618-1.65-1.148-.519-.53-.984-1.217-1.396-2.062l-.88-1.806-4.576 2.23-1.179-2.417 12.997-6.339 2.06 4.225zm-.901 13.846c.222.456.472.825.751 1.108.28.283.572.485.88.605.307.121.625.168.953.142.329-.027.657-.12.987-.281.66-.322 1.06-.786 1.201-1.393.142-.606-.005-1.356-.44-2.25l-.755-1.545-4.314 2.104.737 1.51zm-3.78 9.543l-1.065-2.184c-.202-.414-.186-.792.047-1.136l2.829-4.762c.106-.178.162-.344.168-.5.006-.154-.05-.352-.166-.591l-.504-1.034-5.079 2.477-1.179-2.418 12.997-6.339 1.933 3.964c.43.88.707 1.682.833 2.403.125.722.122 1.365-.01 1.93a3.345 3.345 0 0 1-.746 1.47 4.324 4.324 0 0 1-1.374 1.027 4.41 4.41 0 0 1-1.335.412 3.994 3.994 0 0 1-2.607-.531c-.413-.24-.8-.554-1.16-.942a2.523 2.523 0 0 1-.37 1.16l-3.212 5.594zm12.945-1.563l-3.604 1.758 2.218 4.548-1.86.907-2.218-4.548-3.676 1.793 2.814 5.77-1.932.943-3.998-8.197 12.996-6.34 3.998 8.198-1.923.938-2.815-5.77zm1.308 14.382c.216.444.46.803.731 1.079.272.275.564.472.878.59.313.118.645.158.994.121a3.205 3.205 0 0 0 1.072-.322c.347-.17.636-.377.865-.622.229-.246.39-.524.482-.836.092-.313.11-.659.055-1.04-.056-.38-.194-.795-.413-1.245l-.88-1.806-4.666 2.275.882 1.806zm6.534-3.187c.424.87.688 1.67.795 2.405.106.735.077 1.398-.087 1.99a3.767 3.767 0 0 1-.863 1.561 5.03 5.03 0 0 1-1.525 1.116 5.138 5.138 0 0 1-1.884.53 3.995 3.995 0 0 1-1.813-.284c-.582-.236-1.132-.618-1.65-1.148-.518-.53-.983-1.217-1.395-2.062l-.881-1.807-4.575 2.232-1.18-2.418 12.997-6.339 2.06 4.224zm-1.374 17.715l3.552-3.69c.154-.172.342-.364.565-.576.223-.213.466-.435.731-.668-.344.071-.67.13-.977.176-.307.046-.579.078-.815.097l-5.072.527 2.016 4.134zm-2.825 6.663l-.911-1.87c-.103-.21-.134-.406-.093-.589a1.09 1.09 0 0 1 .246-.487l2.178-2.264-2.626-5.383-3.124.322a.959.959 0 0 1-.514-.095.865.865 0 0 1-.42-.429l-.921-1.887 15.49-1.225 1.202 2.463-10.507 11.444zm9.386 1.953c.223.455.473.825.752 1.108.279.283.572.485.88.605.307.121.625.168.953.142.328-.027.657-.12.987-.281.659-.322 1.06-.786 1.2-1.393.143-.607-.004-1.356-.44-2.25l-.754-1.545-4.314 2.104.736 1.51zm-3.779 9.543L52.8 328.34c-.202-.413-.186-.791.047-1.135l2.829-4.762c.106-.178.162-.344.168-.5.006-.154-.05-.352-.167-.591l-.504-1.034-5.078 2.477-1.18-2.418 12.997-6.339 1.934 3.964c.43.88.707 1.682.832 2.403.126.721.123 1.365-.01 1.93a3.345 3.345 0 0 1-.745 1.47 4.324 4.324 0 0 1-1.375 1.027c-.437.213-.882.35-1.334.412a3.994 3.994 0 0 1-2.607-.531c-.413-.24-.8-.554-1.16-.942a2.523 2.523 0 0 1-.37 1.16l-3.212 5.594zm12.945-1.563l-3.604 1.758 2.218 4.547-1.86.908-2.219-4.548-3.676 1.793 2.815 5.77-1.933.943-3.998-8.197 12.997-6.34 3.998 8.198-1.924.938-2.814-5.77z"/><circle cx="267" cy="214" r="171" stroke="#030D26" stroke-width="26" opacity=".181"/><path stroke="#FFF" stroke-width="16" d="M280 65l-24-33.524L280 1M129.223 156.113l-40.629 16.031-24.088-33.371m107.56 189.329l1.168 43.661-39.598 11.222m212-45.97l41.428 13.835-2.998 41.048"/><path stroke="#FFF" stroke-width="17" d="M413.292 183.758l23.294-40.306 42.062 12.564"/></g></svg>