<svg xmlns="http://www.w3.org/2000/svg" width="30" height="30"><g fill="none" fill-rule="evenodd"><path fill="#40AADE" fill-rule="nonzero" d="M0 0h30v30H0z"/><path fill="#FFF" d="M22.614 10.203a5.87 5.87 0 0 1-1.826.673A2.912 2.912 0 0 0 18.692 10c-1.585 0-2.871 1.243-2.871 2.777 0 .218.025.429.074.632a8.247 8.247 0 0 1-5.92-2.902c-.248.411-.39.89-.39 1.397 0 .963.508 1.813 1.279 2.312a2.955 2.955 0 0 1-1.302-.347v.034c0 1.346.99 2.469 2.305 2.723a2.94 2.94 0 0 1-1.297.048c.365 1.104 1.425 1.907 2.682 1.928a5.888 5.888 0 0 1-3.567 1.19c-.231 0-.46-.013-.685-.039A8.346 8.346 0 0 0 13.403 21c5.284 0 8.172-4.23 8.172-7.9 0-.122-.003-.242-.008-.36A5.714 5.714 0 0 0 23 11.301a5.863 5.863 0 0 1-1.65.437 2.8 2.8 0 0 0 1.264-1.536"/></g></svg>