<svg xmlns="http://www.w3.org/2000/svg" width="38" height="38"><g fill="none" fill-rule="evenodd"><circle cx="19" cy="19" r="19" fill="#292E4C" fill-rule="nonzero"/><path fill="#FFF" d="M18.656 17.092c.64-2.018 1.42-3.325 2.322-4.274.67-.708 1.016-.932.622-.154a4.52 4.52 0 0 1 .62-.43c1.09-.517 1.01-.083.262.385 2.048-.74 1.976.203-.19.67 1.771.035 3.653 1.173 4.194 3.595.074.335-.014.303.325.363.734.131 1.425.125 2.096-.092-.072.501-.728.826-1.748 1.041-.38.08-.456.06-.004.163.56.126 1.185.16 1.845.128-.515.598-1.336.904-2.35.918-.634 2.342-2.085 4.019-3.92 5.07C18.42 26.948 12.145 26.59 9 22.098c2.065 1.637 5.123 1.999 7.394-.283-1.488 0-1.874-1.127-.693-1.734-1.118-.012-1.828-.37-2.245-1.016-.158-.246-.159-.263.098-.452.284-.208.67-.3 1.071-.332-1.156-.333-1.864-.944-2.11-1.764-.08-.27-.09-.256.18-.326.268-.069.611-.104.917-.12-.908-.556-1.45-1.24-1.588-1.994-.131-.71.004-.528.531-.324 2.358.911 4.708 1.891 6.1 3.34"/></g></svg>