<svg xmlns="http://www.w3.org/2000/svg" width="38" height="38"><g fill="none" fill-rule="evenodd"><circle cx="19" cy="19" r="19" fill="#292E4C" fill-rule="nonzero"/><path fill="#FFF" d="M27 15.325v1.081a8.583 8.583 0 0 1-1.098 2.922 26.853 26.853 0 0 1-4.52 5.712c-.828.795-1.738 1.484-2.853 1.823-1.082.328-1.84.076-2.516-.847-.552-.753-.85-1.62-1.108-2.512a166.239 166.239 0 0 0-1.483-4.927c-.15-.464-.43-.9-.72-1.295-.273-.374-.531-.388-.921-.165-.329.187-.647.393-.968.59L10 16.792v-.077c.711-.589 1.405-1.202 2.14-1.76.733-.557 1.472-1.125 2.272-1.569.863-.478 1.828-.218 2.343.567a4 4 0 0 1 .563 1.33c.269 1.267.425 2.56.71 3.822.185.818.466 1.624.802 2.391.262.599.628.616 1.1.155a5.84 5.84 0 0 0 .7-.806c.618-.875 1.247-1.755 1.464-2.84.205-1.03-.28-1.565-1.297-1.468-.343.032-.683.111-1.034.17.725-2.507 2.448-3.797 4.923-3.702 1.169.045 1.927.68 2.2 1.844.037.159.076.317.114.476"/></g></svg>