<svg xmlns="http://www.w3.org/2000/svg" xmlns:xlink="http://www.w3.org/1999/xlink" width="100%" height="25" viewBox="0 0 25 32">
    <defs>
        <path id="a" d="M0 .775h25.003V30H0z"/>
        <path id="c" d="M.295.863h10.143v5.293H.295z"/>
    </defs>
    <g fill="none" fill-rule="evenodd">
        <g transform="translate(0 1.138)">
            <mask id="b" fill="#fff">
                <use xlink:href="#a"/>
            </mask>
            <path fill="#FFF" d="M19.651 30H3.086A3.089 3.089 0 0 1 0 26.914V3.861A3.089 3.089 0 0 1 3.086.775h2.41v1.5h-2.41c-.874 0-1.586.712-1.586 1.586v23.053c0 .875.712 1.586 1.586 1.586H18.96l4.543-5.319V3.861c0-.874-.712-1.586-1.586-1.586h-2.803v-1.5h2.803a3.09 3.09 0 0 1 3.086 3.086v19.873L19.651 30z" mask="url(#b)"/>
        </g>
        <path fill="#FFF" d="M18.85 29.844h-1v-5.958h5.958v1H18.85z"/>
        <g transform="translate(7 -.863)">
            <mask id="d" fill="#fff">
                <use xlink:href="#c"/>
            </mask>
            <path fill="#FFF" d="M2.941 2.362a1.147 1.147 0 0 0 0 2.295h4.851a1.148 1.148 0 0 0 0-2.294h-4.85zm4.851 3.795h-4.85A2.65 2.65 0 0 1 .294 3.51 2.65 2.65 0 0 1 2.941.863h4.851a2.65 2.65 0 0 1 2.646 2.647 2.65 2.65 0 0 1-2.646 2.647z" mask="url(#d)"/>
        </g>
        <path fill="#FFF" d="M11.413 20.336l-4.665-4.261a1 1 0 0 1 1.35-1.476l3.294 3.008 5.855-5.52a1 1 0 0 1 1.371 1.456l-7.205 6.793z"/>
    </g>
</svg>
