<svg xmlns="http://www.w3.org/2000/svg" width="34" height="34" viewBox="0 0 34 34">
    <g fill="#FFF" fill-rule="evenodd">
        <path d="M2.617 10.414h28.708c.034-.14.061-.198.062-.256.005-.928-.057-1.862.025-2.783.137-1.558-.439-2.525-2.677-2.008v2.391h-2.588V5.275H7.813v2.5H5.224V5.231c-.51 0-.911-.03-1.306.006-.786.071-1.27.515-1.292 1.311-.035 1.263-.01 2.529-.01 3.866zm.038 2.685c-.016.35-.04.65-.04.952-.003 5.166-.003 10.332-.001 15.498 0 1.452.408 1.853 1.886 1.853 8.321.002 16.643.002 24.965 0 1.53 0 1.931-.395 1.932-1.906V13.1H2.655zM5.258 2.637V.089h2.545v2.47h18.355V.081h2.547v2.556c.499 0 .889-.011 1.278.002 2.32.079 3.986 1.704 3.993 4.018.024 7.771.024 15.542 0 23.313-.007 2.315-1.673 4.001-3.992 4.01-8.638.028-17.276.025-25.913.001C1.708 33.975.024 32.283.017 29.93c-.023-7.74-.022-15.48 0-23.22.006-2.355 1.685-4 4.044-4.07.384-.012.769-.002 1.197-.002z"/>
        <path d="M5 28h2v-2H5zM11 28h2v-2h-2zM16 28h2v-2h-2zM26 23h2v-2h-2zM11 23h2v-2h-2zM5 23h2v-2H5zM26 18h2v-2h-2zM11 18h2v-2h-2zM21 23h2v-2h-2zM16 23h2v-2h-2zM21 18h2v-2h-2zM16 18h2v-2h-2z"/>
    </g>
</svg>
