<svg xmlns="http://www.w3.org/2000/svg" width="569" height="562" viewBox="0 0 569 562">
    <g fill="none" fill-rule="evenodd" transform="translate(2 2)">
        <path fill="#E1373A" d="M330.225 243.983c-15.94.233-31.845-2.582-47.59-6.735-9.239-2.44-18.495-4.85-27.94-6.352-13.124-2.085-26.307-2.746-39.573-1.856-9.794.652-19.308 2.668-28.677 5.548-.454.139-1.058.616-1.357-.025-.354-.75.45-.934.89-1.199 8.862-5.328 18.422-8.726 28.453-10.778 13.687-2.799 27.473-3.076 41.356-2.012 13.312 1.024 26.203 4.21 39.078 7.515 10.606 2.725 21.261 5.202 32.154 6.328 10.235 1.06 20.49 1.276 30.776.575 7.715-.526 15.331-1.616 22.868-3.358.483-.114 1.095-.44 1.303.274.196.677-.504.816-.928 1.044-7.933 4.267-16.377 7.005-25.138 8.767-8.349 1.68-16.789 2.403-25.675 2.264"/>
        <path fill="#292E4C" d="M326.13 306.06c.68-2 1.316-3.828 1.922-5.666 3.164-9.616 6.336-19.228 9.455-28.856.372-1.154.89-1.55 2.073-1.538 5.642.071 11.29.03 16.936.042.618 0 1.5-.25 1.417.883-.063.888.556 2.08-1.037 2.38-1.81.345-3.57.97-5.37 1.374-.853.196-1.18.558-1.175 1.5a8027.9 8027.9 0 0 1 0 34.756c0 .908.271 1.35 1.15 1.542 1.805.396 3.573.966 5.383 1.333 1.396.283 1.024 1.325 1.07 2.229.062 1.175-.77.896-1.384.9-6.725.008-13.446.012-20.171-.013-.514 0-1.404.413-1.33-.716.055-.888-.534-2.08 1-2.404 1.655-.354 3.26-.95 4.915-1.292.982-.208 1.191-.7 1.191-1.654-.025-11.05-.012-22.098-.029-33.148 0-.466.293-1.145-.548-1.241-.702-.084-.986.337-1.207.958-.953 2.712-1.944 5.408-2.914 8.116-3.586 10.025-7.189 20.04-10.725 30.086-.368 1.046-.81 1.366-1.856 1.341-3.097-.075-3.076-.029-4.188-3.162-4.204-11.84-8.426-23.673-12.643-35.51-.16-.45-.347-.896-.548-1.33-.188-.412-.564-.4-.928-.366-.464.046-.576.375-.576.792 0 .27.004.537.004.804 0 10.674.016 21.348-.03 32.023-.004 1.033.28 1.52 1.217 1.829 1.513.491 2.967 1.196 4.48 1.687 1.309.421.945 1.467.95 2.367.003 1.141-.87.825-1.472.829-4.928.016-9.852.016-14.78-.009-.472 0-1.324.38-1.253-.612.062-.85-.627-1.987.664-2.504 1.58-.63 3.143-1.304 4.736-1.896.64-.237.86-.591.86-1.291-.016-11.533-.02-23.065 0-34.594 0-.82-.35-1.096-1.04-1.3-1.425-.42-2.809-1.008-4.242-1.408-1.522-.425-.782-1.646-.857-2.517-.096-1.05.794-.758 1.337-.762 5.288-.017 10.575.017 15.862-.033.982-.009 1.463.329 1.78 1.291a9606.809 9606.809 0 0 0 10.864 32.594c.226.675.292 1.45 1.036 2.167M236.097 294.224c0 5.365.029 10.726-.025 16.09-.013.98.271 1.433 1.15 1.725 1.508.508 2.963 1.208 4.477 1.691 1.425.454.932 1.6.932 2.516-.004 1.062-.874.679-1.405.679-4.929.025-9.858.02-14.787.004-.551 0-1.392.317-1.367-.741.026-.87-.472-1.962.837-2.429 1.5-.537 2.951-1.233 4.456-1.757.886-.313 1.125-.842 1.12-1.78-.029-11.208-.037-22.417.009-33.626.008-1.212-.422-1.725-1.46-2.008-1.24-.337-2.428-.891-3.674-1.166-1.622-.354-.961-1.616-1.033-2.545-.092-1.204.862-.817 1.43-.82 5.234-.026 10.473.024 15.71-.047 1.105-.012 1.518.45 1.845 1.433 3.62 10.922 7.27 21.827 10.91 32.74.084.25.18.5.26.754.109.346.13.833.569.829.468-.008.426-.554.535-.875 1.618-4.848 3.223-9.705 4.82-14.562 2.082-6.327 4.168-12.65 6.216-18.986.306-.945.728-1.337 1.744-1.328 5.748.054 11.5.02 17.249.037.564 0 1.43-.23 1.275.82-.125.842.723 2.096-.916 2.433-1.86.38-3.67 1-5.522 1.42-.753.171-.995.496-.995 1.284.017 11.692.02 23.384-.004 35.072 0 .866.28 1.216 1.082 1.395 1.806.396 3.575.963 5.38 1.342 1.544.32.929 1.52.983 2.399.071 1.129-.827.704-1.337.708-6.723.025-13.45.017-20.176.013-.569-.005-1.375.25-1.325-.792.037-.862-.481-1.983.94-2.308 1.652-.379 3.261-.953 4.917-1.295 1.011-.208 1.333-.666 1.33-1.72-.03-10.997-.013-21.99-.026-32.986 0-.525.243-1.233-.648-1.362-.886-.133-.999.562-1.208 1.146-3.207 8.972-6.409 17.944-9.615 26.916-1.326 3.712-2.693 7.406-3.964 11.134-.326.962-.744 1.308-1.739 1.296-3.227-.038-3.206 0-4.335-3.179-4.24-11.942-8.495-23.871-12.747-35.81-.037-.1-.062-.203-.1-.303-.205-.55-.368-1.154-1.129-1.067-.899.109-.627.838-.631 1.367-.013 5.415-.008 10.834-.008 16.249M145.286 318c-9.236-.172-17.663-2.545-24.107-10.083-3.335-3.897-5.36-8.505-6.356-13.608-1.482-7.638-1.072-15.084 2.125-22.25 4.921-11.033 16.642-18.35 28.225-17.672 4.188.247 8.264.942 12.114 2.733.686.318 1.121.268 1.565-.368.485-.695 1.033-1.34 1.556-2.005.938-1.184 2.176-.62 3.302-.565.435.021.351.594.364.95.2 6.136.385 12.277.607 18.417.029.816-.306.891-.967 1.025-1.557.323-2.49-.104-3.289-1.674-1.962-3.855-4.293-7.467-7.528-10.334-6.674-5.906-17.721-5.048-23.504 4.123-2.996 4.75-4.381 10.066-4.682 15.679-.352 6.63.23 13.155 3.238 19.166 3.331 6.65 8.696 10.246 15.747 11.213 3.134.427 6.23.486 9.29-.557 1.008-.343 1.798-.87 2.455-1.787 2.444-3.394 4.992-6.71 7.428-10.112.64-.896 1.188-.846 2.067-.482.929.39 1.188.837 1.013 1.922-.536 3.285-.946 6.596-1.348 9.907-.109.896-.477 1.394-1.23 1.842-5.616 3.34-11.72 4.466-18.085 4.52M424.465 256.03c7.62 0 15.239.028 22.858-.03 1.171-.012 1.672.306 1.882 1.563.83 4.968 1.763 9.92 2.638 14.88.095.525.452 1.278-.386 1.435-.74.136-1.52.835-2.252-.347-1.812-2.94-3.793-5.763-5.667-8.66-1.965-3.042-4.71-4.353-8.137-4.262-1.463.037-2.934.104-4.389-.02-1.369-.116-1.8.301-1.784 1.81.074 7.717.033 15.435.033 23.148 0 7.663.054 15.327-.04 22.986-.021 1.62.464 2.203 1.914 2.439 2.536.413 5.043 1.042 7.566 1.538 1.68.33.723 1.674.896 2.55.193.95-.51.938-1.155.934-9.135-.004-18.267 0-27.402-.008-.518 0-1.32.182-1.09-.765.218-.913-.895-2.343.876-2.711 2.766-.575 5.527-1.216 8.301-1.74.81-.153 1.077-.451 1.073-1.323-.02-15.91-.02-31.824-.004-47.734 0-.773-.12-1.145-.974-1.116-2.12.066-4.241.041-6.358.025-3.18-.021-5.642 1.41-7.45 4.112-1.83 2.737-3.666 5.473-5.388 8.284-.629 1.03-1.241 1.364-2.33.938-1.175-.463-.53-1.36-.423-2 .81-4.865 1.763-9.706 2.51-14.583.194-1.265.7-1.364 1.673-1.36 7.669.029 15.341.016 23.01.016M174.023 293.17c-.008-9.143 3.06-16.676 10.451-21.63 5.63-3.77 11.88-4.273 18.232-2.708 7.043 1.732 11.974 6.362 14.377 13.643 3.26 9.89 2.611 19.393-3.88 27.701-4.054 5.188-9.52 7.55-15.835 7.797-5.45.218-10.541-.86-14.96-4.441-5.523-4.488-7.802-10.77-8.377-17.934-.065-.805-.008-1.619-.008-2.428m9.21-1.015c.05 4.705.325 8.74 1.71 12.57 1.703 4.726 4.496 8.261 9.374 9.36 5.236 1.179 9.683-1.32 12.463-6.966 2.094-4.257 2.813-8.862 2.82-13.589.005-5.108-.615-10.12-3.116-14.629-2.513-4.53-6.086-7.381-11.182-7.155-5.202.231-8.262 3.637-10.142 8.544-1.544 4.018-1.852 8.245-1.926 11.865"/>
        <path fill="#E1373A" d="M275 215.884c3.408-1.059 6.662-1.69 9.936-2.202 10.413-1.614 20.65-.144 30.812 2.126 12.237 2.735 24.546 4.942 37.022 5.966 11.47.945 22.942.784 34.407-.105.255-.017.51-.047.769-.064.413-.021.894-.06 1.023.474.171.703-.41.771-.84.894-5.04 1.444-10.107 2.795-15.253 3.73-9.727 1.762-19.546 2.402-29.395 2.283-13.578-.165-26.931-2.231-40.125-5.62-8.997-2.312-17.923-4.975-27.04-6.758-.405-.08-.802-.161-1.316-.724"/>
        <path fill="#292E4C" d="M243.933 213.54c-7.538-.215-15.067.033-22.522 1.224-9.425 1.504-18.653 3.83-27.464 7.724-.192.083-.38.162-.572.236-.426.165-.977.508-1.265.037-.371-.607.284-.93.656-1.236 4.32-3.521 8.994-6.447 13.857-9.093 8.273-4.509 17.075-7.423 26.216-9.109 9.074-1.674 18.223-1.744 27.377-.298 6.586 1.046 13.08 2.43 19.396 4.663.55.194 1.477.215 1.381.98-.088.69-.997.561-1.57.623-6.732.769-13.272 2.505-19.846 4.1-3.122.76-6.332.17-9.5.15-2.05-.01-4.094 0-6.144 0M377.15 270.013c3.524 0 7.053-.004 10.578.004.524.004 1.33-.209 1.153.764-.148.802.731 2-.803 2.351-1.969.455-3.909 1.048-5.882 1.466-.854.18-1.065.568-1.065 1.403.02 11.659.02 23.317-.005 34.976 0 .902.224 1.336 1.15 1.511 1.88.355 3.727.927 5.608 1.278 1.585.3.9 1.508 1.014 2.385.148 1.131-.71.806-1.25.806-7.105.012-14.209.012-21.313 0-.54 0-1.39.321-1.242-.815.118-.88-.55-2.088 1.035-2.38 1.885-.347 3.727-.923 5.608-1.278.93-.175 1.141-.605 1.137-1.511a7351.8 7351.8 0 0 1 .004-34.81c0-.968-.22-1.415-1.213-1.607-1.931-.376-3.816-.981-5.735-1.411-1.538-.347-.667-1.545-.815-2.347-.178-.965.613-.777 1.145-.781 3.63-.008 7.26-.004 10.89-.004"/>
        <path stroke="#787F8C" stroke-dasharray="1,30" stroke-linecap="round" stroke-linejoin="round" stroke-width="4" d="M283.5 487C400.86 487 496 392.98 496 277S400.86 67 283.5 67 71 161.02 71 277s95.14 210 212.5 210z"/>
        <path stroke="#EDEDED" stroke-dasharray="1,20" stroke-linecap="round" stroke-linejoin="round" stroke-width="3" d="M282.5 558C438.52 558 565 433.087 565 279S438.52 0 282.5 0C126.48 0 0 124.913 0 279s126.48 279 282.5 279z"/>
        <circle cx="123" cy="417" r="6" fill="#DF0C00" fill-rule="nonzero"/>
        <circle cx="465" cy="385" r="6" fill="#DF0C00" fill-rule="nonzero"/>
        <circle cx="489" cy="87" r="6" fill="#DF0C00" fill-rule="nonzero"/>
        <circle cx="30" cy="159" r="6" fill="#DF0C00" fill-rule="nonzero"/>
    </g>
</svg>
