<svg xmlns="http://www.w3.org/2000/svg" width="80" height="80" viewBox="0 0 96 96">
    <g fill="none" fill-rule="evenodd" transform="translate(7 7)">
        <circle cx="41" cy="41" r="41" fill="#FFF" fill-rule="nonzero" stroke="#030D26" stroke-width="13"/>
        <path fill="#E1373A" d="M50.648 45.996c-3.803.058-7.598-.646-11.354-1.684-2.205-.61-4.413-1.213-6.666-1.588a40.16 40.16 0 0 0-9.442-.464c-2.336.163-4.606.667-6.841 1.387-.109.035-.253.154-.324-.006-.085-.188.107-.234.212-.3 2.115-1.332 4.395-2.182 6.789-2.695 3.265-.7 6.554-.769 9.866-.502 3.176.256 6.252 1.052 9.324 1.878 2.53.682 5.072 1.3 7.67 1.582a40.87 40.87 0 0 0 7.343.144 33.154 33.154 0 0 0 5.456-.84c.115-.028.261-.11.31.069.048.17-.12.204-.22.261-1.893 1.067-3.908 1.751-5.998 2.192-1.992.42-4.005.6-6.125.566"/>
        <path fill="#E1373A" d="M38 38.72c.807-.264 1.578-.421 2.353-.55 2.466-.403 4.891-.036 7.298.532 2.898.684 5.813 1.235 8.768 1.492 2.717.236 5.434.195 8.15-.027.06-.004.12-.012.181-.016.098-.005.212-.015.243.119.04.176-.097.193-.2.223-1.193.361-2.393.699-3.612.933-2.304.44-4.63.6-6.962.57-3.216-.04-6.378-.557-9.503-1.404-2.131-.578-4.245-1.244-6.404-1.69a.478.478 0 0 1-.312-.181"/>
        <path fill="#292E4C" d="M30.254 38.748c-1.779-.052-3.555.008-5.314.29-2.224.36-4.402.913-6.48 1.84-.046.02-.09.039-.136.056-.1.04-.23.121-.298.01-.088-.146.067-.222.155-.295 1.019-.839 2.122-1.535 3.27-2.165 1.951-1.074 4.028-1.767 6.185-2.169 2.141-.399 4.3-.415 6.46-.07 1.554.248 3.086.578 4.576 1.11.13.045.349.05.326.232-.02.165-.235.134-.37.149-1.588.183-3.132.596-4.683.976-.737.181-1.494.04-2.241.036-.484-.002-.967 0-1.45 0"/>
    </g>
</svg>
