<?xml version="1.0" encoding="utf-8"?>
<!-- Generator: Adobe Illustrator 16.0.4, SVG Export Plug-In . SVG Version: 6.00 Build 0)  -->
<!DOCTYPE svg PUBLIC "-//W3C//DTD SVG 1.1//EN" "http://www.w3.org/Graphics/SVG/1.1/DTD/svg11.dtd">
<svg version="1.1" id="GuideStar_Seal" xmlns="http://www.w3.org/2000/svg" xmlns:xlink="http://www.w3.org/1999/xlink" x="0px"
	 y="0px" width="108px" height="108px" viewBox="0 0 108 108" enable-background="new 0 0 108 108" xml:space="preserve">
<circle fill="#FFFFFF" cx="54" cy="54" r="53"/>
<path fill="#9FB1BF" d="M54,1C24.729,1,1,24.729,1,54s23.729,53,53,53s53-23.729,53-53S83.271,1,54,1z M40.633,103.215
	C13.374,95.908-2.803,67.891,4.499,40.633C11.806,13.374,39.827-2.804,67.084,4.5c27.258,7.305,43.436,35.324,36.131,62.583
	C95.91,94.342,67.895,110.519,40.633,103.215z"/>
<g>
	<polygon fill="#9FB1BF" points="67.756,97.484 68.72,97.234 67.855,95.867 	"/>
	<path fill="#9FB1BF" d="M72.976,94.67c-0.136-0.388-0.451-0.516-0.9-0.359l-0.332,0.113l0.422,1.221l0.319-0.111
		C72.934,95.377,73.113,95.07,72.976,94.67z"/>
	<path fill="#9FB1BF" d="M49.926,97.234l-0.397-0.023l-0.178,2.716l0.397,0.026c0.782,0.053,1.295-0.328,1.358-1.277
		C51.167,97.747,50.675,97.285,49.926,97.234z"/>
	<path fill="#9FB1BF" d="M53.708,88.912c-10.651,0-21.23,0.965-32.276,2.932c5.482,4.685,12.071,8.253,19.501,10.245
		c16.465,4.411,33.211,0.055,45.289-10.204C75.088,89.889,64.437,88.912,53.708,88.912z M37.17,97.619
		c0.422,0.125,0.748,0.129,1.092,0.062l0.408-1.343l-1.229-0.372l0.142-0.974l2.432,0.738l-0.878,2.888
		c-0.681,0.194-1.502,0.214-2.31-0.03c-1.922-0.585-2.591-2.168-2.024-4.037c0.57-1.879,2.071-2.812,3.914-2.252
		c0.772,0.233,1.301,0.605,1.697,1.042l-0.495,1.028c-0.357-0.463-0.827-0.876-1.494-1.077c-1.185-0.359-2.043,0.317-2.434,1.609
		C35.598,96.2,35.951,97.246,37.17,97.619z M44.711,98.48c-0.232,1.213-1.127,1.646-2.18,1.444c-1.066-0.204-1.7-0.921-1.466-2.138
		l0.506-2.631l1.084,0.209l-0.505,2.623c-0.108,0.562,0.081,0.938,0.566,1.031c0.492,0.095,0.799-0.18,0.907-0.734l0.508-2.635
		l1.083,0.209L44.711,98.48z M46.795,100.529l-1.088-0.143l0.568-4.393l1.087,0.143L46.795,100.529z M49.75,100.809l-1.552-0.102
		l0.29-4.423l1.526,0.101c1.538,0.102,2.281,1.042,2.195,2.357C52.123,100.057,51.243,100.907,49.75,100.809z M53.343,100.963
		l-0.061-4.423l2.755-0.038l0.013,0.885l-1.679,0.023l0.013,0.834l1.283-0.02l0.152,0.876l-1.423,0.021l0.014,0.936l1.737-0.023
		l0.013,0.891L53.343,100.963z M59.554,100.756c-0.847,0.082-1.576-0.033-2.243-0.264l0.102-1.354
		c0.68,0.283,1.423,0.453,2.053,0.393c0.447-0.041,0.738-0.264,0.703-0.638c-0.032-0.354-0.23-0.503-1.147-0.755
		c-1.305-0.363-1.892-0.721-1.989-1.763c-0.115-1.214,0.77-1.952,1.975-2.065c0.822-0.079,1.364,0.025,1.938,0.238l-0.112,1.334
		c-0.595-0.273-1.206-0.398-1.69-0.352c-0.474,0.043-0.683,0.266-0.654,0.557c0.029,0.32,0.219,0.459,1.031,0.686
		c1.425,0.369,2.007,0.793,2.104,1.796C61.75,99.939,60.803,100.637,59.554,100.756z M65.064,99.893l-1.085,0.199l-0.63-3.445
		l-1.232,0.225l-0.168-0.916l3.452-0.629l0.319,0.886l-1.285,0.235L65.064,99.893z M69.753,98.852L69.195,98l-1.479,0.381
		l-0.057,0.963l-1.044,0.27l0.431-4.705l1.169-0.302l2.568,3.792L69.753,98.852z M72.924,97.826l-1.031,0.354l-1.447-4.184
		l1.462-0.506c1.013-0.351,1.768-0.096,2.065,0.766c0.201,0.582,0.047,1.079-0.378,1.461l1.558,1.188l-1.037,0.553l-1.429-1.163
		l-0.261,0.093L72.924,97.826z"/>
</g>
<g>
	<path fill="#9FB1BF" d="M77.382,18.686c0.437-0.708,0.237-1.321-0.579-1.822l-0.463-0.286l-1.344,2.179l0.43,0.266
		C76.242,19.524,76.912,19.449,77.382,18.686z"/>
	<path fill="#9FB1BF" d="M19.867,30.528c1.358,1.066,2.68,1.16,3.45,0.178c0.777-0.992,0.367-2.243-0.99-3.309
		c-1.358-1.065-2.672-1.167-3.45-0.178C18.107,28.201,18.509,29.463,19.867,30.528z"/>
	<polygon fill="#9FB1BF" points="83.037,22.21 80.275,23.795 81.725,25.106 	"/>
	<path fill="#9FB1BF" d="M89.325,30.47c0.653-0.47,0.718-1.136,0.174-1.894l-0.405-0.563l-2.056,1.479l0.39,0.542
		C87.973,30.792,88.648,30.956,89.325,30.47z"/>
	<path fill="#9FB1BF" d="M66.783,5.626c-26.638-7.138-54.019,8.67-61.158,35.308c-3.537,13.196-1.438,26.572,4.816,37.58
		c1.159-0.267,2.32-0.517,3.481-0.763c0.508-0.106,1.014-0.214,1.52-0.315c0.954-0.195,1.905-0.385,2.858-0.562
		c0.585-0.109,1.17-0.216,1.756-0.32c0.76-0.139,1.523-0.271,2.285-0.397c0.476-0.08,0.954-0.161,1.433-0.237
		c1.107-0.178,2.216-0.348,3.323-0.506c1.025-0.146,2.049-0.283,3.075-0.414c0.06-0.006,0.119-0.015,0.179-0.021
		c7.328-0.921,14.63-1.409,21.933-1.47c1.144-0.01,2.287-0.008,3.432,0.004c6.021,0.061,12.044,0.413,18.082,1.065
		c0.979,0.104,1.961,0.222,2.941,0.343c-0.004,0.006-0.007,0.009-0.011,0.014c0.936,0.115,1.871,0.234,2.807,0.365
		c0.002-0.003,0.004-0.006,0.006-0.008c0.449,0.062,0.898,0.117,1.346,0.187c-0.004,0.003-0.006,0.003-0.008,0.009
		c4.031,0.588,8.066,1.309,12.097,2.152c0.136,0.028,0.271,0.057,0.405,0.085c1.291,0.271,2.584,0.557,3.873,0.859
		c2.064-3.63,3.705-7.577,4.835-11.798C109.227,40.145,93.42,12.764,66.783,5.626z M90.943,27.801
		c1.229,1.708,1.172,3.271-0.281,4.315c-0.982,0.706-2,0.693-2.961,0.112l-1.355,3.596l-1.629-1.638l1.387-3.339l-0.316-0.439
		l-2.426,1.743l-1.25-1.738l7.059-5.076L90.943,27.801z M85.489,21.438l-3.445,8.312l-1.854-1.204l0.793-1.833l-2.223-2.015
		l-1.641,0.947l-1.57-1.422l8.184-4.376L85.489,21.438z M77.764,15.542c1.804,1.115,2.413,2.6,1.42,4.211
		c-1.033,1.674-2.756,1.798-4.547,0.691l-0.474-0.291l-1.515,2.459l-1.835-1.132l4.566-7.408L77.764,15.542z M67.834,18.509
		c0.576,0.224,1.072,0.135,1.259-0.348c0.181-0.457,0.028-0.759-0.941-1.64c-1.376-1.256-1.876-2.061-1.352-3.398
		c0.61-1.563,2.158-1.918,3.708-1.312c1.055,0.413,1.66,0.879,2.229,1.495l-0.966,1.573c-0.562-0.708-1.234-1.243-1.856-1.486
		c-0.61-0.238-1.005-0.096-1.152,0.279c-0.16,0.412-0.015,0.699,0.841,1.482c1.523,1.339,1.977,2.22,1.471,3.512
		c-0.688,1.762-2.283,2.029-3.891,1.401c-1.094-0.427-1.918-1.02-2.591-1.718l0.962-1.599
		C66.217,17.524,67.023,18.192,67.834,18.509z M57.896,8.779l2.062,0.355l2.328,5.338l0.828-4.795l1.976,0.342l-1.48,8.57
		l-1.839-0.316l-2.494-5.713l-0.883,5.131l-1.977-0.342L57.896,8.779z M41.703,10.353c2.03-0.549,3.473,0.055,3.939,1.782
		c0.315,1.168-0.054,2.116-0.938,2.812l2.82,2.474l2.541-8.593l2.367-0.133l3.498,8.293l-2.158,0.474l-0.75-1.853l-2.997,0.168
		l-0.478,1.833l-2.115,0.12l0.061-0.203l-2.007,0.901l-2.638-2.474l-0.521,0.142l0.778,2.884l-2.069,0.558l-2.266-8.397
		L41.703,10.353z M23.139,54.639c-0.004-0.211-0.015-0.419-0.015-0.629c0-7.924,2.988-15.15,7.896-20.618L46.758,53L23.139,54.639z
		 M37.955,57.316l-13.196,6.623c-0.846-2.492-1.375-5.127-1.559-7.861L37.955,57.316z M50.364,47.119L32.101,32.244
		c4.776-4.807,11.123-8.044,18.206-8.892L50.364,47.119z M36.368,12.025l1.082,1.504l-2.293,1.133l3.045,6.159l-1.942,0.96
		l-3.046-6.157l-2.203,1.089L30.2,15.075L36.368,12.025z M50.301,20.449l0.003,1.173c-7.591,0.912-14.387,4.403-19.481,9.581
		l-0.905-0.737C35.232,25.031,42.348,21.371,50.301,20.449z M26.125,17.86l1.17,1.372l-2.331,1.99l1.155,1.354l1.726-1.475
		l1.403,1.174l-1.956,1.671l2.154,2.522l-1.631,1.393l-5.653-6.618L26.125,17.86z M17.556,26.168
		c1.556-1.983,3.987-2.141,6.098-0.483s2.546,4.081,0.982,6.074c-1.54,1.962-3.98,2.131-6.09,0.473
		C16.426,30.567,16,28.149,17.556,26.168z M7.915,51.14l1.739,0.023l-0.042,3.305l1.639,0.021l0.033-2.521l1.732-0.256l-0.036,2.8
		l1.84,0.024l0.045-3.417l1.753,0.022l-0.072,5.537l-8.7-0.113L7.915,51.14z M17.007,63.635l-1.867-0.017
		c0.328-0.962,0.492-1.997,0.352-2.853c-0.1-0.609-0.43-0.993-0.939-0.909c-0.485,0.08-0.669,0.365-0.934,1.647
		c-0.379,1.823-0.817,2.662-2.236,2.894c-1.656,0.268-2.75-0.882-3.017-2.524c-0.184-1.119-0.089-1.875,0.15-2.681l1.845,0.032
		c-0.322,0.842-0.438,1.693-0.332,2.354c0.105,0.646,0.43,0.912,0.829,0.849c0.433-0.073,0.608-0.345,0.843-1.48
		c0.379-1.99,0.907-2.831,2.273-3.053c1.867-0.304,2.912,0.931,3.189,2.636C17.354,61.688,17.263,62.699,17.007,63.635z
		 M17.933,44.739l-1.985,0.23l-0.633,2.933l1.641,0.948l-0.446,2.07l-7.881-4.899l0.499-2.316l8.921-1.17L17.933,44.739z
		 M18.655,42.133l-8-3.415l0.847-1.982l6.283,2.681l1.048-2.458l1.83,0.466L18.655,42.133z M20.213,54.261
		c0-8.909,3.426-17.017,9.027-23.084l0.735,0.917c-5.339,5.845-8.599,13.626-8.599,22.168c0,0.167,0.009,0.333,0.012,0.5
		l-1.164,0.08C20.222,54.647,20.213,54.455,20.213,54.261z M22.052,65.297c-1.027-2.988-1.651-6.166-1.8-9.467l1.17,0.099
		c0.153,3.081,0.734,6.044,1.678,8.843L22.052,65.297z M26.761,74.322c-1.696-2.32-3.1-4.862-4.171-7.573l1.123-0.315
		c1.106,2.774,2.577,5.367,4.356,7.709C27.632,74.203,27.197,74.258,26.761,74.322z M30.334,73.841
		c-1.98-2.362-3.61-5.028-4.818-7.913l20.841-5.861l-5.177,8.01l0.063,0.608l0.602,0.067l9.858-6.24l0.52,9.869
		C44.939,72.439,37.649,72.924,30.334,73.841z M55.27,63.846l-0.448,0.352l-0.423-0.383l-0.69-5.305l-3.903,2.439l-0.556-0.066
		L49.21,60.32l2.199-3.191l-8.792,1.786L42.104,58.6l0.266-0.537l4.599-1.74l-2.749-0.379l-0.378-0.437l0.374-0.436l6.555-1.002
		l-6.665-7.875l0.013-0.589l0.59-0.056l8.226,6.101l-0.441-14.21c-0.006-0.233,0.167-0.427,0.398-0.451
		c0.234-0.021,0.437,0.138,0.477,0.368l2.357,14.332l2.743-3.724l0.533-0.142l0.246,0.503l-0.641,2.739l4.224-2.914l0.593,0.075
		l-0.02,0.595l-4.932,5.219l6.072,2.258l0.288,0.483l-0.443,0.369h-4.998l7.41,6.694l0.052,0.6l-0.348,0.17l-0.25-0.08l-9.711-6.797
		L55.27,63.846z M63.456,37.632l-0.569,0.186l-5.953,8.69l-3.966-23.359c0.347-0.012,0.694-0.026,1.042-0.026
		c9.88,0,18.67,4.644,24.323,11.862l-0.312-0.045l-14.881,9.854l0.637-6.658L63.456,37.632z M56.006,72.391l2.808-10.867
		l13.534,11.787C66.89,72.764,61.447,72.457,56.006,72.391z M77.951,73.512L65.541,59.32l11.85,0.004
		c0.242,0,0.446-0.174,0.486-0.407c0.039-0.233-0.092-0.463-0.327-0.538l-14.88-5.127l15.973-17.579l0.008-0.282
		c3.918,5.176,6.246,11.626,6.246,18.62C84.896,61.408,82.289,68.192,77.951,73.512z M81.654,74.469
		c-0.438-0.064-0.875-0.121-1.311-0.185c4.264-5.546,6.803-12.487,6.803-20.024c0-18.162-14.723-32.884-32.883-32.884
		c-0.533,0-1.062,0.016-1.589,0.041l-0.197-1.158c0.592-0.03,1.188-0.047,1.786-0.047c18.804,0,34.047,15.244,34.047,34.047
		C88.311,61.83,85.832,68.816,81.654,74.469z M86.281,36.482l7.878-3.683l2.297,4.908l-1.575,0.738l-1.398-2.992l-1.486,0.694
		l1.069,2.283l-1.446,0.982l-1.188-2.534l-1.666,0.779l1.447,3.094l-1.586,0.741L86.281,36.482z M88.943,42.259l8.448-2.098
		l0.505,2.032l-3.952,4.282l4.724-1.172l0.483,1.945l-8.446,2.098l-0.449-1.812l4.229-4.584l-5.053,1.253L88.943,42.259z
		 M99.312,60.604l-3.873,1.25l3.154,2.4l-0.39,2.26l-4.884-4.027l-3.152-0.547l0.365-2.123l3.13,0.543l5.729-2.068L99.312,60.604z
		 M99.254,56.506l-1.95-0.242c0.388-0.529,0.671-1.145,0.646-1.901c-0.041-1.362-1.101-2.2-2.766-2.148
		c-1.689,0.052-2.669,1.003-2.627,2.365c0.021,0.708,0.307,1.329,0.729,1.958l-1.793,0.333c-0.426-0.679-0.715-1.479-0.746-2.5
		c-0.08-2.597,1.61-4.227,4.358-4.311c2.697-0.083,4.563,1.512,4.644,4.134C99.779,55.113,99.6,55.863,99.254,56.506z"/>
	<polygon fill="#9FB1BF" points="51.259,10.985 50.448,14.063 52.4,13.953 	"/>
	<path fill="#9FB1BF" d="M42.555,14.432c0.9-0.243,1.293-0.82,1.077-1.62c-0.21-0.78-0.812-1.076-1.713-0.833l-0.669,0.182
		l0.662,2.444L42.555,14.432z"/>
	<polygon fill="#9FB1BF" points="14.184,45.13 11.021,45.44 13.773,47.041 	"/>
</g>
<g>
	<path fill="#596872" d="M20.241,87.398l-0.192-1.359l1.891-2.472c0.316-0.423,0.494-0.714,0.438-1.103
		c-0.047-0.33-0.338-0.497-0.775-0.436c-0.545,0.078-1.103,0.404-1.633,0.867l-0.45-1.573c0.542-0.444,1.207-0.796,2.178-0.933
		c1.39-0.197,2.345,0.381,2.515,1.576c0.133,0.943-0.268,1.604-0.961,2.456l-0.938,1.145l2.264-0.321l0.458,1.473L20.241,87.398z"/>
	<path fill="#596872" d="M28.141,86.451c-1.696,0.209-2.984-0.855-3.258-3.064c-0.275-2.211,0.713-3.559,2.406-3.77
		c1.703-0.212,2.973,0.855,3.25,3.064C30.813,84.893,29.845,86.24,28.141,86.451z M27.468,81.049
		c-0.642,0.08-0.825,0.834-0.667,2.099c0.156,1.265,0.519,1.954,1.163,1.872c0.651-0.082,0.814-0.834,0.657-2.099
		C28.461,81.655,28.12,80.967,27.468,81.049z"/>
	<path fill="#596872" d="M32.522,85.805L32.007,81l-1.243,0.658l-0.378-1.492l1.644-0.984l1.756-0.188l0.709,6.601L32.522,85.805z"
		/>
	<path fill="#596872" d="M35.825,81.998c-0.598-0.311-0.974-0.761-1.03-1.387c-0.105-1.195,0.912-1.934,2.31-2.059
		c1.468-0.131,2.44,0.502,2.53,1.51c0.054,0.606-0.234,1.135-0.796,1.59c0.799,0.324,1.194,0.781,1.261,1.533
		c0.104,1.176-0.81,2.094-2.433,2.236c-1.732,0.155-2.708-0.625-2.797-1.633C34.809,83.104,35.167,82.47,35.825,81.998z
		 M37.56,81.213c0.263-0.259,0.406-0.529,0.375-0.88c-0.036-0.401-0.371-0.628-0.791-0.591c-0.402,0.035-0.663,0.324-0.631,0.677
		C36.543,80.76,36.8,80.984,37.56,81.213z M37.583,84.148c0.421-0.037,0.75-0.343,0.71-0.773c-0.038-0.43-0.321-0.632-1.252-0.913
		c-0.282,0.271-0.45,0.601-0.417,0.975C36.666,83.914,37.085,84.191,37.583,84.148z"/>
	<path fill="#596872" d="M44.652,82.752l-0.313,0.018l0.111,2.027l-1.998,0.11L42.08,78.15l2.341-0.129
		c1.743-0.097,2.852,0.598,2.938,2.155C47.446,81.774,46.355,82.659,44.652,82.752z M44.383,79.486L44.139,79.5l0.1,1.812
		l0.224-0.013c0.666-0.035,1.012-0.35,0.976-0.986C45.408,79.725,45.049,79.449,44.383,79.486z"/>
	<path fill="#596872" d="M48.229,84.609l-0.186-6.769l2.011-0.056l0.14,5.061l1.912-0.052l0.321,1.698L48.229,84.609z"/>
	<path fill="#596872" d="M54.944,77.688l2.245,0.014l2.207,6.567l-2.032,0.302l-0.386-1.211l-2.128-0.012l-0.341,1.137l-1.942-0.012
		L54.944,77.688z M55.291,81.83l1.245,0.008l-0.595-2.143L55.291,81.83z"/>
	<path fill="#596872" d="M62.914,79.559L62.72,84.66l-2.012-0.076l0.194-5.102l-1.814-0.068l0.062-1.668l5.446,0.209l0.211,1.676
		L62.914,79.559z"/>
	<path fill="#596872" d="M65.208,84.781l0.414-6.758l2.007,0.123l-0.414,6.756L65.208,84.781z"/>
	<path fill="#596872" d="M72.35,85.303l-1.914-3.709l-0.297,3.521l-1.858-0.155l0.569-6.748l1.975,0.167l1.743,3.396l0.271-3.228
		l1.858,0.155l-0.567,6.748L72.35,85.303z"/>
	<path fill="#596872" d="M77.918,85.961c-1.648-0.184-2.783-1.15-2.561-3.13l0.449-4.016l1.999,0.224l-0.454,4.047
		c-0.083,0.742,0.215,1.17,0.78,1.232c0.604,0.067,0.943-0.308,1.021-1.01l0.457-4.067l1.997,0.226l-0.449,4.017
		C80.938,85.441,79.545,86.144,77.918,85.961z"/>
	<path fill="#596872" d="M87.534,87.083l0.318-4.125l-1.466,3.969l-1.934-0.267L84.1,82.443l-0.795,4.061l-1.71-0.235l1.396-6.642
		l2.575,0.354l0.391,4.372l1.553-4.105l2.509,0.345l-0.444,6.772L87.534,87.083z"/>
</g>
</svg>
