<?xml version="1.0" encoding="UTF-8"?>
<!-- Generator: Adobe Illustrator 26.0.1, SVG Export Plug-In . SVG Version: 6.00 Build 0)  -->
<svg xmlns="http://www.w3.org/2000/svg" xmlns:xlink="http://www.w3.org/1999/xlink" x="0px" y="0px" viewBox="0 0 90 90" style="enable-background:new 0 0 90 90;" xml:space="preserve">
<style type="text/css">
	.st0{fill:#D8F0F7;}
	.st1{fill:#FFFFFF;}
	.st2{fill:none;stroke:#DCDDDE;stroke-width:1.5;stroke-miterlimit:10;}
	.st3{fill:none;stroke:#E1393A;stroke-width:1.5;stroke-linecap:round;stroke-linejoin:round;stroke-miterlimit:10;}
	.st4{fill:none;stroke:#E1393A;stroke-width:1.5;stroke-linejoin:round;stroke-miterlimit:10;}
	.st5{fill:none;stroke:#2A2F4C;stroke-width:1.5;stroke-linecap:round;stroke-linejoin:round;stroke-miterlimit:10;}
	.st6{fill:none;stroke:#2A2F4C;stroke-width:1.5;stroke-linecap:round;stroke-miterlimit:10;}
	.st7{display:none;}
	.st8{display:inline;fill:#D8F0F7;}
	.st9{display:inline;}
	.st10{fill:#E1393A;}
	.st11{fill:none;stroke:#BB2D2E;stroke-width:1.5;stroke-miterlimit:10;}
	.st12{fill:none;stroke:#E1393A;stroke-width:1.5;stroke-miterlimit:10;}
	.st13{fill:#FFFFFF;stroke:#2A2F4C;stroke-width:1.5;stroke-linecap:round;stroke-linejoin:round;stroke-miterlimit:10;}
	.st14{fill:#FFFFFF;stroke:#2A2F4C;stroke-width:1.5;stroke-miterlimit:10;}
	.st15{fill:none;stroke:#DCDDDE;stroke-width:1.5;stroke-linecap:round;stroke-linejoin:round;stroke-miterlimit:10;}
	.st16{fill:#D8F0F7;stroke:#2A2F4C;stroke-width:1.5;stroke-linecap:round;stroke-linejoin:round;stroke-miterlimit:10;}
	.st17{fill:#D8F0F7;stroke:#2A2F4C;stroke-width:1.5;stroke-miterlimit:10;}
	.st18{fill:#FFFFFF;stroke:#E1393A;stroke-width:1.5;stroke-linecap:round;stroke-linejoin:round;stroke-miterlimit:10;}
	.st19{fill:#2A2F4C;}
	.st20{fill:none;stroke:#B2C7CE;stroke-width:1.5;stroke-linecap:round;stroke-linejoin:round;stroke-miterlimit:10;}
</style>
<g id="Monthly_Giving_Club">
	<circle class="st0" cx="45" cy="45" r="37.8"></circle>
	<g>
		<path class="st1" d="M57.8,44.1c-1.4-1.8-3.5-0.3-3.5-0.3L49,47.4L49,47.4l0,0c-0.3-0.9-1.4-1.2-1.4-1.2l-7-2.3    c-1.3-0.4-2.7-0.4-3.9,0.1l-4.9,1.8v7.3l10,3.3c1.9,0.6,4,0.2,5.5-1l9.8-7.9C57,47.5,59.2,45.8,57.8,44.1z"></path>
		<g>
			<polygon class="st1" points="36.2,25.1 36.2,30.4 38.3,30.4 38.3,37.3 51.7,37.3 51.7,30.4 53.8,30.4 53.8,25.1    "></polygon>
			<line class="st2" x1="38.3" y1="31.9" x2="51.7" y2="31.9"></line>
			<path class="st3" d="M43.3,17.8L43.3,17.8c1,0.3,1.7,1.2,1.7,2.3l0,4.1l-3.5-2.1c-0.9-0.5-1.3-1.6-1.1-2.6l0,0     C40.7,18.2,42,17.5,43.3,17.8z"></path>
			<path class="st3" d="M46.7,17.8L46.7,17.8c-1,0.3-1.7,1.2-1.7,2.3l0,4.1l3.5-2.1c0.9-0.5,1.3-1.6,1.1-2.6v0     C49.3,18.2,48,17.5,46.7,17.8z"></path>
			<line class="st4" x1="45" y1="37.3" x2="45" y2="25.1"></line>
			<rect x="38.3" y="30.4" class="st5" width="13.5" height="6.9"></rect>
			<rect x="36.2" y="25.1" class="st5" width="17.6" height="5.2"></rect>
		</g>
		<g>
			<path class="st6" d="M32,53.1l10,3.3c1.9,0.6,4,0.2,5.5-1l9.8-7.9c0,0,2.1-1.7,0.8-3.4c-1.4-1.8-3.5-0.3-3.5-0.3l-5.3,3.6"></path>
			<path class="st6" d="M32,45.8l4.9-1.8c1.3-0.5,2.7-0.5,3.9-0.1l7,2.3c0,0,2,0.6,1.4,2.2c-0.8,2.2-5.1,1.3-5.1,1.3L38.6,49"></path>
		</g>
	</g>
	<g>
		<line class="st6" x1="64.5" y1="66.3" x2="85.9" y2="66.3"></line>
		<line class="st6" x1="4.1" y1="66.3" x2="59.5" y2="66.3"></line>
	</g>
</g>
<g id="Memorial_Honor" class="st7">
	<circle class="st8" cx="45" cy="45" r="37.8"></circle>
	<g class="st9">
		<polygon class="st1" points="45,35.6 48.4,42.5 55.9,43.6 50.5,48.9 51.8,56.4 45,52.9 38.2,56.4 39.5,48.9 34.1,43.6 41.6,42.5       "></polygon>
		<polygon class="st1" points="57.1,28.7 45,35.6 32.9,28.7 32.9,21.5 57.1,21.5   "></polygon>
		<polygon class="st10" points="40.6,33.1 45,35.6 49.4,33.1 49.4,21.5 40.6,21.5   "></polygon>
		<line class="st2" x1="32.9" y1="23" x2="40.6" y2="23"></line>
		<line class="st2" x1="49.4" y1="23" x2="57.1" y2="23"></line>
		<line class="st11" x1="40.6" y1="23" x2="49.4" y2="23"></line>
		<polygon class="st5" points="45,35.6 48.4,42.5 55.9,43.6 50.5,48.9 51.8,56.4 45,52.9 38.2,56.4 39.5,48.9 34.1,43.6 41.6,42.5       "></polygon>
		<polygon class="st5" points="57.1,28.7 45,35.6 32.9,28.7 32.9,21.5 57.1,21.5   "></polygon>
		<line class="st5" x1="40.6" y1="33.1" x2="40.6" y2="21.5"></line>
		<line class="st5" x1="49.4" y1="33.1" x2="49.4" y2="21.5"></line>
	</g>
	<g class="st9">
		<line class="st6" x1="47.5" y1="66.3" x2="85.9" y2="66.3"></line>
		<line class="st6" x1="31.2" y1="66.3" x2="42.5" y2="66.3"></line>
		<line class="st6" x1="4.1" y1="66.3" x2="26.2" y2="66.3"></line>
	</g>
</g>
<g id="Planned_Giving" class="st7">
	<circle class="st8" cx="45" cy="45" r="37.8"></circle>
	<g class="st9">
		<g>
			<polygon class="st1" points="25.5,46.4 25.5,51 27.3,51 27.3,57.1 39.1,57.1 39.1,51 40.9,51 40.9,46.4    "></polygon>
			<line class="st2" x1="27.3" y1="52.5" x2="39.1" y2="52.5"></line>
			<g>
				<path class="st3" d="M31.7,39.7L31.7,39.7c0.9,0.2,1.5,1.1,1.5,2l0,3.6l-3.1-1.8c-0.8-0.5-1.2-1.4-0.9-2.3h0      C29.4,40.1,30.6,39.4,31.7,39.7z"></path>
				<path class="st3" d="M34.7,39.7L34.7,39.7c-0.9,0.2-1.5,1.1-1.5,2l0,3.6l3.1-1.8c0.8-0.5,1.2-1.4,0.9-2.3l0,0      C36.9,40.1,35.8,39.4,34.7,39.7z"></path>
			</g>
			<line class="st12" x1="33.2" y1="57.1" x2="33.2" y2="46.4"></line>
			<rect x="27.3" y="51" class="st5" width="11.8" height="6.1"></rect>
			<rect x="25.5" y="46.4" class="st5" width="15.4" height="4.6"></rect>
		</g>
		<path class="st5" d="M25.3,37.3c0-10.9,8.8-19.7,19.7-19.7c8.2,0,15.2,5,18.2,12"></path>
		<path class="st5" d="M64.7,37.3c0,10.9-8.8,19.7-19.7,19.7"></path>
		<g>
			<polyline class="st5" points="45,26.1 45,37.3 50.5,42.8    "></polyline>
		</g>
		<polygon class="st13" points="63.2,29.7 59.6,27.9 56.1,26.1 59.4,23.9 62.8,21.7 63,25.7   "></polygon>
	</g>
	<g class="st9">
		<line class="st6" x1="27.2" y1="66.3" x2="85.9" y2="66.3"></line>
		<line class="st6" x1="4.1" y1="66.3" x2="22.2" y2="66.3"></line>
	</g>
</g>
<g id="Stocks" class="st7">
	<circle class="st8" cx="45" cy="45" r="37.8"></circle>
	<g class="st9">
		<path class="st1" d="M19.1,66.3h51.8V40c0,0-15,20.3-51.8,20.3V66.3z"></path>
		<polyline class="st5" points="35.4,30.3 70.9,30.3 70.9,66.3 19.1,66.3 19.1,46.6   "></polyline>
		<path class="st5" d="M23.6,54.6c23.9,0,41.7-18.7,41.7-18.7"></path>
		<g>
			<line class="st5" x1="25" y1="59.6" x2="25" y2="62.8"></line>
			<line class="st5" x1="31.7" y1="59.6" x2="31.7" y2="62.8"></line>
			<line class="st5" x1="38.4" y1="58.2" x2="38.4" y2="62.8"></line>
			<line class="st5" x1="45.1" y1="56.4" x2="45.1" y2="62.8"></line>
			<line class="st5" x1="51.8" y1="53.8" x2="51.8" y2="62.8"></line>
			<line class="st5" x1="58.6" y1="50.3" x2="58.6" y2="62.8"></line>
			<line class="st5" x1="65.3" y1="45.6" x2="65.3" y2="62.8"></line>
		</g>
		<g>
			<circle class="st14" cx="19.1" cy="30.4" r="10.7"></circle>
			<g>
				<path class="st3" d="M16.4,32.6c0,1.2,0.5,2.7,2.8,2.7c2.1,0,2.6-1.2,2.6-2.2c0-3.2-5-1.9-5-5.2c0-1.7,1.5-2.1,2.4-2.1      c1.3,0,2.4,0.8,2.4,2.7"></path>
				<line class="st3" x1="19.2" y1="25.8" x2="19.2" y2="23.5"></line>
				<line class="st3" x1="19.2" y1="37.4" x2="19.2" y2="35.3"></line>
			</g>
		</g>
		<polygon class="st13" points="65.3,35.9 64.2,39.2 63.1,42.4 60.8,39.9 58.6,37.3 61.9,36.6   "></polygon>
	</g>
	<g class="st9">
		<line class="st6" x1="75.9" y1="66.3" x2="85.9" y2="66.3"></line>
		<line class="st6" x1="4.1" y1="66.3" x2="70.9" y2="66.3"></line>
	</g>
</g>
<g id="Peer_to_Peer" class="st7">
	<circle class="st8" cx="45" cy="45" r="37.8"></circle>
	<g class="st9">
		<g>
			<circle class="st14" cx="45" cy="35.9" r="10.7"></circle>
			<g>
				<path class="st3" d="M42.3,38c0,1.2,0.5,2.7,2.8,2.7c2.1,0,2.6-1.2,2.6-2.2c0-3.2-5-1.9-5-5.2c0-1.7,1.5-2.1,2.4-2.1      c1.3,0,2.4,0.8,2.4,2.7"></path>
				<line class="st3" x1="45.1" y1="31.2" x2="45.1" y2="28.9"></line>
				<line class="st3" x1="45.1" y1="42.8" x2="45.1" y2="40.7"></line>
			</g>
		</g>
		<g>
			<path class="st1" d="M69.7,57.6c0-4.8-2.6-8.6-5.8-8.6c-3.2,0-5.8,3.9-5.8,8.6c0,0.8,0.1,1.5,0.2,2.3h11.2     C69.6,59.2,69.7,58.4,69.7,57.6z"></path>
			<path class="st15" d="M69,53.6c0,0-1.9-3.1-5.1-3.1c-3.2,0-5.2,3.4-5.2,3.4"></path>
			<path class="st5" d="M69.7,57.6c0-4.8-2.6-8.6-5.8-8.6c-3.2,0-5.8,3.9-5.8,8.6c0,0.8,0.1,1.5,0.2,2.3h11.2     C69.6,59.2,69.7,58.4,69.7,57.6z"></path>
			<circle class="st13" cx="63.9" cy="45.2" r="3.8"></circle>
		</g>
		<g>
			<path class="st1" d="M30.9,26.8c0-4.8-2.6-8.6-5.8-8.6s-5.8,3.9-5.8,8.6c0,0.8,0.1,1.5,0.2,2.3h11.2     C30.8,28.4,30.9,27.6,30.9,26.8z"></path>
			<path class="st15" d="M30.2,22.7c0,0-1.9-3.1-5.1-3.1S19.9,23,19.9,23"></path>
			<path class="st5" d="M30.9,26.8c0-4.8-2.6-8.6-5.8-8.6s-5.8,3.9-5.8,8.6c0,0.8,0.1,1.5,0.2,2.3h11.2     C30.8,28.4,30.9,27.6,30.9,26.8z"></path>
			<circle class="st13" cx="25.1" cy="14.4" r="3.8"></circle>
		</g>
		<g>
			<path class="st5" d="M44.9,56.9h-7.9c-6.5,0-11.7-3.7-11.9-10.1"></path>
			<polygon class="st13" points="25.1,40.8 26.9,43.8 28.6,46.8 25.1,46.8 21.6,46.8 23.4,43.8    "></polygon>
		</g>
		<g>
			<path class="st5" d="M44.9,14.8h7c6.5,0,11.7,3.7,11.9,10.1"></path>
			<polygon class="st13" points="63.9,31 62.1,27.9 60.4,24.9 63.9,24.9 67.4,24.9 65.6,27.9    "></polygon>
		</g>
	</g>
	<g class="st9">
		<line class="st6" x1="54.4" y1="66.3" x2="85.9" y2="66.3"></line>
		<line class="st6" x1="24.9" y1="66.3" x2="49.4" y2="66.3"></line>
		<line class="st6" x1="4.1" y1="66.3" x2="19.9" y2="66.3"></line>
	</g>
</g>
<g id="Community" class="st7">
	<circle class="st8" cx="45" cy="45" r="37.8"></circle>
	<g class="st9">
		<line class="st5" x1="47.9" y1="36.2" x2="70" y2="25.7"></line>
		<line class="st5" x1="47.9" y1="57.2" x2="70" y2="46.7"></line>
		<line class="st5" x1="25.9" y1="25.7" x2="47.9" y2="15.2"></line>
		<line class="st5" x1="25.9" y1="46.7" x2="47.9" y2="36.2"></line>
		<line class="st5" x1="47.9" y1="36.2" x2="25.9" y2="25.7"></line>
		<line class="st5" x1="70" y1="46.7" x2="47.9" y2="36.2"></line>
		<g>
			<circle class="st13" cx="47.9" cy="36.2" r="9.3"></circle>
			<path class="st1" d="M50.8,39.2c0-2.4-1.3-4.3-2.9-4.3s-2.9,1.9-2.9,4.3c0,0.4,0,0.8,0.1,1.1h5.6C50.8,39.9,50.8,39.6,50.8,39.2z     "></path>
			<path class="st16" d="M50.8,39.2c0-2.4-1.3-4.3-2.9-4.3s-2.9,1.9-2.9,4.3c0,0.4,0,0.8,0.1,1.1h5.6C50.8,39.9,50.8,39.6,50.8,39.2     z"></path>
			<circle class="st16" cx="47.9" cy="33" r="1.9"></circle>
		</g>
		<circle class="st13" cx="70" cy="46.7" r="3.1"></circle>
		<circle class="st13" cx="25.9" cy="46.7" r="3.1"></circle>
		<g>
			<circle class="st13" cx="70" cy="25.7" r="9.3"></circle>
			<g>
				<path class="st17" d="M72.9,28.7c0-2.4-1.3-4.3-2.9-4.3s-2.9,1.9-2.9,4.3c0,0.4,0,0.8,0.1,1.1h5.6      C72.9,29.5,72.9,29.1,72.9,28.7z"></path>
				<path class="st16" d="M72.9,28.7c0-2.4-1.3-4.3-2.9-4.3s-2.9,1.9-2.9,4.3c0,0.4,0,0.8,0.1,1.1h5.6      C72.9,29.5,72.9,29.1,72.9,28.7z"></path>
				<circle class="st16" cx="70" cy="22.5" r="1.9"></circle>
			</g>
		</g>
		<g>
			<circle class="st13" cx="25.9" cy="25.7" r="9.3"></circle>
			<g>
				<path class="st1" d="M28.8,28.7c0-2.4-1.3-4.3-2.9-4.3c-1.6,0-2.9,1.9-2.9,4.3c0,0.4,0,0.8,0.1,1.1h5.6      C28.7,29.5,28.8,29.1,28.8,28.7z"></path>
				<path class="st16" d="M28.8,28.7c0-2.4-1.3-4.3-2.9-4.3c-1.6,0-2.9,1.9-2.9,4.3c0,0.4,0,0.8,0.1,1.1h5.6      C28.7,29.5,28.8,29.1,28.8,28.7z"></path>
				<circle class="st16" cx="25.9" cy="22.5" r="1.9"></circle>
			</g>
		</g>
		<polygon class="st18" points="47.9,10.6 49.4,13.6 52.8,14.1 50.4,16.4 50.9,19.7 47.9,18.2 45,19.7 45.5,16.4 43.1,14.1     46.5,13.6   "></polygon>
		<polygon class="st18" points="47.9,51.6 49.4,54.6 52.8,55.1 50.4,57.4 50.9,60.7 47.9,59.2 45,60.7 45.5,57.4 43.1,55.1     46.5,54.6   "></polygon>
	</g>
	<g class="st9">
		<line class="st6" x1="63" y1="66.3" x2="85.9" y2="66.3"></line>
		<line class="st6" x1="4.1" y1="66.3" x2="58" y2="66.3"></line>
	</g>
</g>
<g id="Training" class="st7">
	<circle class="st8" cx="45" cy="45" r="37.8"></circle>
	<g class="st9">
		<path class="st13" d="M23.2,30h43.6c1.9,0,3.4,1.5,3.4,3.4v29.5c0,1.9-1.5,3.4-3.4,3.4H23.2c-1.9,0-3.4-1.5-3.4-3.4V33.4    C19.8,31.5,21.3,30,23.2,30z"></path>
		<path class="st19" d="M66.8,30H23.2c-1.9,0-3.4,1.5-3.4,3.4v4h50.5v-4C70.2,31.5,68.7,30,66.8,30z"></path>
		<line class="st13" x1="19.8" y1="37.4" x2="70.2" y2="37.4"></line>
		<g>
			<path class="st0" d="M50.6,52.7c0,1.6-2.5,3.2-5.6,3.2s-5.6-1.6-5.6-3.2v-5.9h11.3V52.7z"></path>
			<polyline class="st20" points="39.5,50.3 45,53 50.5,50.3    "></polyline>
			<path class="st5" d="M50.6,52.7c0,1.6-2.5,3.2-5.6,3.2s-5.6-1.6-5.6-3.2v-5.9h11.3V52.7z"></path>
			<polygon class="st16" points="53.8,47 45,42.7 36.2,47 45,51.3    "></polygon>
			<line class="st5" x1="53.8" y1="47" x2="53.8" y2="51.3"></line>
		</g>
		<line class="st5" x1="38.8" y1="61.5" x2="66.1" y2="61.5"></line>
		<line class="st3" x1="23.9" y1="61.5" x2="34.4" y2="61.5"></line>
		<path class="st10" d="M34.8,63.8h-0.6c-0.6,0-1.1-0.5-1.1-1.1v-2.3c0-0.6,0.5-1.1,1.1-1.1h0.6c0.6,0,1.1,0.5,1.1,1.1v2.3    C35.9,63.3,35.4,63.8,34.8,63.8z"></path>
		<g>
			<circle class="st1" cx="66.2" cy="33.7" r="1.3"></circle>
			<circle class="st1" cx="62.4" cy="33.7" r="1.3"></circle>
			<circle class="st1" cx="58.6" cy="33.7" r="1.3"></circle>
		</g>
	</g>
	<g class="st9">
		<line class="st6" x1="23.2" y1="66.3" x2="85.9" y2="66.3"></line>
		<line class="st6" x1="4.1" y1="66.3" x2="15.4" y2="66.3"></line>
	</g>
</g>
</svg>
