<?xml version="1.0" encoding="UTF-8"?>
<!-- Generator: Adobe Illustrator 26.2.1, SVG Export Plug-In . SVG Version: 6.00 Build 0)  -->
<svg xmlns="http://www.w3.org/2000/svg" xmlns:xlink="http://www.w3.org/1999/xlink" id="Layer_1" x="0px" y="0px" viewBox="0 0 159.8 144.9" style="enable-background:new 0 0 159.8 144.9;" xml:space="preserve">
<style type="text/css">
	.st0{display:none;}
	.st1{display:inline;fill:#D8F0F7;}
	.st2{display:inline;}
	.st3{fill:#FFFFFF;}
	.st4{fill:none;stroke:#DCDDDE;stroke-width:1.5;stroke-miterlimit:10;}
	.st5{fill:none;stroke:#E1393A;stroke-width:1.5;stroke-linecap:round;stroke-linejoin:round;stroke-miterlimit:10;}
	.st6{fill:none;stroke:#E1393A;stroke-width:1.5;stroke-linejoin:round;stroke-miterlimit:10;}
	.st7{fill:none;stroke:#2A2F4C;stroke-width:1.5;stroke-linecap:round;stroke-linejoin:round;stroke-miterlimit:10;}
	.st8{fill:none;stroke:#2A2F4C;stroke-width:1.5;stroke-linecap:round;stroke-miterlimit:10;}
	.st9{fill:none;stroke:#E1393A;stroke-width:1.5;stroke-miterlimit:10;}
	.st10{fill:#FFFFFF;stroke:#2A2F4C;stroke-width:1.5;stroke-linecap:round;stroke-linejoin:round;stroke-miterlimit:10;}
	.st11{fill:#FFFFFF;stroke:#2A2F4C;stroke-width:1.5;stroke-miterlimit:10;}
	.st12{fill:none;stroke:#DCDDDE;stroke-width:1.5;stroke-linecap:round;stroke-linejoin:round;stroke-miterlimit:10;}
	.st13{fill:#D8F0F7;stroke:#2A2F4C;stroke-width:1.5;stroke-linecap:round;stroke-linejoin:round;stroke-miterlimit:10;}
	.st14{fill:#D8F0F7;stroke:#2A2F4C;stroke-width:1.5;stroke-miterlimit:10;}
	.st15{fill:#FFFFFF;stroke:#E1393A;stroke-width:1.5;stroke-linecap:round;stroke-linejoin:round;stroke-miterlimit:10;}
	.st16{fill:#2A2F4C;}
	.st17{fill:#D8F0F7;}
	.st18{fill:none;stroke:#B2C7CE;stroke-width:1.5;stroke-linecap:round;stroke-linejoin:round;stroke-miterlimit:10;}
	.st19{fill:#E1393A;}
	.st20{fill:#B2C7CE;}
</style>
<g id="Monthly_Giving_Club" class="st0">
	<circle class="st1" cx="79.9" cy="72.4" r="37.8"></circle>
	<g class="st2">
		<path class="st3" d="M92.7,71.5c-1.4-1.8-3.5-0.3-3.5-0.3l-5.3,3.6l0,0l0,0c-0.3-0.9-1.4-1.2-1.4-1.2l-7-2.3    c-1.3-0.4-2.7-0.4-3.9,0.1l-4.9,1.8v7.3l10,3.3c1.9,0.6,4,0.2,5.5-1l9.8-7.9C91.9,74.9,94.1,73.2,92.7,71.5z"></path>
		<g>
			<polygon class="st3" points="71.1,52.5 71.1,57.8 73.2,57.8 73.2,64.7 86.6,64.7 86.6,57.8 88.7,57.8 88.7,52.5    "></polygon>
			<line class="st4" x1="73.2" y1="59.3" x2="86.6" y2="59.3"></line>
			<path class="st5" d="M78.2,45.2L78.2,45.2c1,0.3,1.7,1.2,1.7,2.3v4.1l-3.5-2.1c-0.9-0.5-1.3-1.6-1.1-2.6l0,0     C75.6,45.6,76.9,44.9,78.2,45.2z"></path>
			<path class="st5" d="M81.6,45.2L81.6,45.2c-1,0.3-1.7,1.2-1.7,2.3v4.1l3.5-2.1c0.9-0.5,1.3-1.6,1.1-2.6l0,0     C84.2,45.6,82.9,44.9,81.6,45.2z"></path>
			<line class="st6" x1="79.9" y1="64.7" x2="79.9" y2="52.5"></line>
			<rect x="73.2" y="57.8" class="st7" width="13.5" height="6.9"></rect>
			<rect x="71.1" y="52.5" class="st7" width="17.6" height="5.2"></rect>
		</g>
		<g>
			<path class="st8" d="M66.9,80.5l10,3.3c1.9,0.6,4,0.2,5.5-1l9.8-7.9c0,0,2.1-1.7,0.8-3.4c-1.4-1.8-3.5-0.3-3.5-0.3l-5.3,3.6"></path>
			<path class="st8" d="M66.9,73.2l4.9-1.8c1.3-0.5,2.7-0.5,3.9-0.1l7,2.3c0,0,2,0.6,1.4,2.2C83.3,78,79,77.1,79,77.1l-5.5-0.7"></path>
		</g>
	</g>
	<g class="st2">
		<line class="st8" x1="99.4" y1="93.7" x2="120.8" y2="93.7"></line>
		<line class="st8" x1="39" y1="93.7" x2="94.4" y2="93.7"></line>
	</g>
</g>
<g id="Planned_Giving" class="st0">
	<circle class="st1" cx="79.9" cy="72.4" r="37.8"></circle>
	<g class="st2">
		<g>
			<polygon class="st3" points="60.4,73.8 60.4,78.4 62.2,78.4 62.2,84.5 74,84.5 74,78.4 75.8,78.4 75.8,73.8    "></polygon>
			<line class="st4" x1="62.2" y1="79.9" x2="74" y2="79.9"></line>
			<g>
				<path class="st5" d="M66.6,67.1L66.6,67.1c0.9,0.2,1.5,1.1,1.5,2v3.6L65,70.9c-0.8-0.5-1.2-1.4-0.9-2.3l0,0      C64.3,67.5,65.5,66.8,66.6,67.1z"></path>
				<path class="st5" d="M69.6,67.1L69.6,67.1c-0.9,0.2-1.5,1.1-1.5,2v3.6l3.1-1.8c0.8-0.5,1.2-1.4,0.9-2.3l0,0      C71.8,67.5,70.7,66.8,69.6,67.1z"></path>
			</g>
			<line class="st9" x1="68.1" y1="84.5" x2="68.1" y2="73.8"></line>
			<rect x="62.2" y="78.4" class="st7" width="11.8" height="6.1"></rect>
			<rect x="60.4" y="73.8" class="st7" width="15.4" height="4.6"></rect>
		</g>
		<path class="st7" d="M60.2,64.7C60.2,53.8,69,45,79.9,45c8.2,0,15.2,5,18.2,12"></path>
		<path class="st7" d="M99.6,64.7c0,10.9-8.8,19.7-19.7,19.7"></path>
		<g>
			<polyline class="st7" points="79.9,53.5 79.9,64.7 85.4,70.2    "></polyline>
		</g>
		<polygon class="st10" points="98.1,57.1 94.5,55.3 91,53.5 94.3,51.3 97.7,49.1 97.9,53.1   "></polygon>
	</g>
	<g class="st2">
		<line class="st8" x1="62.1" y1="93.7" x2="120.8" y2="93.7"></line>
		<line class="st8" x1="39" y1="93.7" x2="57.1" y2="93.7"></line>
	</g>
</g>
<g id="Stocks" class="st0">
	<circle class="st1" cx="79.9" cy="72.4" r="37.8"></circle>
	<g class="st2">
		<path class="st3" d="M54,93.7h51.8V67.4c0,0-15,20.3-51.8,20.3C54,87.7,54,93.7,54,93.7z"></path>
		<polyline class="st7" points="70.3,57.7 105.8,57.7 105.8,93.7 54,93.7 54,74   "></polyline>
		<path class="st7" d="M58.5,82c23.9,0,41.7-18.7,41.7-18.7"></path>
		<g>
			<line class="st7" x1="59.9" y1="87" x2="59.9" y2="90.2"></line>
			<line class="st7" x1="66.6" y1="87" x2="66.6" y2="90.2"></line>
			<line class="st7" x1="73.3" y1="85.6" x2="73.3" y2="90.2"></line>
			<line class="st7" x1="80" y1="83.8" x2="80" y2="90.2"></line>
			<line class="st7" x1="86.7" y1="81.2" x2="86.7" y2="90.2"></line>
			<line class="st7" x1="93.5" y1="77.7" x2="93.5" y2="90.2"></line>
			<line class="st7" x1="100.2" y1="73" x2="100.2" y2="90.2"></line>
		</g>
		<g>
			<circle class="st11" cx="54" cy="57.8" r="10.7"></circle>
			<g>
				<path class="st5" d="M51.3,60c0,1.2,0.5,2.7,2.8,2.7c2.1,0,2.6-1.2,2.6-2.2c0-3.2-5-1.9-5-5.2c0-1.7,1.5-2.1,2.4-2.1      c1.3,0,2.4,0.8,2.4,2.7"></path>
				<line class="st5" x1="54.1" y1="53.2" x2="54.1" y2="50.9"></line>
				<line class="st5" x1="54.1" y1="64.8" x2="54.1" y2="62.7"></line>
			</g>
		</g>
		<polygon class="st10" points="100.2,63.3 99.1,66.6 98,69.8 95.7,67.3 93.5,64.7 96.8,64   "></polygon>
	</g>
	<g class="st2">
		<line class="st8" x1="110.8" y1="93.7" x2="120.8" y2="93.7"></line>
		<line class="st8" x1="39" y1="93.7" x2="105.8" y2="93.7"></line>
	</g>
</g>
<g id="Peer_to_Peer" class="st0">
	<circle class="st1" cx="79.9" cy="72.4" r="37.8"></circle>
	<g class="st2">
		<g>
			<circle class="st11" cx="79.9" cy="63.3" r="10.7"></circle>
			<g>
				<path class="st5" d="M77.2,65.4c0,1.2,0.5,2.7,2.8,2.7c2.1,0,2.6-1.2,2.6-2.2c0-3.2-5-1.9-5-5.2c0-1.7,1.5-2.1,2.4-2.1      c1.3,0,2.4,0.8,2.4,2.7"></path>
				<line class="st5" x1="80" y1="58.6" x2="80" y2="56.3"></line>
				<line class="st5" x1="80" y1="70.2" x2="80" y2="68.1"></line>
			</g>
		</g>
		<g>
			<path class="st3" d="M104.6,85c0-4.8-2.6-8.6-5.8-8.6c-3.2,0-5.8,3.9-5.8,8.6c0,0.8,0.1,1.5,0.2,2.3h11.2     C104.5,86.6,104.6,85.8,104.6,85z"></path>
			<path class="st12" d="M103.9,81c0,0-1.9-3.1-5.1-3.1s-5.2,3.4-5.2,3.4"></path>
			<path class="st7" d="M104.6,85c0-4.8-2.6-8.6-5.8-8.6c-3.2,0-5.8,3.9-5.8,8.6c0,0.8,0.1,1.5,0.2,2.3h11.2     C104.5,86.6,104.6,85.8,104.6,85z"></path>
			<circle class="st10" cx="98.8" cy="72.6" r="3.8"></circle>
		</g>
		<g>
			<path class="st3" d="M65.8,54.2c0-4.8-2.6-8.6-5.8-8.6s-5.8,3.9-5.8,8.6c0,0.8,0.1,1.5,0.2,2.3h11.2C65.7,55.8,65.8,55,65.8,54.2     z"></path>
			<path class="st12" d="M65.1,50.1c0,0-1.9-3.1-5.1-3.1s-5.2,3.4-5.2,3.4"></path>
			<path class="st7" d="M65.8,54.2c0-4.8-2.6-8.6-5.8-8.6s-5.8,3.9-5.8,8.6c0,0.8,0.1,1.5,0.2,2.3h11.2C65.7,55.8,65.8,55,65.8,54.2     z"></path>
			<circle class="st10" cx="60" cy="41.8" r="3.8"></circle>
		</g>
		<g>
			<path class="st7" d="M79.8,84.3h-7.9c-6.5,0-11.7-3.7-11.9-10.1"></path>
			<polygon class="st10" points="60,68.2 61.8,71.2 63.5,74.2 60,74.2 56.5,74.2 58.3,71.2    "></polygon>
		</g>
		<g>
			<path class="st7" d="M79.8,42.2h7c6.5,0,11.7,3.7,11.9,10.1"></path>
			<polygon class="st10" points="98.8,58.4 97,55.3 95.3,52.3 98.8,52.3 102.3,52.3 100.5,55.3    "></polygon>
		</g>
	</g>
	<g class="st2">
		<line class="st8" x1="89.3" y1="93.7" x2="120.8" y2="93.7"></line>
		<line class="st8" x1="59.8" y1="93.7" x2="84.3" y2="93.7"></line>
		<line class="st8" x1="39" y1="93.7" x2="54.8" y2="93.7"></line>
	</g>
</g>
<g id="Community" class="st0">
	<circle class="st1" cx="79.9" cy="72.4" r="37.8"></circle>
	<g class="st2">
		<line class="st7" x1="82.8" y1="63.6" x2="104.9" y2="53.1"></line>
		<line class="st7" x1="82.8" y1="84.6" x2="104.9" y2="74.1"></line>
		<line class="st7" x1="60.8" y1="53.1" x2="82.8" y2="42.6"></line>
		<line class="st7" x1="60.8" y1="74.1" x2="82.8" y2="63.6"></line>
		<line class="st7" x1="82.8" y1="63.6" x2="60.8" y2="53.1"></line>
		<line class="st7" x1="104.9" y1="74.1" x2="82.8" y2="63.6"></line>
		<g>
			<circle class="st10" cx="82.8" cy="63.6" r="9.3"></circle>
			<path class="st3" d="M85.7,66.6c0-2.4-1.3-4.3-2.9-4.3s-2.9,1.9-2.9,4.3c0,0.4,0,0.8,0.1,1.1h5.6C85.7,67.3,85.7,67,85.7,66.6z"></path>
			<path class="st13" d="M85.7,66.6c0-2.4-1.3-4.3-2.9-4.3s-2.9,1.9-2.9,4.3c0,0.4,0,0.8,0.1,1.1h5.6C85.7,67.3,85.7,67,85.7,66.6z"></path>
			<circle class="st13" cx="82.8" cy="60.4" r="1.9"></circle>
		</g>
		<circle class="st10" cx="104.9" cy="74.1" r="3.1"></circle>
		<circle class="st10" cx="60.8" cy="74.1" r="3.1"></circle>
		<g>
			<circle class="st10" cx="104.9" cy="53.1" r="9.3"></circle>
			<g>
				<path class="st14" d="M107.8,56.1c0-2.4-1.3-4.3-2.9-4.3s-2.9,1.9-2.9,4.3c0,0.4,0,0.8,0.1,1.1h5.6      C107.8,56.9,107.8,56.5,107.8,56.1z"></path>
				<path class="st13" d="M107.8,56.1c0-2.4-1.3-4.3-2.9-4.3s-2.9,1.9-2.9,4.3c0,0.4,0,0.8,0.1,1.1h5.6      C107.8,56.9,107.8,56.5,107.8,56.1z"></path>
				<circle class="st13" cx="104.9" cy="49.9" r="1.9"></circle>
			</g>
		</g>
		<g>
			<circle class="st10" cx="60.8" cy="53.1" r="9.3"></circle>
			<g>
				<path class="st3" d="M63.7,56.1c0-2.4-1.3-4.3-2.9-4.3c-1.6,0-2.9,1.9-2.9,4.3c0,0.4,0,0.8,0.1,1.1h5.6      C63.6,56.9,63.7,56.5,63.7,56.1z"></path>
				<path class="st13" d="M63.7,56.1c0-2.4-1.3-4.3-2.9-4.3c-1.6,0-2.9,1.9-2.9,4.3c0,0.4,0,0.8,0.1,1.1h5.6      C63.6,56.9,63.7,56.5,63.7,56.1z"></path>
				<circle class="st13" cx="60.8" cy="49.9" r="1.9"></circle>
			</g>
		</g>
		<polygon class="st15" points="82.8,38 84.3,41 87.7,41.5 85.3,43.8 85.8,47.1 82.8,45.6 79.9,47.1 80.4,43.8 78,41.5 81.4,41       "></polygon>
		<polygon class="st15" points="82.8,79 84.3,82 87.7,82.5 85.3,84.8 85.8,88.1 82.8,86.6 79.9,88.1 80.4,84.8 78,82.5 81.4,82       "></polygon>
	</g>
	<g class="st2">
		<line class="st8" x1="97.9" y1="93.7" x2="120.8" y2="93.7"></line>
		<line class="st8" x1="39" y1="93.7" x2="92.9" y2="93.7"></line>
	</g>
</g>
<g id="Training" class="st0">
	<circle class="st1" cx="79.9" cy="72.4" r="37.8"></circle>
	<g class="st2">
		<path class="st10" d="M58.1,57.4h43.6c1.9,0,3.4,1.5,3.4,3.4v29.5c0,1.9-1.5,3.4-3.4,3.4H58.1c-1.9,0-3.4-1.5-3.4-3.4V60.8    C54.7,58.9,56.2,57.4,58.1,57.4z"></path>
		<path class="st16" d="M101.7,57.4H58.1c-1.9,0-3.4,1.5-3.4,3.4v4h50.5v-4C105.1,58.9,103.6,57.4,101.7,57.4z"></path>
		<line class="st7" x1="54.7" y1="64.8" x2="105.1" y2="64.8"></line>
		<g>
			<path class="st17" d="M85.5,80.1c0,1.6-2.5,3.2-5.6,3.2s-5.6-1.6-5.6-3.2v-5.9h11.3L85.5,80.1L85.5,80.1z"></path>
			<polyline class="st18" points="74.4,77.7 79.9,80.4 85.4,77.7    "></polyline>
			<path class="st7" d="M85.5,80.1c0,1.6-2.5,3.2-5.6,3.2s-5.6-1.6-5.6-3.2v-5.9h11.3L85.5,80.1L85.5,80.1z"></path>
			<polygon class="st13" points="88.7,74.4 79.9,70.1 71.1,74.4 79.9,78.7    "></polygon>
			<line class="st7" x1="88.7" y1="74.4" x2="88.7" y2="78.7"></line>
		</g>
		<line class="st7" x1="73.7" y1="88.9" x2="101" y2="88.9"></line>
		<line class="st5" x1="58.8" y1="88.9" x2="69.3" y2="88.9"></line>
		<path class="st19" d="M69.7,91.2h-0.6c-0.6,0-1.1-0.5-1.1-1.1v-2.3c0-0.6,0.5-1.1,1.1-1.1h0.6c0.6,0,1.1,0.5,1.1,1.1v2.3    C70.8,90.7,70.3,91.2,69.7,91.2z"></path>
		<g>
			<circle class="st3" cx="101.1" cy="61.1" r="1.3"></circle>
			<circle class="st3" cx="97.3" cy="61.1" r="1.3"></circle>
			<circle class="st3" cx="93.5" cy="61.1" r="1.3"></circle>
		</g>
	</g>
	<g class="st2">
		<line class="st8" x1="58.1" y1="93.7" x2="120.8" y2="93.7"></line>
		<line class="st8" x1="39" y1="93.7" x2="50.3" y2="93.7"></line>
	</g>
</g>
<g>
	<g>
		<circle class="st17" cx="79.9" cy="72.4" r="72.5"></circle>
	</g>
	<g>
		<g>
			<path class="st20" d="M121.2,68.8c-0.4-8.2-7.2-14.8-15.6-14.8c-8.3,0-15.1,6.5-15.6,14.8c-2.6,2.8-4.2,6.5-4.2,10.7     c0,8.6,7,15.6,15.6,15.6c1.5,0,2.9-0.2,4.2-0.6c1.3,0.4,2.7,0.6,4.2,0.6c8.6,0,15.6-7,15.6-15.6     C125.5,75.4,123.8,71.6,121.2,68.8z"></path>
			<path class="st16" d="M109.8,96.6c-1.4,0-2.8-0.2-4.2-0.5c-1.4,0.4-2.8,0.5-4.2,0.5c-9.4,0-17.1-7.6-17.1-17.1     c0-4.2,1.5-8.1,4.3-11.3c0.7-8.8,8.1-15.6,17-15.6s16.2,6.8,17,15.6c2.8,3.1,4.3,7.1,4.3,11.3C126.9,88.9,119.2,96.6,109.8,96.6z      M105.6,93.1c0.1,0,0.3,0,0.4,0.1c1.3,0.4,2.6,0.5,3.8,0.5c7.8,0,14.2-6.4,14.2-14.2c0-3.6-1.4-7-3.8-9.7     c-0.2-0.2-0.4-0.6-0.4-0.9c-0.4-7.5-6.6-13.4-14.1-13.4c-7.5,0-13.7,5.9-14.1,13.4c0,0.3-0.2,0.7-0.4,0.9     c-2.5,2.6-3.8,6.1-3.8,9.7c0,7.8,6.4,14.2,14.2,14.2c1.3,0,2.5-0.2,3.8-0.5C105.4,93.1,105.5,93.1,105.6,93.1z"></path>
		</g>
		<g>
			<g>
				<path class="st16" d="M105.6,114.8c-0.8,0-1.4-0.6-1.4-1.4V87.6c0-0.8,0.6-1.4,1.4-1.4s1.4,0.6,1.4,1.4v25.8      C107.1,114.2,106.4,114.8,105.6,114.8z"></path>
			</g>
		</g>
		<g>
			<path class="st20" d="M69.7,68.8c-0.4-8.2-7.2-14.8-15.6-14.8c-8.3,0-15.1,6.5-15.6,14.8c-2.6,2.8-4.2,6.5-4.2,10.7     c0,8.6,7,15.6,15.6,15.6c1.5,0,2.9-0.2,4.2-0.6c1.3,0.4,2.7,0.6,4.2,0.6c8.6,0,15.6-7,15.6-15.6C74,75.4,72.4,71.6,69.7,68.8z"></path>
			<path class="st16" d="M58.4,96.6c-1.4,0-2.8-0.2-4.2-0.5c-1.4,0.4-2.8,0.5-4.2,0.5c-9.4,0-17.1-7.6-17.1-17.1     c0-4.2,1.5-8.1,4.3-11.3c0.7-8.8,8.1-15.6,17-15.6c8.9,0,16.2,6.8,17,15.6c2.8,3.1,4.3,7.1,4.3,11.3     C75.4,88.9,67.8,96.6,58.4,96.6z M54.2,93.1c0.1,0,0.3,0,0.4,0.1c1.3,0.4,2.6,0.5,3.8,0.5c7.8,0,14.2-6.4,14.2-14.2     c0-3.6-1.4-7-3.8-9.7c-0.2-0.2-0.4-0.6-0.4-0.9c-0.4-7.5-6.6-13.4-14.1-13.4S40.4,61.4,40,68.9c0,0.3-0.2,0.7-0.4,0.9     c-2.5,2.6-3.8,6.1-3.8,9.7c0,7.8,6.4,14.2,14.2,14.2c1.3,0,2.5-0.2,3.8-0.5C53.9,93.1,54,93.1,54.2,93.1z"></path>
		</g>
		<g>
			<g>
				<path class="st16" d="M54.2,114.8c-0.8,0-1.4-0.6-1.4-1.4V87.6c0-0.8,0.6-1.4,1.4-1.4c0.8,0,1.4,0.6,1.4,1.4v25.8      C55.6,114.2,55,114.8,54.2,114.8z"></path>
			</g>
		</g>
	</g>
	<g>
		<path class="st3" d="M97.7,57.3c-0.5-9.4-8.3-16.9-17.8-16.9c-9.6,0-17.3,7.5-17.8,16.9c-3,3.2-4.9,7.5-4.9,12.2    c0,9.9,8,17.9,17.9,17.9c1.7,0,3.3-0.2,4.8-0.7c1.5,0.4,3.1,0.7,4.8,0.7c9.9,0,17.9-8,17.9-17.9C102.6,64.8,100.7,60.5,97.7,57.3z    "></path>
		<path class="st16" d="M84.7,88.9c-1.6,0-3.2-0.2-4.8-0.6c-1.6,0.4-3.2,0.6-4.8,0.6c-10.7,0-19.3-8.7-19.3-19.3    c0-4.7,1.7-9.3,4.9-12.8c0.8-10,9.2-17.8,19.2-17.8s18.4,7.8,19.2,17.8c3.2,3.5,4.9,8.1,4.9,12.8C104,80.2,95.4,88.9,84.7,88.9z     M79.9,85.4c0.1,0,0.3,0,0.4,0.1c1.5,0.4,3,0.6,4.4,0.6c9.1,0,16.5-7.4,16.5-16.5c0-4.2-1.6-8.2-4.5-11.2    c-0.2-0.2-0.4-0.6-0.4-0.9c-0.5-8.7-7.7-15.6-16.4-15.6S64,48.7,63.5,57.4c0,0.3-0.2,0.7-0.4,0.9c-2.9,3.1-4.5,7.1-4.5,11.2    C58.6,78.6,66,86,75.1,86c1.5,0,2.9-0.2,4.4-0.6C79.6,85.4,79.8,85.4,79.9,85.4z"></path>
	</g>
	<g>
		<g>
			<path class="st16" d="M79.9,114.8c-0.8,0-1.4-0.6-1.4-1.4V56.7c0-0.8,0.6-1.4,1.4-1.4s1.4,0.6,1.4,1.4v56.7     C81.3,114.2,80.7,114.8,79.9,114.8z"></path>
		</g>
		<g>
			<path class="st16" d="M79.9,71.6c-0.4,0-0.7-0.1-1-0.4c-0.6-0.6-0.6-1.5,0-2l8.5-8.5c0.6-0.6,1.5-0.6,2,0c0.6,0.6,0.6,1.5,0,2     l-8.5,8.5C80.6,71.4,80.3,71.6,79.9,71.6z"></path>
		</g>
		<g>
			<path class="st16" d="M79.9,79.2c-0.4,0-0.7-0.1-1-0.4L68.5,68.4c-0.6-0.6-0.6-1.5,0-2s1.5-0.6,2,0l10.4,10.4     c0.6,0.6,0.6,1.5,0,2C80.6,79.1,80.3,79.2,79.9,79.2z"></path>
		</g>
	</g>
	<g>
		<g>
			<path class="st16" d="M158.3,114.8H38.1c-0.8,0-1.4-0.6-1.4-1.4s0.6-1.4,1.4-1.4h120.3c0.8,0,1.4,0.6,1.4,1.4     S159.1,114.8,158.3,114.8z"></path>
		</g>
		<g>
			<path class="st16" d="M23.1,114.8H1.5c-0.8,0-1.4-0.6-1.4-1.4s0.6-1.4,1.4-1.4h21.7c0.8,0,1.4,0.6,1.4,1.4S23.9,114.8,23.1,114.8     z"></path>
		</g>
	</g>
	<g>
		<g>
			<path class="st19" d="M79.9,31.7c-0.8,0-1.4-0.6-1.4-1.4V18.5c0-0.8,0.6-1.4,1.4-1.4c0.8,0,1.4,0.6,1.4,1.4v11.8     C81.3,31.1,80.7,31.7,79.9,31.7z"></path>
		</g>
		<g>
			<path class="st19" d="M90.2,35.1c-0.4,0-0.7-0.1-1-0.4c-0.6-0.6-0.6-1.5,0-2l7-7c0.6-0.6,1.5-0.6,2,0s0.6,1.5,0,2l-7,7     C91,35,90.6,35.1,90.2,35.1z"></path>
		</g>
		<g>
			<path class="st19" d="M69.6,35.1c-0.4,0-0.7-0.1-1-0.4l-7-7c-0.6-0.6-0.6-1.5,0-2c0.6-0.6,1.5-0.6,2,0l7,7c0.6,0.6,0.6,1.5,0,2     C70.3,35,70,35.1,69.6,35.1z"></path>
		</g>
	</g>
</g>
</svg>
