<?xml version="1.0" encoding="UTF-8"?>
<svg xmlns="http://www.w3.org/2000/svg" width="159.8" height="145">
  <g>
    <title>Layer 1</title>
    <g id="Monthly_Giving_Club" class="st0" display="none">
      <circle class="st1" cx="79.9" cy="72.5" r="37.8" display="inline" fill="#D8F0F7" id="svg_1"></circle>
      <g class="st2" display="inline" id="svg_2">
        <path class="st3" d="m92.7,71.6c-1.4,-1.8 -3.5,-0.3 -3.5,-0.3l-5.3,3.6l0,0l0,0c-0.3,-0.9 -1.4,-1.2 -1.4,-1.2l-7,-2.3c-1.3,-0.4 -2.7,-0.4 -3.9,0.1l-4.9,1.8l0,7.3l10,3.3c1.9,0.6 4,0.2 5.5,-1l9.8,-7.9c-0.1,0 2.1,-1.7 0.7,-3.4z" fill="#FFFFFF" id="svg_3"></path>
        <g id="svg_4">
          <polygon class="st3" points="71.1,52.6 71.1,57.9 73.2,57.9 73.2,64.8 86.6,64.8 86.6,57.9 88.7,57.9 88.7,52.6    " fill="#FFFFFF" id="svg_5"></polygon>
          <line class="st4" x1="73.2" y1="59.4" x2="86.6" y2="59.4" fill="none" stroke="#DCDDDE" stroke-width="1.5" stroke-miterlimit="10" id="svg_6"></line>
          <path class="st5" d="m78.2,45.3l0,0c1,0.3 1.7,1.2 1.7,2.3l0,4.1l-3.5,-2.1c-0.9,-0.5 -1.3,-1.6 -1.1,-2.6l0,0c0.3,-1.3 1.6,-2 2.9,-1.7z" fill="none" stroke="#E1393A" stroke-width="1.5" stroke-linecap="round" stroke-linejoin="round" stroke-miterlimit="10" id="svg_7"></path>
          <path class="st5" d="m81.6,45.3l0,0c-1,0.3 -1.7,1.2 -1.7,2.3l0,4.1l3.5,-2.1c0.9,-0.5 1.3,-1.6 1.1,-2.6l0,0c-0.3,-1.3 -1.6,-2 -2.9,-1.7z" fill="none" stroke="#E1393A" stroke-width="1.5" stroke-linecap="round" stroke-linejoin="round" stroke-miterlimit="10" id="svg_8"></path>
          <line class="st6" x1="79.9" y1="64.8" x2="79.9" y2="52.6" fill="none" stroke="#E1393A" stroke-width="1.5" stroke-linejoin="round" stroke-miterlimit="10" id="svg_9"></line>
          <rect x="73.2" y="57.9" class="st7" width="13.5" height="6.9" fill="none" stroke="#2A2F4C" stroke-width="1.5" stroke-linecap="round" stroke-linejoin="round" stroke-miterlimit="10" id="svg_10"></rect>
          <rect x="71.1" y="52.6" class="st7" width="17.6" height="5.2" fill="none" stroke="#2A2F4C" stroke-width="1.5" stroke-linecap="round" stroke-linejoin="round" stroke-miterlimit="10" id="svg_11"></rect>
        </g>
        <g id="svg_12">
          <path class="st8" d="m66.9,80.6l10,3.3c1.9,0.6 4,0.2 5.5,-1l9.8,-7.9c0,0 2.1,-1.7 0.8,-3.4c-1.4,-1.8 -3.5,-0.3 -3.5,-0.3l-5.3,3.6" fill="none" stroke="#2A2F4C" stroke-width="1.5" stroke-linecap="round" stroke-miterlimit="10" id="svg_13"></path>
          <path class="st8" d="m66.9,73.3l4.9,-1.8c1.3,-0.5 2.7,-0.5 3.9,-0.1l7,2.3c0,0 2,0.6 1.4,2.2c-0.8,2.2 -5.1,1.3 -5.1,1.3l-5.5,-0.7" fill="none" stroke="#2A2F4C" stroke-width="1.5" stroke-linecap="round" stroke-miterlimit="10" id="svg_14"></path>
        </g>
      </g>
      <g class="st2" display="inline" id="svg_15">
        <line class="st8" x1="99.4" y1="93.8" x2="120.8" y2="93.8" fill="none" stroke="#2A2F4C" stroke-width="1.5" stroke-linecap="round" stroke-miterlimit="10" id="svg_16"></line>
        <line class="st8" x1="39" y1="93.8" x2="94.4" y2="93.8" fill="none" stroke="#2A2F4C" stroke-width="1.5" stroke-linecap="round" stroke-miterlimit="10" id="svg_17"></line>
      </g>
    </g>
    <g id="Memorial_Honor" class="st0" display="none">
      <circle class="st1" cx="79.9" cy="72.5" r="37.8" display="inline" fill="#D8F0F7" id="svg_18"></circle>
      <g class="st2" display="inline" id="svg_19">
        <polygon class="st3" points="79.9,63.1 83.3,70 90.8,71.1 85.4,76.4 86.7,83.9 79.9,80.4 73.1,83.9 74.4,76.4 69,71.1 76.5,70       " fill="#FFFFFF" id="svg_20"></polygon>
        <polygon class="st3" points="92,56.2 79.9,63.1 67.8,56.2 67.8,49 92,49   " fill="#FFFFFF" id="svg_21"></polygon>
        <polygon class="st9" points="75.5,60.6 79.9,63.1 84.3,60.6 84.3,49 75.5,49   " fill="#E1393A" id="svg_22"></polygon>
        <line class="st4" x1="67.8" y1="50.5" x2="75.5" y2="50.5" fill="none" stroke="#DCDDDE" stroke-width="1.5" stroke-miterlimit="10" id="svg_23"></line>
        <line class="st4" x1="84.3" y1="50.5" x2="92" y2="50.5" fill="none" stroke="#DCDDDE" stroke-width="1.5" stroke-miterlimit="10" id="svg_24"></line>
        <line class="st10" x1="75.5" y1="50.5" x2="84.3" y2="50.5" fill="none" stroke="#BB2D2E" stroke-width="1.5" stroke-miterlimit="10" id="svg_25"></line>
        <polygon class="st7" points="79.9,63.1 83.3,70 90.8,71.1 85.4,76.4 86.7,83.9 79.9,80.4 73.1,83.9 74.4,76.4 69,71.1 76.5,70       " fill="none" stroke="#2A2F4C" stroke-width="1.5" stroke-linecap="round" stroke-linejoin="round" stroke-miterlimit="10" id="svg_26"></polygon>
        <polygon class="st7" points="92,56.2 79.9,63.1 67.8,56.2 67.8,49 92,49   " fill="none" stroke="#2A2F4C" stroke-width="1.5" stroke-linecap="round" stroke-linejoin="round" stroke-miterlimit="10" id="svg_27"></polygon>
        <line class="st7" x1="75.5" y1="60.6" x2="75.5" y2="49" fill="none" stroke="#2A2F4C" stroke-width="1.5" stroke-linecap="round" stroke-linejoin="round" stroke-miterlimit="10" id="svg_28"></line>
        <line class="st7" x1="84.3" y1="60.6" x2="84.3" y2="49" fill="none" stroke="#2A2F4C" stroke-width="1.5" stroke-linecap="round" stroke-linejoin="round" stroke-miterlimit="10" id="svg_29"></line>
      </g>
      <g class="st2" display="inline" id="svg_30">
        <line class="st8" x1="82.4" y1="93.8" x2="120.8" y2="93.8" fill="none" stroke="#2A2F4C" stroke-width="1.5" stroke-linecap="round" stroke-miterlimit="10" id="svg_31"></line>
        <line class="st8" x1="66.1" y1="93.8" x2="77.4" y2="93.8" fill="none" stroke="#2A2F4C" stroke-width="1.5" stroke-linecap="round" stroke-miterlimit="10" id="svg_32"></line>
        <line class="st8" x1="39" y1="93.8" x2="61.1" y2="93.8" fill="none" stroke="#2A2F4C" stroke-width="1.5" stroke-linecap="round" stroke-miterlimit="10" id="svg_33"></line>
      </g>
    </g>
    <g id="Planned_Giving" class="st0" display="none">
      <circle class="st1" cx="79.9" cy="72.5" r="37.8" display="inline" fill="#D8F0F7" id="svg_34"></circle>
      <g class="st2" display="inline" id="svg_35">
        <g id="svg_36">
          <polygon class="st3" points="60.4,73.9 60.4,78.5 62.2,78.5 62.2,84.6 74,84.6 74,78.5 75.8,78.5 75.8,73.9    " fill="#FFFFFF" id="svg_37"></polygon>
          <line class="st4" x1="62.2" y1="80" x2="74" y2="80" fill="none" stroke="#DCDDDE" stroke-width="1.5" stroke-miterlimit="10" id="svg_38"></line>
          <g id="svg_39">
            <path class="st5" d="m66.6,67.2l0,0c0.9,0.2 1.5,1.1 1.5,2l0,3.6l-3.1,-1.8c-0.8,-0.5 -1.2,-1.4 -0.9,-2.3l0,0c0.2,-1.1 1.4,-1.8 2.5,-1.5z" fill="none" stroke="#E1393A" stroke-width="1.5" stroke-linecap="round" stroke-linejoin="round" stroke-miterlimit="10" id="svg_40"></path>
            <path class="st5" d="m69.6,67.2l0,0c-0.9,0.2 -1.5,1.1 -1.5,2l0,3.6l3.1,-1.8c0.8,-0.5 1.2,-1.4 0.9,-2.3l0,0c-0.3,-1.1 -1.4,-1.8 -2.5,-1.5z" fill="none" stroke="#E1393A" stroke-width="1.5" stroke-linecap="round" stroke-linejoin="round" stroke-miterlimit="10" id="svg_41"></path>
          </g>
          <line class="st11" x1="68.1" y1="84.6" x2="68.1" y2="73.9" fill="none" stroke="#E1393A" stroke-width="1.5" stroke-miterlimit="10" id="svg_42"></line>
          <rect x="62.2" y="78.5" class="st7" width="11.8" height="6.1" fill="none" stroke="#2A2F4C" stroke-width="1.5" stroke-linecap="round" stroke-linejoin="round" stroke-miterlimit="10" id="svg_43"></rect>
          <rect x="60.4" y="73.9" class="st7" width="15.4" height="4.6" fill="none" stroke="#2A2F4C" stroke-width="1.5" stroke-linecap="round" stroke-linejoin="round" stroke-miterlimit="10" id="svg_44"></rect>
        </g>
        <path class="st7" d="m60.2,64.8c0,-10.9 8.8,-19.7 19.7,-19.7c8.2,0 15.2,5 18.2,12" fill="none" stroke="#2A2F4C" stroke-width="1.5" stroke-linecap="round" stroke-linejoin="round" stroke-miterlimit="10" id="svg_45"></path>
        <path class="st7" d="m99.6,64.8c0,10.9 -8.8,19.7 -19.7,19.7" fill="none" stroke="#2A2F4C" stroke-width="1.5" stroke-linecap="round" stroke-linejoin="round" stroke-miterlimit="10" id="svg_46"></path>
        <g id="svg_47">
          <polyline class="st7" points="79.9,53.6 79.9,64.8 85.4,70.3    " fill="none" stroke="#2A2F4C" stroke-width="1.5" stroke-linecap="round" stroke-linejoin="round" stroke-miterlimit="10" id="svg_48"></polyline>
        </g>
        <polygon class="st12" points="98.1,57.2 94.5,55.4 91,53.6 94.3,51.4 97.7,49.2 97.9,53.2   " fill="#FFFFFF" stroke="#2A2F4C" stroke-width="1.5" stroke-linecap="round" stroke-linejoin="round" stroke-miterlimit="10" id="svg_49"></polygon>
      </g>
      <g class="st2" display="inline" id="svg_50">
        <line class="st8" x1="62.1" y1="93.8" x2="120.8" y2="93.8" fill="none" stroke="#2A2F4C" stroke-width="1.5" stroke-linecap="round" stroke-miterlimit="10" id="svg_51"></line>
        <line class="st8" x1="39" y1="93.8" x2="57.1" y2="93.8" fill="none" stroke="#2A2F4C" stroke-width="1.5" stroke-linecap="round" stroke-miterlimit="10" id="svg_52"></line>
      </g>
    </g>
    <g id="Stocks" class="st0" display="none">
      <circle class="st1" cx="79.9" cy="72.5" r="37.8" display="inline" fill="#D8F0F7" id="svg_53"></circle>
      <g class="st2" display="inline" id="svg_54">
        <path class="st3" d="m54,93.8l51.8,0l0,-26.3c0,0 -15,20.3 -51.8,20.3c0,0 0,6 0,6z" fill="#FFFFFF" id="svg_55"></path>
        <polyline class="st7" points="70.3,57.8 105.8,57.8 105.8,93.8 54,93.8 54,74.1   " fill="none" stroke="#2A2F4C" stroke-width="1.5" stroke-linecap="round" stroke-linejoin="round" stroke-miterlimit="10" id="svg_56"></polyline>
        <path class="st7" d="m58.5,82.1c23.9,0 41.7,-18.7 41.7,-18.7" fill="none" stroke="#2A2F4C" stroke-width="1.5" stroke-linecap="round" stroke-linejoin="round" stroke-miterlimit="10" id="svg_57"></path>
        <g id="svg_58">
          <line class="st7" x1="59.9" y1="87.1" x2="59.9" y2="90.3" fill="none" stroke="#2A2F4C" stroke-width="1.5" stroke-linecap="round" stroke-linejoin="round" stroke-miterlimit="10" id="svg_59"></line>
          <line class="st7" x1="66.6" y1="87.1" x2="66.6" y2="90.3" fill="none" stroke="#2A2F4C" stroke-width="1.5" stroke-linecap="round" stroke-linejoin="round" stroke-miterlimit="10" id="svg_60"></line>
          <line class="st7" x1="73.3" y1="85.7" x2="73.3" y2="90.3" fill="none" stroke="#2A2F4C" stroke-width="1.5" stroke-linecap="round" stroke-linejoin="round" stroke-miterlimit="10" id="svg_61"></line>
          <line class="st7" x1="80" y1="83.9" x2="80" y2="90.3" fill="none" stroke="#2A2F4C" stroke-width="1.5" stroke-linecap="round" stroke-linejoin="round" stroke-miterlimit="10" id="svg_62"></line>
          <line class="st7" x1="86.7" y1="81.3" x2="86.7" y2="90.3" fill="none" stroke="#2A2F4C" stroke-width="1.5" stroke-linecap="round" stroke-linejoin="round" stroke-miterlimit="10" id="svg_63"></line>
          <line class="st7" x1="93.5" y1="77.8" x2="93.5" y2="90.3" fill="none" stroke="#2A2F4C" stroke-width="1.5" stroke-linecap="round" stroke-linejoin="round" stroke-miterlimit="10" id="svg_64"></line>
          <line class="st7" x1="100.2" y1="73.1" x2="100.2" y2="90.3" fill="none" stroke="#2A2F4C" stroke-width="1.5" stroke-linecap="round" stroke-linejoin="round" stroke-miterlimit="10" id="svg_65"></line>
        </g>
        <g id="svg_66">
          <circle class="st13" cx="54" cy="57.9" r="10.7" fill="#FFFFFF" stroke="#2A2F4C" stroke-width="1.5" stroke-miterlimit="10" id="svg_67"></circle>
          <g id="svg_68">
            <path class="st5" d="m51.3,60.1c0,1.2 0.5,2.7 2.8,2.7c2.1,0 2.6,-1.2 2.6,-2.2c0,-3.2 -5,-1.9 -5,-5.2c0,-1.7 1.5,-2.1 2.4,-2.1c1.3,0 2.4,0.8 2.4,2.7" fill="none" stroke="#E1393A" stroke-width="1.5" stroke-linecap="round" stroke-linejoin="round" stroke-miterlimit="10" id="svg_69"></path>
            <line class="st5" x1="54.1" y1="53.3" x2="54.1" y2="51" fill="none" stroke="#E1393A" stroke-width="1.5" stroke-linecap="round" stroke-linejoin="round" stroke-miterlimit="10" id="svg_70"></line>
            <line class="st5" x1="54.1" y1="64.9" x2="54.1" y2="62.8" fill="none" stroke="#E1393A" stroke-width="1.5" stroke-linecap="round" stroke-linejoin="round" stroke-miterlimit="10" id="svg_71"></line>
          </g>
        </g>
        <polygon class="st12" points="100.2,63.4 99.1,66.7 98,69.9 95.7,67.4 93.5,64.8 96.8,64.1   " fill="#FFFFFF" stroke="#2A2F4C" stroke-width="1.5" stroke-linecap="round" stroke-linejoin="round" stroke-miterlimit="10" id="svg_72"></polygon>
      </g>
      <g class="st2" display="inline" id="svg_73">
        <line class="st8" x1="110.8" y1="93.8" x2="120.8" y2="93.8" fill="none" stroke="#2A2F4C" stroke-width="1.5" stroke-linecap="round" stroke-miterlimit="10" id="svg_74"></line>
        <line class="st8" x1="39" y1="93.8" x2="105.8" y2="93.8" fill="none" stroke="#2A2F4C" stroke-width="1.5" stroke-linecap="round" stroke-miterlimit="10" id="svg_75"></line>
      </g>
    </g>
    <g id="Peer_to_Peer" class="st0" display="none">
      <circle class="st1" cx="79.9" cy="72.5" r="37.8" display="inline" fill="#D8F0F7" id="svg_76"></circle>
      <g class="st2" display="inline" id="svg_77">
        <g id="svg_78">
          <circle class="st13" cx="79.9" cy="63.4" r="10.7" fill="#FFFFFF" stroke="#2A2F4C" stroke-width="1.5" stroke-miterlimit="10" id="svg_79"></circle>
          <g id="svg_80">
            <path class="st5" d="m77.2,65.5c0,1.2 0.5,2.7 2.8,2.7c2.1,0 2.6,-1.2 2.6,-2.2c0,-3.2 -5,-1.9 -5,-5.2c0,-1.7 1.5,-2.1 2.4,-2.1c1.3,0 2.4,0.8 2.4,2.7" fill="none" stroke="#E1393A" stroke-width="1.5" stroke-linecap="round" stroke-linejoin="round" stroke-miterlimit="10" id="svg_81"></path>
            <line class="st5" x1="80" y1="58.7" x2="80" y2="56.4" fill="none" stroke="#E1393A" stroke-width="1.5" stroke-linecap="round" stroke-linejoin="round" stroke-miterlimit="10" id="svg_82"></line>
            <line class="st5" x1="80" y1="70.3" x2="80" y2="68.2" fill="none" stroke="#E1393A" stroke-width="1.5" stroke-linecap="round" stroke-linejoin="round" stroke-miterlimit="10" id="svg_83"></line>
          </g>
        </g>
        <g id="svg_84">
          <path class="st3" d="m104.6,85.1c0,-4.8 -2.6,-8.6 -5.8,-8.6c-3.2,0 -5.8,3.9 -5.8,8.6c0,0.8 0.1,1.5 0.2,2.3l11.2,0c0.1,-0.7 0.2,-1.5 0.2,-2.3z" fill="#FFFFFF" id="svg_85"></path>
          <path class="st14" d="m103.9,81.1c0,0 -1.9,-3.1 -5.1,-3.1c-3.2,0 -5.2,3.4 -5.2,3.4" fill="none" stroke="#DCDDDE" stroke-width="1.5" stroke-linecap="round" stroke-linejoin="round" stroke-miterlimit="10" id="svg_86"></path>
          <path class="st7" d="m104.6,85.1c0,-4.8 -2.6,-8.6 -5.8,-8.6c-3.2,0 -5.8,3.9 -5.8,8.6c0,0.8 0.1,1.5 0.2,2.3l11.2,0c0.1,-0.7 0.2,-1.5 0.2,-2.3z" fill="none" stroke="#2A2F4C" stroke-width="1.5" stroke-linecap="round" stroke-linejoin="round" stroke-miterlimit="10" id="svg_87"></path>
          <circle class="st12" cx="98.8" cy="72.7" r="3.8" fill="#FFFFFF" stroke="#2A2F4C" stroke-width="1.5" stroke-linecap="round" stroke-linejoin="round" stroke-miterlimit="10" id="svg_88"></circle>
        </g>
        <g id="svg_89">
          <path class="st3" d="m65.8,54.3c0,-4.8 -2.6,-8.6 -5.8,-8.6s-5.8,3.9 -5.8,8.6c0,0.8 0.1,1.5 0.2,2.3l11.2,0c0.1,-0.7 0.2,-1.5 0.2,-2.3z" fill="#FFFFFF" id="svg_90"></path>
          <path class="st14" d="m65.1,50.2c0,0 -1.9,-3.1 -5.1,-3.1s-5.2,3.4 -5.2,3.4" fill="none" stroke="#DCDDDE" stroke-width="1.5" stroke-linecap="round" stroke-linejoin="round" stroke-miterlimit="10" id="svg_91"></path>
          <path class="st7" d="m65.8,54.3c0,-4.8 -2.6,-8.6 -5.8,-8.6s-5.8,3.9 -5.8,8.6c0,0.8 0.1,1.5 0.2,2.3l11.2,0c0.1,-0.7 0.2,-1.5 0.2,-2.3z" fill="none" stroke="#2A2F4C" stroke-width="1.5" stroke-linecap="round" stroke-linejoin="round" stroke-miterlimit="10" id="svg_92"></path>
          <circle class="st12" cx="60" cy="41.9" r="3.8" fill="#FFFFFF" stroke="#2A2F4C" stroke-width="1.5" stroke-linecap="round" stroke-linejoin="round" stroke-miterlimit="10" id="svg_93"></circle>
        </g>
        <g id="svg_94">
          <path class="st7" d="m79.8,84.4l-7.9,0c-6.5,0 -11.7,-3.7 -11.9,-10.1" fill="none" stroke="#2A2F4C" stroke-width="1.5" stroke-linecap="round" stroke-linejoin="round" stroke-miterlimit="10" id="svg_95"></path>
          <polygon class="st12" points="60,68.3 61.8,71.3 63.5,74.3 60,74.3 56.5,74.3 58.3,71.3    " fill="#FFFFFF" stroke="#2A2F4C" stroke-width="1.5" stroke-linecap="round" stroke-linejoin="round" stroke-miterlimit="10" id="svg_96"></polygon>
        </g>
        <g id="svg_97">
          <path class="st7" d="m79.8,42.3l7,0c6.5,0 11.7,3.7 11.9,10.1" fill="none" stroke="#2A2F4C" stroke-width="1.5" stroke-linecap="round" stroke-linejoin="round" stroke-miterlimit="10" id="svg_98"></path>
          <polygon class="st12" points="98.8,58.5 97,55.4 95.3,52.4 98.8,52.4 102.3,52.4 100.5,55.4    " fill="#FFFFFF" stroke="#2A2F4C" stroke-width="1.5" stroke-linecap="round" stroke-linejoin="round" stroke-miterlimit="10" id="svg_99"></polygon>
        </g>
      </g>
      <g class="st2" display="inline" id="svg_100">
        <line class="st8" x1="89.3" y1="93.8" x2="120.8" y2="93.8" fill="none" stroke="#2A2F4C" stroke-width="1.5" stroke-linecap="round" stroke-miterlimit="10" id="svg_101"></line>
        <line class="st8" x1="59.8" y1="93.8" x2="84.3" y2="93.8" fill="none" stroke="#2A2F4C" stroke-width="1.5" stroke-linecap="round" stroke-miterlimit="10" id="svg_102"></line>
        <line class="st8" x1="39" y1="93.8" x2="54.8" y2="93.8" fill="none" stroke="#2A2F4C" stroke-width="1.5" stroke-linecap="round" stroke-miterlimit="10" id="svg_103"></line>
      </g>
    </g>
    <g id="Community" class="st0" display="none">
      <circle class="st1" cx="79.9" cy="72.5" r="37.8" display="inline" fill="#D8F0F7" id="svg_104"></circle>
      <g class="st2" display="inline" id="svg_105">
        <line class="st7" x1="79.9" y1="63.7" x2="102" y2="53.2" fill="none" stroke="#2A2F4C" stroke-width="1.5" stroke-linecap="round" stroke-linejoin="round" stroke-miterlimit="10" id="svg_106"></line>
        <line class="st7" x1="79.9" y1="84.7" x2="102" y2="74.2" fill="none" stroke="#2A2F4C" stroke-width="1.5" stroke-linecap="round" stroke-linejoin="round" stroke-miterlimit="10" id="svg_107"></line>
        <line class="st7" x1="57.8" y1="53.2" x2="79.9" y2="42.7" fill="none" stroke="#2A2F4C" stroke-width="1.5" stroke-linecap="round" stroke-linejoin="round" stroke-miterlimit="10" id="svg_108"></line>
        <line class="st7" x1="57.8" y1="74.2" x2="79.9" y2="63.7" fill="none" stroke="#2A2F4C" stroke-width="1.5" stroke-linecap="round" stroke-linejoin="round" stroke-miterlimit="10" id="svg_109"></line>
        <line class="st7" x1="79.9" y1="63.7" x2="57.8" y2="53.2" fill="none" stroke="#2A2F4C" stroke-width="1.5" stroke-linecap="round" stroke-linejoin="round" stroke-miterlimit="10" id="svg_110"></line>
        <line class="st7" x1="102" y1="74.2" x2="79.9" y2="63.7" fill="none" stroke="#2A2F4C" stroke-width="1.5" stroke-linecap="round" stroke-linejoin="round" stroke-miterlimit="10" id="svg_111"></line>
        <g id="svg_112">
          <circle class="st12" cx="79.9" cy="63.7" r="9.3" fill="#FFFFFF" stroke="#2A2F4C" stroke-width="1.5" stroke-linecap="round" stroke-linejoin="round" stroke-miterlimit="10" id="svg_113"></circle>
          <path class="st3" d="m82.8,66.7c0,-2.4 -1.3,-4.3 -2.9,-4.3c-1.6,0 -2.9,1.9 -2.9,4.3c0,0.4 0,0.8 0.1,1.1l5.6,0c0,-0.4 0.1,-0.7 0.1,-1.1z" fill="#FFFFFF" id="svg_114"></path>
          <path class="st15" d="m82.8,66.7c0,-2.4 -1.3,-4.3 -2.9,-4.3c-1.6,0 -2.9,1.9 -2.9,4.3c0,0.4 0,0.8 0.1,1.1l5.6,0c0,-0.4 0.1,-0.7 0.1,-1.1z" fill="#D8F0F7" stroke="#2A2F4C" stroke-width="1.5" stroke-linecap="round" stroke-linejoin="round" stroke-miterlimit="10" id="svg_115"></path>
          <circle class="st15" cx="79.9" cy="60.5" r="1.9" fill="#D8F0F7" stroke="#2A2F4C" stroke-width="1.5" stroke-linecap="round" stroke-linejoin="round" stroke-miterlimit="10" id="svg_116"></circle>
        </g>
        <circle class="st12" cx="102" cy="74.2" r="3.1" fill="#FFFFFF" stroke="#2A2F4C" stroke-width="1.5" stroke-linecap="round" stroke-linejoin="round" stroke-miterlimit="10" id="svg_117"></circle>
        <circle class="st12" cx="57.8" cy="74.2" r="3.1" fill="#FFFFFF" stroke="#2A2F4C" stroke-width="1.5" stroke-linecap="round" stroke-linejoin="round" stroke-miterlimit="10" id="svg_118"></circle>
        <g id="svg_119">
          <circle class="st12" cx="102" cy="53.2" r="9.3" fill="#FFFFFF" stroke="#2A2F4C" stroke-width="1.5" stroke-linecap="round" stroke-linejoin="round" stroke-miterlimit="10" id="svg_120"></circle>
          <g id="svg_121">
            <path class="st16" d="m104.9,56.2c0,-2.4 -1.3,-4.3 -2.9,-4.3s-2.9,1.9 -2.9,4.3c0,0.4 0,0.8 0.1,1.1l5.6,0c0,-0.3 0.1,-0.7 0.1,-1.1z" fill="#D8F0F7" stroke="#2A2F4C" stroke-width="1.5" stroke-miterlimit="10" id="svg_122"></path>
            <path class="st15" d="m104.9,56.2c0,-2.4 -1.3,-4.3 -2.9,-4.3s-2.9,1.9 -2.9,4.3c0,0.4 0,0.8 0.1,1.1l5.6,0c0,-0.3 0.1,-0.7 0.1,-1.1z" fill="#D8F0F7" stroke="#2A2F4C" stroke-width="1.5" stroke-linecap="round" stroke-linejoin="round" stroke-miterlimit="10" id="svg_123"></path>
            <circle class="st15" cx="102" cy="50" r="1.9" fill="#D8F0F7" stroke="#2A2F4C" stroke-width="1.5" stroke-linecap="round" stroke-linejoin="round" stroke-miterlimit="10" id="svg_124"></circle>
          </g>
        </g>
        <g id="svg_125">
          <circle class="st12" cx="57.8" cy="53.2" r="9.3" fill="#FFFFFF" stroke="#2A2F4C" stroke-width="1.5" stroke-linecap="round" stroke-linejoin="round" stroke-miterlimit="10" id="svg_126"></circle>
          <g id="svg_127">
            <path class="st3" d="m60.7,56.2c0,-2.4 -1.3,-4.3 -2.9,-4.3c-1.6,0 -2.9,1.9 -2.9,4.3c0,0.4 0,0.8 0.1,1.1l5.6,0c0.1,-0.3 0.1,-0.7 0.1,-1.1z" fill="#FFFFFF" id="svg_128"></path>
            <path class="st15" d="m60.7,56.2c0,-2.4 -1.3,-4.3 -2.9,-4.3c-1.6,0 -2.9,1.9 -2.9,4.3c0,0.4 0,0.8 0.1,1.1l5.6,0c0.1,-0.3 0.1,-0.7 0.1,-1.1z" fill="#D8F0F7" stroke="#2A2F4C" stroke-width="1.5" stroke-linecap="round" stroke-linejoin="round" stroke-miterlimit="10" id="svg_129"></path>
            <circle class="st15" cx="57.8" cy="50" r="1.9" fill="#D8F0F7" stroke="#2A2F4C" stroke-width="1.5" stroke-linecap="round" stroke-linejoin="round" stroke-miterlimit="10" id="svg_130"></circle>
          </g>
        </g>
        <polygon class="st17" points="79.9,38.1 81.4,41.1 84.7,41.6 82.3,43.9 82.9,47.2 79.9,45.7 76.9,47.2 77.5,43.9 75.1,41.6     78.4,41.1   " fill="#FFFFFF" stroke="#E1393A" stroke-width="1.5" stroke-linecap="round" stroke-linejoin="round" stroke-miterlimit="10" id="svg_131"></polygon>
        <polygon class="st17" points="79.9,79.1 81.4,82.1 84.7,82.6 82.3,84.9 82.9,88.2 79.9,86.7 76.9,88.2 77.5,84.9 75.1,82.6     78.4,82.1   " fill="#FFFFFF" stroke="#E1393A" stroke-width="1.5" stroke-linecap="round" stroke-linejoin="round" stroke-miterlimit="10" id="svg_132"></polygon>
      </g>
      <g class="st2" display="inline" id="svg_133">
        <line class="st8" x1="97.9" y1="93.8" x2="120.8" y2="93.8" fill="none" stroke="#2A2F4C" stroke-width="1.5" stroke-linecap="round" stroke-miterlimit="10" id="svg_134"></line>
        <line class="st8" x1="39" y1="93.8" x2="92.9" y2="93.8" fill="none" stroke="#2A2F4C" stroke-width="1.5" stroke-linecap="round" stroke-miterlimit="10" id="svg_135"></line>
      </g>
    </g>
    <g id="Training">
      <g id="svg_136">
        <g id="svg_137">
          <circle class="st18" cx="87.3" cy="72.5" r="72.5" fill="#D8F0F7" id="svg_138"></circle>
        </g>
        <g id="svg_139">
          <g id="svg_140">
            <path class="st3" d="m45.5,43.7l83.6,0c3.6,0 6.5,2.9 6.5,6.5l0,56.6c0,3.6 -2.9,6.5 -6.5,6.5l-83.6,0c-3.6,0 -6.5,-2.9 -6.5,-6.5l0,-56.5c-0.1,-3.7 2.8,-6.6 6.5,-6.6z" fill="#FFFFFF" id="svg_141"></path>
            <path class="st19" d="m129.1,114.8l-83.6,0c-4.5,0 -8,-3.5 -8,-8l0,-56.5c0,-4.5 3.5,-8 8,-8l83.6,0c4.5,0 8,3.5 8,8l0,56.6c-0.1,4.4 -3.6,7.9 -8,7.9zm-83.6,-69.6c-2.9,0 -5.1,2.2 -5.1,5.1l0,56.6c0,2.8 2.2,5.1 5.1,5.1l83.6,0c2.9,0 5.1,-2.2 5.1,-5.1l0,-56.6c0,-2.8 -2.2,-5.1 -5.1,-5.1l-83.6,0z" fill="#2A2F4C" id="svg_142"></path>
          </g>
          <g id="svg_143">
            <path class="st19" d="m129.1,43.7l-83.6,0c-3.6,0 -6.5,2.9 -6.5,6.5l0,7.7l96.9,0l0,-7.7c-0.3,-3.6 -3.2,-6.5 -6.8,-6.5z" fill="#2A2F4C" id="svg_144"></path>
          </g>
          <g id="svg_145">
            <path class="st19" d="m135.6,59.4l-96.7,0c-0.8,0 -1.4,-0.6 -1.4,-1.4c0,-0.8 0.6,-1.4 1.4,-1.4l96.7,0c0.8,0 1.4,0.6 1.4,1.4c0,0.7 -0.6,1.4 -1.4,1.4z" fill="#2A2F4C" id="svg_146"></path>
          </g>
          <g id="svg_147">
            <g id="svg_148">
              <path class="st18" d="m98,87.3c0,3.1 -4.8,6.1 -10.7,6.1c-5.9,0 -10.7,-3.1 -10.7,-6.1l0,-11.3l21.7,0l0,11.3l-0.3,0z" fill="#D8F0F7" id="svg_149"></path>
            </g>
            <g id="svg_150">
              <path class="st20" d="m87.3,89.3c-0.2,0 -0.4,0 -0.6,-0.1l-10.6,-5.2c-0.7,-0.4 -1,-1.2 -0.7,-1.9c0.4,-0.7 1.2,-1 1.9,-0.7l9.9,4.9l9.9,-4.9c0.7,-0.4 1.6,-0.1 1.9,0.7c0.4,0.7 0.1,1.6 -0.7,1.9l-10.5,5.2c-0.1,0 -0.3,0.1 -0.5,0.1z" fill="#B2C7CE" id="svg_151"></path>
            </g>
            <g id="svg_152">
              <path class="st19" d="m87.3,94.8c-6.6,0 -12.2,-3.5 -12.2,-7.6l0,-11.2c0,-0.8 0.6,-1.4 1.4,-1.4l21.7,0c0.8,0 1.4,0.6 1.4,1.4l0,11.3c0,0.3 -0.1,0.6 -0.3,0.8c-0.6,3.7 -5.9,6.7 -12,6.7zm-9.3,-17.4l0,9.9c0,1.9 3.7,4.7 9.3,4.7c5.6,0 9.3,-2.8 9.3,-4.7c0,-0.3 0.1,-0.5 0.2,-0.7l0,-9.2l-18.8,0z" fill="#2A2F4C" id="svg_153"></path>
            </g>
            <g id="svg_154">
              <polygon class="st18" points="104.1,76.3 87.3,68.1 70.4,76.3 87.3,84.6      " fill="#D8F0F7" id="svg_155"></polygon>
              <path class="st19" d="m87.3,86c-0.2,0 -0.4,0 -0.6,-0.1l-16.9,-8.2c-0.5,-0.2 -0.8,-0.7 -0.8,-1.3s0.3,-1.1 0.8,-1.3l16.9,-8.2c0.4,-0.2 0.9,-0.2 1.3,0l16.9,8.2c0.5,0.2 0.8,0.7 0.8,1.3s-0.3,1.1 -0.8,1.3l-16.9,8.2c-0.3,0.1 -0.5,0.1 -0.7,0.1zm-13.6,-9.7l13.6,6.7l13.6,-6.6l-13.6,-6.6l-13.6,6.5z" fill="#2A2F4C" id="svg_156"></path>
            </g>
            <g id="svg_157">
              <path class="st19" d="m104.1,86c-0.8,0 -1.4,-0.6 -1.4,-1.4l0,-8.2c0,-0.8 0.6,-1.4 1.4,-1.4c0.8,0 1.4,0.6 1.4,1.4l0,8.2c0.1,0.8 -0.6,1.4 -1.4,1.4z" fill="#2A2F4C" id="svg_158"></path>
            </g>
          </g>
          <g id="svg_159">
            <path class="st19" d="m127.7,105.6l-52.3,0c-0.8,0 -1.4,-0.6 -1.4,-1.4c0,-0.8 0.6,-1.4 1.4,-1.4l52.4,0c0.8,0 1.4,0.6 1.4,1.4c0,0.7 -0.7,1.4 -1.5,1.4z" fill="#2A2F4C" id="svg_160"></path>
          </g>
          <g id="svg_161">
            <path class="st9" d="m66.9,105.6l-20.1,0c-0.8,0 -1.4,-0.6 -1.4,-1.4c0,-0.8 0.6,-1.4 1.4,-1.4l20.1,0c0.8,0 1.4,0.6 1.4,1.4c0.1,0.7 -0.6,1.4 -1.4,1.4z" fill="#E1393A" id="svg_162"></path>
          </g>
          <g id="svg_163">
            <path class="st9" d="m67.7,108.6l-1.2,0c-1.2,0 -2.1,-1 -2.1,-2.1l0,-4.5c0,-1.2 1,-2.1 2.1,-2.1l1.2,0c1.2,0 2.1,1 2.1,2.1l0,4.4c0,1.2 -0.9,2.2 -2.1,2.2z" fill="#E1393A" id="svg_164"></path>
          </g>
          <g id="svg_165">
            <g id="svg_166">
              <circle class="st3" cx="127.9" cy="50.8" r="2.5" fill="#FFFFFF" id="svg_167"></circle>
            </g>
            <g id="svg_168">
              <circle class="st3" cx="120.6" cy="50.8" r="2.5" fill="#FFFFFF" id="svg_169"></circle>
            </g>
            <g id="svg_170">
              <circle class="st3" cx="113.4" cy="50.8" r="2.5" fill="#FFFFFF" id="svg_171"></circle>
            </g>
          </g>
        </g>
      </g>
      <g id="svg_172">
        <g id="svg_173">
          <path class="st19" d="m158.3,114.8l-120.2,0c-0.8,0 -1.4,-0.6 -1.4,-1.4c0,-0.8 0.6,-1.4 1.4,-1.4l120.3,0c0.8,0 1.4,0.6 1.4,1.4c0,0.7 -0.7,1.4 -1.5,1.4z" fill="#2A2F4C" id="svg_174"></path>
        </g>
        <g id="svg_175">
          <path class="st19" d="m23.1,114.8l-21.7,0c-0.8,0 -1.4,-0.6 -1.4,-1.4c0,-0.8 0.6,-1.4 1.4,-1.4l21.7,0c0.8,0 1.4,0.6 1.4,1.4c0.1,0.7 -0.6,1.4 -1.4,1.4z" fill="#2A2F4C" id="svg_176"></path>
        </g>
      </g>
    </g>
  </g>
</svg>
