<?xml version="1.0" encoding="UTF-8"?>
<svg xmlns="http://www.w3.org/2000/svg" xmlns:xlink="http://www.w3.org/1999/xlink" width="163" height="145" viewBox="0 0 163 145">
  <defs>
    <path id="a" d="M.038.488c.038.217.06.45.06.682v17.583c0 .234-.022.465-.06.685h11.905V.488H.038z"></path>
    <path id="c" d="M0 0v19h90a4.036 4.036 0 0 1-.062-.687V.683c0-.232.024-.466.062-.683H0z"></path>
    <path id="e" d="M0 73h164.5V.454H0z"></path>
    <path id="g" d="M.378.277v14.331l3.313-4.151L7 14.608V.277z"></path>
  </defs>
  <g fill="none" fill-rule="evenodd" transform="translate(-2)">
    <circle cx="92.5" cy="72.5" r="72.5" fill="#D8F0F8" fill-rule="nonzero"></circle>
    <path fill="#FFF" fill-rule="nonzero" d="M51 56h72v12H51z"></path>
    <path fill="#FFF" fill-opacity=".5" fill-rule="nonzero" d="M46 72h72v17H46z"></path>
    <path fill="#3E4563" d="M131.75 72.395v14.993H78.37c1.939-6.789.692-12.143-.37-14.993h53.75z"></path>
    <path fill="#FFF" d="M145.943 91.975v18.477h-12.036c.038-.215.06-.439.06-.667V92.64c0-.224-.022-.452-.06-.665h12.036z"></path>
    <g transform="translate(133 92)">
      <mask id="b" fill="#fff">
        <use xlink:href="#a"></use>
      </mask>
      <path fill="#CFD3DE" d="M-106.446 9.962H13.62V-1.155h-120.066z" mask="url(#b)"></path>
    </g>
    <path fill="#3E4563" d="M148 92v19H98.344c1.805-8.601.644-15.39-.344-19h50z"></path>
    <path fill="#292E4C" d="M89 101h58V90H89z"></path>
    <path fill="#FFF" d="M116.94 110.315c0 .234.02.464.06.685H29V92h88c-.04.219-.06.453-.06.683v17.632z"></path>
    <g transform="translate(28 91)">
      <mask id="d" fill="#fff">
        <use xlink:href="#c"></use>
      </mask>
      <path fill="#CFD3DE" d="M-2 10h123V-1H-2z" mask="url(#d)"></path>
    </g>
    <g transform="translate(0 41)">
      <path fill="#030D26" d="M43.788 46.184a1.495 1.495 0 0 0-1.498 1.597 1.5 1.5 0 0 0 1.498 1.384h30.715c.013-.162.047-.318.116-.477.129-.306.253-.608.369-.907.21-.541.398-1.073.562-1.597H43.788z"></path>
      <path fill="#CFD3DE" d="M123.264 9.81v5.448h-69.67l.632-5.422z"></path>
      <mask id="f" fill="#fff">
        <use xlink:href="#e"></use>
      </mask>
      <path fill="#292E4C" d="M78.32 39.203h53.832V28.762H78.319z" mask="url(#f)"></path>
      <path fill="#030D26" d="M145.34 69.208H133.37c.038-.214.059-.44.059-.665V51.427a3.84 3.84 0 0 0-.059-.663h11.968v18.444zm-14.114-23.024h-52.54c1.908-6.777.681-12.123-.364-14.968h52.904v14.968zm-.797 22.36a.68.68 0 0 1-.67.664h-8.863a.68.68 0 0 1-.67-.665V51.427c0-.358.31-.663.67-.663h8.863c.361 0 .67.305.67.663v17.116zm-13.145.664H28.98V50.764h88.304c-.039.212-.06.438-.06.663v17.116c0 .226.021.451.06.665zm28.36-21.426h-11.467c.034-.133.052-.277.052-.423V30.037c0-.995-.828-1.804-1.845-1.804h-7.635a1.497 1.497 0 0 0-1.485-1.715h-68.49c-.94-1.94-3.076-7.706.095-15.429h68.395c.828 0 1.501-.665 1.501-1.49 0-.823-.673-1.493-1.501-1.493H53.877c-.588 0-1.124.345-1.367.877-4.454 9.789-1.309 17.185-.224 19.25h-8.498a1.5 1.5 0 0 0-1.502 1.49 1.5 1.5 0 0 0 1.502 1.493h31.294c.884 1.93 2.848 7.472.467 14.968a24.668 24.668 0 0 1-.562 1.598H28.68c-1.488 0-2.702 1.205-2.702 2.683v19.042c0 1.478 1.214 2.683 2.702 2.683h116.966a2.694 2.694 0 0 0 2.697-2.683V50.465a2.694 2.694 0 0 0-2.697-2.683z" mask="url(#f)"></path>
      <path fill="#FFF" d="M69.746 53.152l-3.129-4.04-3.132 4.04v-13.95h6.26v13.95zm-7.76-15.441v21.423l4.631-7.242 4.63 7.242V37.71h-9.261z" mask="url(#f)"></path>
      <path fill="#030D26" d="M69.746 53.152l-3.129-4.04-3.132 4.04v-13.95h6.26v13.95zM60.484 36.22V62.13l6.133-7.459 6.131 7.46V36.22H60.484z" mask="url(#f)"></path>
      <path fill="#FFF" d="M69.746 39.202v13.951l-3.129-4.042-3.132 4.042V39.202z" mask="url(#f)"></path>
    </g>
    <g transform="translate(63 80)">
      <mask id="h" fill="#fff">
        <use xlink:href="#g"></use>
      </mask>
      <path fill="#E1373A" d="M7.066 4L4 4.438v10.594h3.066z" mask="url(#h)"></path>
    </g>
    <g stroke="#030D26" stroke-linecap="round" stroke-linejoin="round" stroke-width="2">
      <path d="M3 113h7M18.018 113h144.949"></path>
    </g>
  </g>
</svg>
