<svg xmlns="http://www.w3.org/2000/svg" width="142" height="49" viewBox="0 0 142 49">
    <g fill="none" fill-rule="evenodd">
        <path fill="#E1373A" d="M92.186 17.993c-6.715.097-13.417-1.076-20.05-2.806-3.893-1.017-7.793-2.022-11.772-2.647-5.53-.869-11.084-1.144-16.673-.773-4.126.271-8.135 1.111-12.082 2.311-.191.058-.446.257-.572-.01-.15-.313.19-.39.375-.5 3.734-2.22 7.762-3.636 11.988-4.49 5.766-1.167 11.575-1.282 17.424-.839 5.609.427 11.04 1.755 16.464 3.131 4.469 1.136 8.958 2.168 13.547 2.637 4.313.442 8.634.532 12.967.24a61.79 61.79 0 0 0 9.635-1.4c.203-.047.461-.183.549.114.082.283-.213.34-.391.436-3.342 1.778-6.9 2.918-10.591 3.653-3.518.7-7.074 1-10.818.943"/>
        <path fill="#FFF" d="M90.341 43.345c.292-.851.564-1.63.824-2.411 1.356-4.092 2.716-8.182 4.052-12.28.16-.49.382-.66.889-.654 2.418.03 4.838.013 7.258.018.265 0 .643-.107.607.376-.027.377.238.884-.444 1.012-.776.147-1.53.413-2.302.585-.365.083-.505.238-.503.638.01 4.93.01 9.86 0 14.79 0 .387.116.575.492.656.774.169 1.532.412 2.308.568.598.12.438.563.458.948.027.5-.33.381-.593.383-2.882.004-5.762.005-8.645-.005-.22 0-.601.175-.57-.305.024-.378-.229-.885.429-1.023.71-.15 1.397-.404 2.106-.55.421-.088.511-.298.511-.704-.01-4.702-.005-9.403-.013-14.105 0-.199.126-.488-.234-.529-.301-.035-.423.144-.518.408-.408 1.154-.833 2.302-1.248 3.454-1.537 4.266-3.081 8.528-4.597 12.802-.158.445-.347.582-.795.571-1.328-.032-1.319-.012-1.795-1.345-1.802-5.04-3.611-10.074-5.419-15.111a6.491 6.491 0 0 0-.234-.566c-.081-.175-.242-.17-.398-.156-.199.02-.247.16-.247.337l.001.342c0 4.543.008 9.085-.012 13.627-.002.44.12.647.521.778.649.21 1.272.51 1.92.718.561.18.405.624.407 1.007.002.486-.373.351-.63.353-2.112.007-4.223.007-6.335-.003-.202 0-.567.161-.537-.26.027-.363-.269-.847.285-1.066.677-.268 1.347-.555 2.03-.807.274-.101.368-.252.368-.55-.007-4.907-.008-9.815 0-14.72 0-.35-.15-.467-.446-.554-.61-.179-1.203-.429-1.818-.599-.652-.18-.335-.7-.367-1.07-.041-.447.34-.323.573-.325 2.266-.007 4.532.007 6.798-.014.421-.004.627.14.763.55a4067.62 4067.62 0 0 0 4.656 13.869c.097.287.125.617.444.922M50.756 38.308c0 2.283.012 4.564-.011 6.847-.005.417.116.61.493.734.646.216 1.27.514 1.919.72.61.193.4.68.4 1.07-.003.452-.375.29-.603.29-2.112.01-4.225.008-6.337 0-.237 0-.597.136-.586-.315.01-.37-.202-.834.358-1.033.644-.229 1.265-.525 1.91-.748.38-.133.482-.358.48-.757-.012-4.77-.016-9.54.004-14.31.004-.515-.18-.733-.625-.854-.532-.143-1.041-.379-1.575-.496-.695-.15-.412-.688-.443-1.083-.04-.512.37-.347.613-.35 2.243-.01 4.488.012 6.733-.019.473-.005.65.192.79.61 1.552 4.648 3.116 9.288 4.677 13.932.035.106.077.213.11.32.047.148.056.355.244.354.201-.004.183-.236.23-.373.693-2.063 1.381-4.13 2.066-6.196.892-2.693 1.786-5.383 2.664-8.08.13-.402.312-.568.747-.565 2.463.023 4.929.009 7.392.016.242 0 .613-.097.547.35-.054.357.31.89-.393 1.034-.797.162-1.573.426-2.366.605-.323.073-.427.21-.427.546.007 4.975.01 9.95-.002 14.924 0 .369.12.518.464.594.774.168 1.532.41 2.306.57.662.137.398.648.421 1.022.03.48-.354.3-.573.301-2.88.01-5.764.007-8.647.005-.243-.001-.589.107-.568-.336.017-.367-.206-.844.404-.982.707-.162 1.397-.406 2.107-.552.433-.088.571-.283.57-.732-.013-4.679-.006-9.357-.011-14.036 0-.223.104-.525-.278-.58-.38-.056-.428.24-.518.488l-4.12 11.454c-.569 1.579-1.155 3.151-1.7 4.738-.139.409-.318.556-.745.55-1.383-.015-1.374 0-1.858-1.352-1.816-5.081-3.64-10.158-5.462-15.238-.017-.042-.027-.087-.043-.13-.088-.233-.158-.49-.484-.453-.385.046-.269.356-.27.581-.006 2.305-.004 4.61-.004 6.915M12.635 49c-3.73-.072-7.133-1.074-9.736-4.254-1.347-1.644-2.165-3.588-2.567-5.74-.598-3.223-.432-6.364.859-9.387 1.987-4.655 6.72-7.742 11.398-7.456 1.692.105 3.337.398 4.892 1.153.277.135.453.113.632-.155.196-.293.418-.565.629-.846.378-.5.879-.261 1.333-.238.176.009.142.25.147.4.081 2.59.156 5.18.245 7.77.012.345-.123.376-.39.433-.629.136-1.006-.044-1.328-.707-.793-1.626-1.734-3.15-3.04-4.36-2.696-2.49-7.157-2.129-9.493 1.74-1.21 2.004-1.769 4.247-1.89 6.615-.143 2.797.092 5.55 1.307 8.085 1.346 2.806 3.512 4.323 6.36 4.73 1.265.181 2.516.206 3.751-.234a1.91 1.91 0 0 0 .992-.754c.987-1.432 2.016-2.83 3-4.266.258-.378.48-.357.834-.203.375.164.48.353.41.81a107.697 107.697 0 0 0-.545 4.18c-.044.378-.193.588-.497.777-2.268 1.409-4.733 1.884-7.303 1.907M130.486 23.013c3.186 0 6.372.012 9.558-.013.49-.005.7.133.787.677.347 2.153.737 4.3 1.103 6.449.04.227.19.553-.161.621-.31.06-.636.362-.942-.15-.758-1.274-1.586-2.497-2.37-3.753-.821-1.318-1.97-1.886-3.402-1.847-.612.016-1.227.045-1.836-.009-.572-.05-.753.131-.746.785.031 3.344.014 6.688.014 10.03 0 3.321.022 6.642-.017 9.961-.009.703.194.955.8 1.057 1.061.18 2.11.452 3.165.667.702.143.302.725.374 1.105.081.412-.213.406-.483.405-3.82-.002-7.639 0-11.459-.004-.216 0-.552.079-.455-.331.09-.396-.375-1.016.366-1.175 1.156-.25 2.311-.527 3.471-.755.339-.066.45-.195.449-.573-.009-6.894-.009-13.79-.002-20.684 0-.335-.05-.497-.407-.484-.887.029-1.774.018-2.659.01-1.33-.008-2.36.611-3.116 1.783-.764 1.186-1.533 2.371-2.253 3.59-.263.445-.519.59-.974.406-.491-.2-.222-.59-.177-.867.339-2.108.737-4.206 1.05-6.32.08-.547.292-.59.7-.588 3.206.012 6.415.007 9.622.007"/>
        <path fill="#FFF" d="M26.01 38.571c-.003-3.84 1.36-7.003 4.645-9.084 2.502-1.583 5.28-1.795 8.103-1.138 3.13.728 5.322 2.672 6.39 5.73 1.449 4.154 1.16 8.146-1.725 11.635-1.801 2.18-4.23 3.17-7.037 3.275-2.422.091-4.685-.361-6.649-1.866-2.455-1.885-3.467-4.523-3.723-7.532-.03-.338-.004-.68-.004-1.02m4.094-.426c.022 1.976.144 3.67.76 5.28.757 1.984 1.998 3.47 4.166 3.93 2.327.496 4.303-.554 5.539-2.925.93-1.788 1.25-3.722 1.254-5.707.001-2.146-.274-4.25-1.386-6.144-1.117-1.903-2.704-3.1-4.97-3.005-2.312.096-3.671 1.527-4.507 3.588-.686 1.687-.823 3.463-.856 4.983"/>
        <path fill="#E1373A" d="M68 6.081c1.405-.397 2.747-.633 4.097-.825 4.292-.605 8.513-.054 12.703.797 5.045 1.026 10.12 1.853 15.263 2.237 4.729.355 9.459.294 14.186-.04.105-.006.21-.017.316-.023.17-.008.369-.022.422.178.07.263-.168.289-.346.335-2.078.541-4.167 1.048-6.288 1.399-4.01.66-8.06.9-12.12.856-5.598-.062-11.103-.837-16.543-2.108-3.709-.867-7.389-1.865-11.148-2.534A.873.873 0 0 1 68 6.081"/>
        <path fill="#FFF" d="M55.174 4.946c-3.219-.092-6.434.014-9.617.524-4.024.645-7.964 1.642-11.726 3.31-.082.036-.162.07-.244.102-.182.07-.417.218-.54.016-.159-.26.121-.399.28-.53 1.844-1.51 3.84-2.763 5.916-3.897C42.776 2.539 46.534 1.29 50.437.567 54.31-.15 58.217-.18 62.126.439c2.812.449 5.585 1.042 8.281 1.999.235.083.631.092.59.42-.037.295-.426.24-.67.267-2.875.33-5.667 1.073-8.474 1.757-1.333.326-2.703.073-4.056.064-.875-.004-1.748 0-2.623 0M111.062 28.005c1.469 0 2.94-.001 4.408.002.218.002.554-.089.48.325-.061.342.305.852-.334 1-.82.194-1.629.447-2.451.625-.356.076-.444.241-.444.597.009 4.96.009 9.922-.002 14.883 0 .384.094.569.48.643.783.151 1.552.395 2.336.544.66.128.375.641.423 1.015.061.481-.296.343-.522.343-2.96.005-5.92.005-8.88 0-.225 0-.579.136-.517-.347.049-.375-.23-.888.431-1.013.785-.147 1.553-.393 2.337-.544.387-.074.475-.257.473-.643-.01-4.936-.01-9.874.002-14.812 0-.412-.091-.603-.505-.684-.805-.16-1.59-.418-2.39-.6-.64-.148-.278-.658-.34-1-.074-.41.256-.33.478-.332 1.512-.003 3.025-.002 4.537-.002"/>
    </g>
</svg>
