<?xml version="1.0" encoding="utf-8"?>
<!-- Generator: Adobe Illustrator 16.0.4, SVG Export Plug-In . SVG Version: 6.00 Build 0)  -->
<!DOCTYPE svg PUBLIC "-//W3C//DTD SVG 1.1//EN" "http://www.w3.org/Graphics/SVG/1.1/DTD/svg11.dtd">
<svg version="1.1" id="Layer_1" xmlns="http://www.w3.org/2000/svg" xmlns:xlink="http://www.w3.org/1999/xlink" x="0px" y="0px"
	 width="83.999px" height="18px" viewBox="31 0 83.999 18" enable-background="new 31 0 83.999 18" xml:space="preserve">
<g>
	<path fill="#E1373A" d="M92.186,17.993c-6.715,0.097-13.416-1.076-20.049-2.806c-3.894-1.017-7.794-2.022-11.773-2.647
		c-5.53-0.869-11.084-1.144-16.673-0.773c-4.126,0.271-8.135,1.111-12.082,2.311c-0.191,0.058-0.446,0.257-0.572-0.01
		c-0.15-0.313,0.19-0.39,0.375-0.5c3.734-2.22,7.762-3.636,11.988-4.49c5.766-1.167,11.575-1.282,17.424-0.839
		c5.609,0.427,11.039,1.755,16.464,3.131c4.469,1.136,8.958,2.168,13.547,2.637c4.313,0.442,8.634,0.532,12.967,0.24
		c3.243-0.212,6.466-0.681,9.636-1.4c0.203-0.047,0.461-0.183,0.549,0.114c0.082,0.283-0.213,0.34-0.391,0.436
		c-3.343,1.778-6.9,2.918-10.592,3.653C99.486,17.75,95.93,18.05,92.186,17.993"/>
	<path fill="#E1373A" d="M68,6.081c1.405-0.397,2.747-0.633,4.098-0.825c4.291-0.605,8.512-0.054,12.702,0.797
		c5.046,1.026,10.12,1.854,15.263,2.237c4.729,0.355,9.459,0.294,14.187-0.04c0.104-0.006,0.21-0.017,0.315-0.023
		c0.17-0.008,0.369-0.022,0.422,0.178c0.07,0.263-0.168,0.289-0.346,0.335c-2.078,0.541-4.166,1.048-6.287,1.399
		c-4.011,0.66-8.061,0.9-12.121,0.856c-5.598-0.062-11.103-0.837-16.543-2.108C75.98,8.02,72.301,7.022,68.542,6.353
		C68.334,6.33,68.143,6.233,68,6.081"/>
	<path fill="#FFFFFF" d="M55.174,4.946C51.955,4.854,48.74,4.96,45.557,5.47c-4.024,0.646-7.964,1.642-11.726,3.311
		c-0.082,0.036-0.162,0.07-0.244,0.102c-0.182,0.07-0.417,0.218-0.54,0.016c-0.159-0.26,0.121-0.399,0.28-0.53
		c1.844-1.51,3.84-2.763,5.916-3.897c3.533-1.932,7.291-3.181,11.194-3.904c3.873-0.717,7.78-0.747,11.689-0.128
		c2.812,0.449,5.585,1.042,8.281,1.999c0.235,0.083,0.631,0.092,0.59,0.42c-0.037,0.295-0.426,0.24-0.67,0.267
		c-2.875,0.33-5.667,1.073-8.474,1.757c-1.333,0.326-2.703,0.073-4.056,0.064C56.922,4.942,56.049,4.946,55.174,4.946"/>
</g>
</svg>
