<svg xmlns="http://www.w3.org/2000/svg" width="38" height="38" viewBox="0 0 38 38">
    <g fill="none" fill-rule="evenodd">
        <circle cx="19" cy="19" r="19" fill="#292E4C" fill-rule="nonzero"/>
        <path fill="#FFF" d="M16.635 28v-7.74H14v-3.034h.192c.76 0 1.524-.003 2.286.002.137.001.173-.042.173-.173.003-.831-.017-1.665.022-2.493.056-1.103.458-2.065 1.365-2.773.54-.424 1.17-.65 1.85-.732 1.001-.119 2-.03 2.997.063.04.005.108.073.108.113.007.826.004 1.651.007 2.478 0 .123-.074.12-.162.12-.555 0-1.11-.005-1.665.013a2.21 2.21 0 0 0-.606.107c-.442.145-.67.48-.692.916-.033.66-.029 1.32-.035 1.982-.005.376-.002.376.38.376.827 0 1.656.004 2.483-.004.16-.001.19.05.17.194-.12.89-.242 1.784-.353 2.677-.018.132-.068.165-.195.165-.758-.004-1.514-.003-2.27-.003h-.206V28h-3.214z"/>
    </g>
</svg>
