<svg xmlns="http://www.w3.org/2000/svg" width="30" height="30" viewBox="0 0 30 30">
    <g fill="none" fill-rule="evenodd">
        <path fill="#DA4F46" fill-rule="nonzero" d="M0 0h30v30H0z"/>
        <g fill="#FFF">
            <path d="M18.993 13.443v1.194c0 2.96-2.476 5.363-5.525 5.363C10.414 20 8 17.597 8 14.637c0-2.964 2.414-5.367 5.468-5.367 1.37 0 2.62.487 3.585 1.29l-1.752 1.69a3.095 3.095 0 0 0-1.833-.593c-1.697 0-3.07 1.333-3.07 2.98 0 1.643 1.373 2.976 3.07 2.976 1.26 0 2.342-.733 2.816-1.786h-2.816v-2.384h5.525zM21.963 12.143v1.769h-1.82v1.176h1.82v1.77h1.213v-1.77H25v-1.176h-1.824v-1.77z"/>
        </g>
    </g>
</svg>
