<svg xmlns="http://www.w3.org/2000/svg" width="32" height="32" viewBox="0 0 34 25">
    <g fill="none" fill-rule="evenodd" stroke="#E1373A" stroke-linecap="round" stroke-linejoin="round" stroke-width="2">
        <path d="M10 8c.261-3.92 2.892-7 6.1-7 2.814 0 5.185 2.371 5.9 5.6M29 11c-.157-3.956-2.174-7-4.626-7-.868 0-1.68.392-2.374 1.073M24 16s-.5-2-3-2M16.179 14.455c-1.68-.824-2.464 1.038-2.464 1.038s-1.611-1.466-2.91-.306c-1.3 1.16-.852 2.504-.852 2.504"/>
        <path d="M5.57 15.641c-.477-.582-1.07-.927-1.713-.927C2.28 14.714 1 16.794 1 19.357 1 21.922 2.28 24 3.857 24h26.286C31.72 24 33 21.922 33 19.357 33 14.742 30.698 11 27.857 11a3.37 3.37 0 0 0-1.491.357M10 9.529A4.424 4.424 0 0 0 7.907 9C5.365 9 3.271 11.188 3 14"/>
    </g>
</svg>
