<svg xmlns="http://www.w3.org/2000/svg" xmlns:xlink="http://www.w3.org/1999/xlink" width="37" height="27" viewBox="0 0 37 27">
    <defs>
        <path id="a" d="M0 0h36.41v26.18H0z"/>
    </defs>
    <g fill="none" fill-rule="evenodd">
        <mask id="b" fill="#fff">
            <use xlink:href="#a"/>
        </mask>
        <path fill="#fff" d="M36.41 4.07c-3.96 1.87-8.25 5.61-9.68 9.24.22-.11.77-.11.99-.11 2.86 0 5.28 2.2 5.28 5.61 0 4.071-3.63 7.37-7.48 7.37-3.52 0-6.6-2.42-6.6-7.15 0-7.37 6.16-15.29 13.64-19.03l3.85 4.07zm-18.81 0c-4.07 1.87-8.36 5.61-9.68 9.24.11-.11.66-.11.88-.11 2.86 0 5.28 2.2 5.28 5.61 0 4.071-3.63 7.37-7.48 7.37-3.52 0-6.6-2.42-6.6-7.15C0 11.66 6.27 3.74 13.75 0l3.85 4.07z" mask="url(#b)"/>
    </g>
</svg>
